<svg width="204" height="28" viewBox="0 0 204 28" fill="none" xmlns="http://www.w3.org/2000/svg">
<path d="M203.165 3.94584C203.165 2.58093 202.035 1.47358 200.643 1.47358C199.26 1.47375 198.122 2.58989 198.122 3.94567C198.122 5.30162 199.261 6.41709 200.643 6.41743C202.027 6.41793 203.164 5.30196 203.165 3.94584ZM197.695 3.94567C197.695 2.35922 199.025 1.05469 200.643 1.05469C202.269 1.05469 203.592 2.3506 203.592 3.945C203.592 5.53111 202.261 6.83581 200.644 6.83632C199.025 6.83683 197.695 5.53212 197.695 3.94567Z" fill="#7F7F7F"/>
<path fill-rule="evenodd" clip-rule="evenodd" d="M200.557 1.82154C200.634 2.52995 201.216 2.12747 201.467 1.9296C201.559 1.85841 201.671 1.72734 201.732 1.69048C201.772 1.66748 201.831 1.68372 201.854 1.73191C201.878 1.80311 201.887 1.89291 201.843 2.02397C201.788 2.17803 201.697 2.32753 201.646 2.40802C201.512 2.61958 201.38 2.80578 201.223 3.00127C200.968 3.31413 200.644 3.56239 200.377 3.86831C199.966 4.33743 199.734 5.06191 199.86 5.67359C199.893 5.82986 199.968 6.02772 200.121 6.11041C201.026 6.6027 201.69 4.4915 201.383 3.86831C201.341 3.78782 201.256 3.64289 201.144 3.66369C200.576 3.76718 200.313 5.57466 200.667 5.70573C200.65 5.91965 200.304 6.05072 200.203 5.65516C200.17 5.51717 200.163 5.37224 200.168 5.22967C200.185 4.62712 200.677 3.71645 201.24 3.43826C201.496 3.3094 201.857 3.31176 202 3.59926C202.504 4.62256 201.141 6.5129 199.961 6.34041C199.391 6.25534 199.185 5.71959 199.229 5.21124C199.265 4.79286 199.443 4.39493 199.689 4.05451C200.187 3.36926 200.97 3.1692 201.35 2.63108C201.35 2.63108 201.364 2.61045 201.367 2.59895C201.373 2.58204 201.353 2.56208 201.327 2.58204C201.285 2.61891 201.067 2.72934 200.914 2.7476C200.607 2.7821 200.441 2.37048 200.389 2.14285C200.377 2.09229 200.374 2.05322 200.326 2.11749C200.176 2.30842 200.06 3.37552 199.908 3.43521L199.312 3.66758C199.312 3.66758 199.286 3.67941 199.277 3.64458C199.209 3.39615 199.824 2.53384 199.995 2.24398C200.018 2.20729 200.159 1.93823 200.185 1.91743C200.229 1.88073 200.502 1.81173 200.558 1.82086L200.557 1.82154Z" fill="#7F7F7F"/>
<path d="M22.1312 22.0982H13.9258L8.90032 13.929L7.26748 15.5946V22.0982H0.408203V1.54541H7.26748V8.17887L13.1489 1.54541H21.1937L13.6508 9.21113L22.1312 22.0982ZM31.3154 14.4734C31.3154 13.5337 31.0904 12.6815 30.6401 11.9267C30.1898 11.172 29.4949 10.7922 28.5454 10.7922C27.6987 10.7922 27.0577 11.172 26.627 11.9317C26.1962 12.696 25.981 13.5435 25.981 14.4734C25.981 15.4717 26.2109 16.4164 26.6711 17.2978C27.1262 18.1839 27.8308 18.627 28.7754 18.627C29.6858 18.627 30.3366 18.1985 30.7282 17.3367C31.1198 16.4749 31.3154 15.5204 31.3154 14.4734ZM36.0728 19.1041C34.452 21.4603 31.674 22.5629 28.8007 22.5629C25.8397 22.5629 22.9858 21.4696 21.3308 19.0197C19.8129 16.7722 19.6187 13.1075 20.8974 10.7095C21.8811 8.86394 23.6842 7.52998 25.7515 6.98797C28.0287 6.36834 30.4933 6.50228 32.6795 7.3864C34.7239 8.20998 36.2448 9.90449 36.907 11.9188C37.6301 14.1181 37.372 17.2149 36.0728 19.1041ZM89.2289 12.9658C89.0143 11.987 88.6614 11.3085 88.1746 10.9303C87.6834 10.5466 87.0632 10.3575 86.3048 10.3575C85.5701 10.3575 84.9881 10.5412 84.5588 10.9136C84.1294 11.2807 83.805 11.9648 83.5807 12.9658H89.2289ZM95.0967 15.8684H83.6401C83.6401 16.3311 83.7211 16.7372 83.8833 17.0909C84.3763 18.167 85.2682 18.8934 86.5452 18.8934C87.4831 18.8934 88.5646 18.5232 88.7663 17.5246H94.6339C94.4112 18.9416 93.4887 20.1918 92.3012 21.0134C91.1032 21.8396 89.632 22.3 88.1795 22.4625C86.3165 22.6869 84.1612 22.6258 82.4359 21.9196C80.4287 21.1018 78.9299 19.5898 78.1138 17.6385C77.3642 15.7367 77.354 13.6272 78.0806 11.7101C78.8342 9.72135 80.3858 8.18326 82.3978 7.36763C84.8446 6.38001 88.2704 6.44698 90.6363 7.60354C92.7356 8.626 94.1675 10.369 94.7627 12.569C95.0565 13.6757 95.1681 14.7361 95.0967 15.8684H95.0967ZM111.531 19.1327C110.404 21.2393 108.322 22.5552 105.813 22.5552C104.01 22.5552 102.825 21.9809 101.607 20.7553V27.1998H95.4946V7.17298H100.907V9.40595C102.081 7.11261 104.986 6.27939 107.33 6.85792C109.884 7.48246 111.604 9.58775 112.217 11.954C112.789 14.1533 112.591 17.1679 111.531 19.1327ZM106.553 14.2632C106.553 13.6302 106.339 12.9392 105.905 12.195C105.472 11.4509 104.844 11.0788 104.026 11.0788C103.213 11.0788 102.585 11.4267 102.147 12.1273C101.708 12.8232 101.489 13.5335 101.489 14.2632C101.489 15.1573 101.66 15.9932 102 16.7664C102.346 17.5396 103.018 17.9262 104.026 17.9262C105.009 17.9262 105.672 17.5251 106.027 16.723C106.349 15.9488 106.553 15.1022 106.553 14.2632ZM125.68 21.9264C123.305 22.7419 120.077 22.867 117.712 21.9024C116.223 21.2951 114.904 20.2703 114.07 18.9076C113.255 17.5988 112.832 16.091 112.832 14.5561C112.832 13.5338 113.052 12.5293 113.42 11.5755C114.274 9.43081 115.752 8.20018 117.884 7.34768C120.325 6.3719 123.951 6.40741 126.268 7.6438C128.477 8.82218 129.633 10.445 129.937 12.8366H123.682C123.572 12.1009 123.361 11.6462 123.051 11.2582C122.175 10.1587 120.192 10.6959 119.56 11.781C118.752 13.1655 118.619 15.2106 119.129 16.7282C119.466 17.7285 120.574 18.5766 121.651 18.5766C123.177 18.5766 123.494 17.569 123.893 16.3166H129.937C129.873 18.8208 128.346 21.0108 125.68 21.9264ZM141.086 16.2293C141.086 15.9515 141.06 15.7233 141.009 15.5497C140.59 15.7778 139.935 15.9763 139.045 16.1449C138.367 16.2664 137.646 16.4148 137.04 16.7404C136.181 17.1569 136.227 18.3513 136.979 18.8338C137.848 19.3466 139.306 19.3043 140.037 18.5859C140.733 17.9358 141.086 17.1522 141.086 16.2293ZM147.886 22.0982H141.63L141.392 20.5173C140.935 21.0952 139.916 21.5713 138.887 21.9597C138.386 22.1491 137.87 22.299 137.342 22.3943C136.815 22.4851 136.254 22.533 135.669 22.533C134.614 22.533 133.649 22.3515 132.774 21.9885C131.9 21.6254 131.239 21.057 130.783 20.2928C130.374 19.4521 130.169 18.6018 130.169 17.7326C130.169 16.6338 130.691 15.7279 131.409 14.9158C131.818 14.4526 132.218 14.1924 132.941 13.9202C133.283 13.7914 133.621 13.6794 133.953 13.5859C134.282 13.4932 134.593 13.405 134.89 13.3613L137.452 12.984C138.539 12.8239 139.591 12.6857 140.056 12.535C140.342 12.4422 140.679 12.1392 140.846 11.9481C141.012 11.7571 140.988 11.5564 140.988 11.3511C140.988 11.0692 140.85 10.8351 140.569 10.6442C140.289 10.4531 139.89 10.3575 139.372 10.3575C138.749 10.3575 137.975 10.4484 137.599 10.6298C137.224 10.8113 136.981 11.1744 136.867 11.714H131.072C131.267 10.7348 131.231 10.1632 131.515 9.56525C131.797 8.96913 132.242 8.45722 132.85 8.03207C133.459 7.60709 134.294 7.27665 135.365 7.05765C135.882 6.95195 136.497 6.87822 137.195 6.82359C137.899 6.76846 138.678 6.73768 139.543 6.73768C141.649 6.73768 143.226 6.98324 144.278 7.47316C145.327 7.9624 146.012 8.3566 146.332 9.09174C146.649 9.82298 146.864 10.7731 146.964 11.9386V19.8294C146.964 20.6415 147.273 21.2433 147.886 21.635V22.0982ZM164.887 22.0982H158.852V16.52H154.382V22.0982H148.405L148.399 7.40568L148.405 7.1811H154.382V12.1794H158.784V7.1811H164.887L164.881 21.8308L164.887 22.0982ZM181.657 11.5775H176.46V22.0982H170.406V11.5775H165.165V7.1811H181.657V11.5775ZM201.26 17.3247C201.26 18.635 200.624 19.7861 199.601 20.6071C198.255 21.6983 196.394 22.0982 194.686 22.0982H185.344V11.5775H181.854V7.1811H191.168V12.4167H194.355C196.128 12.4167 198.095 12.7568 199.501 13.8989C200.558 14.7575 201.26 15.9584 201.26 17.3247ZM195.243 17.3399C195.243 16.3974 194.711 16.002 193.797 15.8946C193.611 15.8946 193.244 15.8794 192.7 15.8566C192.156 15.8328 191.427 15.8233 191.168 15.8233V18.7043L192.682 18.7329C193.094 18.7414 193.434 18.7244 193.697 18.7043C194.627 18.6366 195.243 18.389 195.243 17.3399V17.3399ZM49.017 22.098H46.0836L42.8783 12.1331L43.3733 16.0389V22.098H38.0208V7.09502H44.8854L47.5503 15.3824L50.2152 7.09502H57.08V22.098H51.7273V16.0389L52.2223 12.1331L49.017 22.098ZM69.0616 22.098H66.1282L62.9229 12.1331L63.4179 16.0389V22.098H58.0652V7.09502H64.93L67.5949 15.3824L70.2598 7.09502H77.1244V22.098H71.7719V16.0389L72.2669 12.1331L69.0616 22.098Z" fill="white"/>
</svg>
