<svg width="533" height="378" viewBox="0 0 533 378" fill="none" xmlns="http://www.w3.org/2000/svg">
<path d="M114.426 221.033C89.5056 194.803 78.9806 167.438 84.7885 143.981C92.2419 113.879 125.354 93.0652 175.634 86.8778L175.819 88.6045C126.239 94.7054 93.6327 115.052 86.3598 144.426C80.7075 167.254 91.0797 194.021 115.566 219.795L114.426 221.033Z" fill="#F0F0F0"/>
<path d="M426.212 303.213L425.691 301.566C453.508 291.511 470.906 275.312 476.004 254.72C482.486 228.543 468.405 198.166 436.356 169.185C404.143 140.056 357.692 115.887 305.557 101.13L305.973 99.4499C358.335 114.272 405.013 138.566 437.405 167.858C469.96 197.297 484.227 228.303 477.576 255.165C472.331 276.347 454.57 292.962 426.212 303.213Z" fill="#F0F0F0"/>
<path d="M170.795 314.867C109.682 285.887 62.5898 248.288 38.194 208.997L39.5479 208.036C63.775 247.055 110.62 284.431 171.453 313.279L170.795 314.867Z" fill="#F0F0F0"/>
<path d="M385.663 365.073C379.359 365.073 372.948 364.923 366.429 364.622L366.499 362.886C415.147 365.138 458.07 358.913 490.636 344.881L491.244 346.493C462.836 358.732 426.627 365.073 385.663 365.073Z" fill="#F0F0F0"/>
<path d="M350.204 88.4361C340.103 84.9198 329.714 81.6458 319.324 78.7048C259.535 61.7811 200.762 55.7723 149.357 61.3314L149.193 59.6021C200.791 54.0248 259.765 60.048 319.74 77.0248C330.159 79.9742 340.578 83.2576 350.707 86.784L350.204 88.4361Z" fill="#F0F0F0"/>
<path d="M76.2316 223.639C51.3116 197.409 40.7866 170.045 46.5945 146.588C54.0479 116.485 87.1597 95.6718 137.44 89.4844L137.625 91.2112C88.0454 97.312 55.4387 117.658 48.1658 147.032C42.5135 169.861 52.8857 196.627 77.372 222.401L76.2316 223.639Z" fill="#F0F0F0"/>
<path d="M316.667 316.747C285.566 316.747 251.768 311.806 218.198 302.303C176.683 290.552 138.619 272.815 108.12 251.009L109.023 249.565C139.375 271.265 177.271 288.921 218.613 300.623C255.974 311.199 293.615 316.099 327.453 314.806L327.512 316.542C323.938 316.679 320.323 316.748 316.667 316.747Z" fill="#F0F0F0"/>
<path d="M388.018 305.819L387.498 304.173C415.314 294.117 432.712 277.919 437.81 257.327C444.292 231.149 430.211 200.772 398.162 171.791C365.949 142.663 319.498 118.494 267.363 103.737L267.779 102.057C320.141 116.878 366.819 141.173 399.211 170.465C431.766 199.903 446.033 230.909 439.382 257.771C434.137 278.954 416.376 295.568 388.018 305.819Z" fill="#F0F0F0"/>
<path d="M132.601 317.474C71.4879 288.493 24.3958 250.895 0 211.604L1.35388 210.642C25.581 249.662 72.4259 287.037 133.259 315.885L132.601 317.474Z" fill="#F0F0F0"/>
<path d="M347.469 367.68C341.165 367.68 334.754 367.529 328.235 367.228L328.305 365.492C376.953 367.744 419.876 361.52 452.442 347.488L453.05 349.1C424.642 361.339 388.433 367.68 347.469 367.68Z" fill="#F0F0F0"/>
<path d="M312.01 91.0427C301.91 87.5265 291.52 84.2525 281.13 81.3115C221.341 64.3878 162.568 58.379 111.163 63.9381L110.999 62.2088C162.597 56.6315 221.571 62.6547 281.546 79.6314C291.965 82.5809 302.384 85.8642 312.514 89.3907L312.01 91.0427Z" fill="#F0F0F0"/>
<path d="M27.702 177.094C39.3814 163.093 58.0121 154.56 74.8957 159.668C59.3199 171.453 48.1449 188.75 43.348 208.497C41.5239 216.12 40.2374 224.801 34.3082 229.462C30.619 232.362 25.7308 233.055 21.1938 232.394C16.6566 231.734 12.3666 229.847 8.1345 227.978L6.99568 228.083C10.2699 209.651 16.0225 191.096 27.702 177.094Z" fill="#F2F2F2"/>
<path d="M74.8441 160.058C60.7283 163.712 48.0482 172.029 38.6049 183.827C36.5299 186.329 34.8365 189.164 33.5872 192.229C32.4604 195.257 32.1126 198.552 32.5798 201.773C32.959 204.785 33.673 207.818 33.3609 210.876C33.1793 212.439 32.6909 213.943 31.9275 215.29C31.1642 216.637 30.1432 217.796 28.9316 218.691C25.9667 221.006 22.4008 222.044 18.8806 222.929C14.9721 223.912 10.8979 224.867 7.71184 227.644C7.32581 227.981 6.86004 227.32 7.2455 226.984C12.7887 222.152 20.4924 222.773 26.6254 219.263C29.4871 217.625 31.9047 215.056 32.4924 211.53C33.0064 208.446 32.2725 205.317 31.864 202.271C31.3651 199.137 31.5917 195.919 32.5238 192.9C33.6231 189.777 35.2115 186.876 37.221 184.323C41.6591 178.497 46.9263 173.454 52.8297 169.377C59.5431 164.685 66.9577 161.255 74.7528 159.236C75.2353 159.112 75.3235 159.934 74.8441 160.058L74.8441 160.058Z" fill="white"/>
<path d="M41.4365 179.837C39.8002 177.874 38.8697 175.353 38.8112 172.725C38.7527 170.096 39.57 167.531 41.1171 165.487C41.4315 165.075 42.0456 165.578 41.7308 165.991C40.2868 167.891 39.5258 170.281 39.5849 172.728C39.6441 175.176 40.5196 177.52 42.0534 179.338C42.3863 179.734 41.7674 180.23 41.4365 179.837H41.4365Z" fill="white"/>
<path d="M32.1994 200.273C37.2153 200.629 42.1724 198.951 46.0824 195.572C46.4695 195.237 46.9354 195.897 46.5487 196.232C42.4738 199.739 37.3118 201.475 32.0929 201.092C31.5955 201.055 31.7047 200.236 32.1994 200.273Z" fill="white"/>
<path d="M59.717 165.766C60.2021 166.666 60.8888 167.424 61.7154 167.97C62.542 168.517 63.4827 168.835 64.4529 168.897C64.9505 168.927 64.8407 169.746 64.3464 169.716C63.2748 169.643 62.2363 169.289 61.3218 168.688C60.4073 168.086 59.6445 167.254 59.1001 166.264C59.0414 166.176 59.0166 166.066 59.0306 165.959C59.0446 165.851 59.0963 165.753 59.1753 165.685C59.2573 165.62 59.3602 165.591 59.4617 165.606C59.5631 165.621 59.6548 165.679 59.717 165.766Z" fill="white"/>
<path d="M98.8623 217.791C98.551 217.782 98.2398 217.773 97.9247 217.769C93.7401 217.666 89.5546 217.927 85.4095 218.55C85.0883 218.592 84.7634 218.641 84.444 218.693C74.4726 220.306 64.8678 223.884 56.1181 229.246C52.6382 231.383 49.3153 233.8 46.1784 236.476C41.8464 240.172 37.4243 244.548 32.3527 246.442C31.8256 246.646 31.2873 246.815 30.7407 246.947L7.20437 229.56C7.16943 229.492 7.13053 229.43 7.09532 229.361L6.12591 228.713C6.27868 228.563 6.44014 228.411 6.59291 228.26C6.68119 228.173 6.77474 228.089 6.86299 228.002C6.9235 227.945 6.98431 227.888 7.03586 227.833C7.05594 227.814 7.07628 227.795 7.09266 227.781C7.14422 227.726 7.19759 227.681 7.24543 227.631C8.14578 226.778 9.0533 225.93 9.96799 225.088C9.9717 225.082 9.97171 225.082 9.98067 225.08C16.9655 218.678 24.5116 212.844 32.6459 208.42C32.8907 208.287 33.1389 208.148 33.3945 208.023C37.0714 206.051 40.893 204.403 44.821 203.096C46.974 202.388 49.1592 201.797 51.3681 201.325C57.0778 200.117 62.9296 199.877 68.709 200.614C80.23 202.085 91.1829 207.479 98.3234 217.054C98.5059 217.299 98.6835 217.54 98.8623 217.791Z" fill="#F2F2F2"/>
<path d="M98.6029 218.072C85.2745 211.903 70.4669 210.38 56.2834 213.722C53.2181 214.383 50.2694 215.557 47.5459 217.2C44.9413 218.892 42.808 221.3 41.3677 224.171C39.9745 226.82 38.8363 229.702 36.8651 231.943C35.8401 233.074 34.6032 233.961 33.2353 234.545C31.8674 235.129 30.3996 235.397 28.928 235.332C25.2572 235.271 21.8257 233.804 18.5166 232.245C14.8424 230.514 11.0518 228.653 6.94404 228.82C6.44633 228.84 6.44616 228.013 6.94312 227.993C14.0899 227.703 19.8915 233.158 26.7646 234.304C29.9718 234.838 33.349 234.343 35.8039 231.906C37.9505 229.775 39.1267 226.804 40.5157 224.108C41.8823 221.285 43.8748 218.862 46.3191 217.051C48.9555 215.265 51.857 213.972 54.8992 213.227C61.7233 211.432 68.7689 210.796 75.7778 211.341C83.7802 211.917 91.6317 213.951 98.9925 217.357C99.448 217.568 99.0555 218.281 98.6029 218.072Z" fill="white"/>
<path d="M60.7912 212.358C60.5899 209.738 61.2664 207.126 62.6999 204.99C64.1333 202.853 66.2303 201.331 68.6164 200.696C69.0996 200.569 69.3067 201.366 68.8229 201.493C66.5999 202.08 64.6467 203.498 63.3157 205.491C61.9847 207.483 61.3636 209.919 61.5645 212.358C61.6076 212.888 60.834 212.886 60.7912 212.358Z" fill="white"/>
<path d="M41.9087 222.729C45.713 226.242 50.6161 228.093 55.6402 227.913C56.1379 227.895 56.1382 228.722 55.6411 228.74C50.4126 228.917 45.3139 226.98 41.3625 223.314C40.9861 222.965 41.5344 222.381 41.9087 222.729Z" fill="white"/>
<path d="M83.3106 212.891C83.1909 213.923 83.3126 214.969 83.6648 215.938C84.017 216.907 84.5887 217.766 85.3285 218.44C85.7088 218.785 85.1602 219.368 84.7823 219.026C83.9682 218.277 83.3379 217.327 82.9465 216.257C82.5552 215.188 82.4147 214.033 82.5372 212.892C82.5404 212.784 82.582 212.68 82.6538 212.604C82.7255 212.527 82.8219 212.482 82.9234 212.478C83.0258 212.479 83.1239 212.522 83.1964 212.6C83.2689 212.677 83.31 212.782 83.3106 212.891H83.3106Z" fill="white"/>
<path d="M485.344 291.87C478.745 274.486 463.881 259.754 446.374 258.498C457.339 275.195 462.427 295.501 460.737 315.824C460.059 323.658 458.542 332.297 462.661 338.818C465.224 342.875 469.61 345.284 474.091 346.292C478.572 347.3 483.205 347.065 487.779 346.826L488.818 347.334C491.528 328.798 491.943 309.254 485.344 291.87Z" fill="#F2F2F2"/>
<path d="M446.3 258.884C458.446 267.398 467.774 279.788 472.959 294.294C474.127 297.395 474.831 300.674 475.044 304.01C475.153 307.267 474.445 310.495 472.993 313.36C471.689 316.061 470.063 318.662 469.395 321.654C469.075 323.191 469.062 324.783 469.358 326.326C469.653 327.869 470.251 329.327 471.11 330.606C473.175 333.852 476.207 336.11 479.245 338.209C482.617 340.539 486.154 342.903 488.281 346.663C488.539 347.119 489.185 346.665 488.928 346.21C485.226 339.667 477.776 337.483 473.103 331.973C470.922 329.402 469.453 326.113 470.008 322.581C470.493 319.492 472.168 316.809 473.51 314.087C474.965 311.314 475.763 308.203 475.834 305.024C475.781 301.688 475.197 298.385 474.107 295.258C471.758 288.176 468.383 281.533 464.104 275.573C459.256 268.741 453.351 262.846 446.644 258.143C446.229 257.852 445.887 258.595 446.3 258.884Z" fill="white"/>
<path d="M471.547 289.518C473.705 288.257 475.373 286.218 476.255 283.763C477.136 281.308 477.173 278.599 476.358 276.118C476.192 275.616 475.455 275.869 475.622 276.371C476.384 278.68 476.35 281.204 475.525 283.488C474.7 285.772 473.138 287.665 471.122 288.827C470.684 289.079 471.111 289.769 471.547 289.518Z" fill="white"/>
<path d="M473.823 312.084C468.986 310.617 464.845 307.255 462.225 302.668C461.965 302.214 461.319 302.668 461.578 303.122C464.313 307.89 468.63 311.379 473.665 312.894C474.145 313.038 474.3 312.227 473.823 312.084Z" fill="white"/>
<path d="M458.753 269.696C458.013 270.37 457.128 270.836 456.178 271.054C455.227 271.272 454.241 271.234 453.308 270.943C452.83 270.793 452.676 271.604 453.151 271.753C454.183 272.069 455.272 272.109 456.323 271.871C457.373 271.633 458.353 271.124 459.177 270.387C459.26 270.325 459.318 270.231 459.339 270.124C459.359 270.018 459.341 269.907 459.288 269.815C459.232 269.723 459.144 269.66 459.043 269.638C458.943 269.615 458.839 269.636 458.753 269.696Z" fill="white"/>
<path d="M405.531 304.628C405.827 304.731 406.123 304.834 406.421 304.943C410.394 306.351 414.254 308.101 417.963 310.176C418.252 310.332 418.542 310.494 418.827 310.658C427.711 315.761 435.632 322.582 442.188 330.777C444.793 334.04 447.163 337.51 449.277 341.158C452.195 346.196 454.984 351.906 459.165 355.513C459.597 355.894 460.051 356.247 460.525 356.568L488.157 348.651C488.211 348.599 488.268 348.554 488.322 348.502L489.439 348.24C489.343 348.044 489.238 347.842 489.142 347.646C489.086 347.532 489.024 347.42 488.968 347.306C488.929 347.23 488.89 347.155 488.859 347.084C488.846 347.059 488.833 347.034 488.822 347.015C488.79 346.945 488.754 346.883 488.725 346.819C488.145 345.692 487.557 344.567 486.96 343.445C486.959 343.438 486.959 343.438 486.951 343.433C482.384 334.894 477.111 326.687 470.841 319.597C470.652 319.384 470.462 319.164 470.261 318.954C467.418 315.775 464.336 312.85 461.048 310.208C459.243 308.767 457.37 307.425 455.438 306.187C450.44 302.997 445.004 300.669 439.329 299.286C428.016 296.53 416.005 297.674 406.27 304.127C406.021 304.292 405.778 304.456 405.531 304.628Z" fill="#F2F2F2"/>
<path d="M405.687 304.985C420.179 303.964 434.604 307.852 446.912 316.096C449.591 317.821 451.999 319.986 454.048 322.512C455.969 325.042 457.221 328.076 457.675 331.298C458.155 334.293 458.321 337.417 459.473 340.236C460.083 341.669 460.969 342.949 462.074 343.99C463.178 345.032 464.477 345.812 465.883 346.279C469.359 347.542 473.052 347.393 476.659 347.114C480.664 346.804 484.819 346.414 488.635 348.047C489.098 348.244 489.358 347.466 488.896 347.268C482.256 344.427 475.077 347.479 468.244 346.089C465.055 345.44 462.03 343.759 460.484 340.582C459.132 337.803 458.958 334.582 458.497 331.545C458.098 328.394 456.983 325.396 455.25 322.813C453.328 320.183 451.002 317.922 448.371 316.127C442.508 311.985 436.072 308.854 429.3 306.849C421.582 304.515 413.548 303.609 405.545 304.172C405.049 304.207 405.195 305.02 405.687 304.985Z" fill="white"/>
<path d="M443.095 313.192C444.108 310.796 444.292 308.094 443.613 305.566C442.935 303.039 441.438 300.852 439.391 299.396C438.976 299.102 438.53 299.779 438.946 300.072C440.855 301.425 442.249 303.462 442.876 305.817C443.503 308.171 443.323 310.688 442.367 312.913C442.16 313.397 442.889 313.673 443.095 313.192H443.095Z" fill="white"/>
<path d="M457.619 329.745C452.932 331.687 447.732 331.668 443.057 329.693C442.594 329.497 442.334 330.276 442.796 330.472C447.665 332.517 453.076 332.525 457.949 330.493C458.414 330.299 458.081 329.552 457.619 329.745Z" fill="white"/>
<path d="M421.718 305.601C421.507 306.616 421.063 307.558 420.427 308.344C419.791 309.129 418.982 309.734 418.073 310.102C417.607 310.29 417.94 311.036 418.404 310.85C419.406 310.438 420.298 309.769 421.003 308.902C421.707 308.036 422.203 306.999 422.446 305.88C422.477 305.777 422.47 305.665 422.427 305.566C422.384 305.468 422.307 305.391 422.212 305.352C422.116 305.315 422.01 305.321 421.917 305.368C421.825 305.414 421.753 305.498 421.718 305.601V305.601Z" fill="white"/>
<path d="M357.323 351.065C360.914 351.065 363.824 347.953 363.824 344.114C363.824 340.275 360.914 337.163 357.323 337.163C353.733 337.163 350.822 340.275 350.822 344.114C350.822 347.953 353.733 351.065 357.323 351.065Z" fill="#FD6584"/>
<path d="M380.351 232.673C383.942 232.673 386.852 229.561 386.852 225.722C386.852 221.883 383.942 218.771 380.351 218.771C376.761 218.771 373.85 221.883 373.85 225.722C373.85 229.561 376.761 232.673 380.351 232.673Z" fill="#E6E6E6"/>
<path d="M259.381 39.8636C262.972 39.8636 265.882 36.7515 265.882 32.9126C265.882 29.0736 262.972 25.9615 259.381 25.9615C255.791 25.9615 252.88 29.0736 252.88 32.9126C252.88 36.7515 255.791 39.8636 259.381 39.8636Z" fill="#E6E6E6"/>
<path d="M123.147 299.555C123.147 301.324 123.202 303.094 123.317 304.849C123.44 306.946 123.651 309.028 123.937 311.096C124.898 318.059 126.736 324.851 129.399 331.288C129.535 331.609 129.671 331.929 129.808 332.249L130.012 332.73C130.08 332.89 130.155 333.05 130.223 333.203C130.318 333.414 130.407 333.618 130.502 333.822C130.618 334.077 130.734 334.332 130.856 334.587C130.87 334.616 130.884 334.652 130.904 334.689C131.006 334.907 131.102 335.118 131.21 335.337C131.23 335.384 131.253 335.431 131.279 335.475C131.394 335.723 131.517 335.978 131.64 336.225C131.776 336.487 131.905 336.757 132.041 337.019C132.368 337.667 132.709 338.308 133.056 338.948C133.158 339.138 133.26 339.327 133.369 339.516C133.465 339.691 133.56 339.866 133.662 340.041C133.73 340.157 133.798 340.281 133.866 340.398C133.975 340.594 134.084 340.783 134.2 340.98C134.452 341.41 134.711 341.839 134.963 342.269H134.97C135.086 342.466 135.208 342.662 135.331 342.851V342.859C135.692 343.441 136.066 344.024 136.441 344.599C136.442 344.599 136.443 344.599 136.443 344.6C136.444 344.6 136.445 344.6 136.446 344.601C136.446 344.602 136.447 344.603 136.447 344.603C136.447 344.604 136.448 344.605 136.448 344.606C136.747 345.072 137.06 345.524 137.367 345.975V345.983C137.571 346.267 137.769 346.558 137.973 346.842C138.137 347.075 138.307 347.315 138.477 347.548C138.511 347.599 138.552 347.643 138.586 347.694V347.701C138.634 347.767 138.681 347.825 138.729 347.89C139.451 348.881 140.195 349.849 140.963 350.796L141.085 350.949C141.126 351 141.174 351.051 141.215 351.109C141.283 351.189 141.344 351.269 141.412 351.349C141.474 351.429 141.542 351.509 141.61 351.589C145.609 356.407 150.145 360.684 155.115 364.325C155.775 364.813 156.449 365.286 157.124 365.745C157.294 365.861 157.464 365.978 157.634 366.087C157.682 366.124 157.736 366.16 157.784 366.196C157.879 366.255 157.968 366.313 158.063 366.378C158.152 366.437 158.24 366.495 158.336 366.553C158.697 366.793 159.064 367.026 159.432 367.259C159.521 367.318 159.616 367.376 159.711 367.434C159.8 367.485 159.895 367.544 159.991 367.602C159.991 367.609 159.991 367.609 159.997 367.609H160.004V367.616H160.011C160.467 367.9 160.931 368.177 161.4 368.446C161.652 368.592 161.911 368.745 162.17 368.883C162.756 369.226 163.348 369.553 163.941 369.866C164.152 369.976 164.37 370.085 164.581 370.201C164.758 370.289 164.935 370.383 165.112 370.471C165.166 370.5 165.214 370.522 165.262 370.551C165.412 370.624 165.555 370.696 165.704 370.769C165.868 370.849 166.031 370.929 166.188 371.01C166.372 371.097 166.549 371.184 166.733 371.264C167.414 371.592 168.102 371.905 168.79 372.204C171.255 373.284 173.774 374.218 176.335 375C176.451 375.036 176.574 375.073 176.696 375.109C177.793 375.437 178.896 375.735 180.006 376.005C181.947 376.485 183.906 376.879 185.883 377.184H185.897C186.135 377.221 186.367 377.257 186.605 377.294C186.626 377.294 186.646 377.301 186.673 377.301C186.673 377.308 186.673 377.308 186.68 377.301C186.939 377.337 187.205 377.374 187.463 377.41C187.481 377.416 187.499 377.418 187.518 377.417C187.763 377.454 188.015 377.483 188.26 377.512C188.526 377.541 188.791 377.57 189.057 377.599C189.261 377.621 189.466 377.643 189.67 377.665C189.687 377.671 189.706 377.674 189.724 377.672C189.908 377.687 190.092 377.709 190.276 377.723H190.303C190.46 377.738 190.623 377.752 190.78 377.767C192.68 377.927 194.587 378 196.521 378C198.612 378 200.689 377.913 202.739 377.723H202.759C203.202 377.68 203.638 377.636 204.074 377.592C204.189 377.578 204.298 377.57 204.414 377.556C204.435 377.556 204.462 377.548 204.482 377.548C204.516 377.541 204.55 377.541 204.591 377.534C204.61 377.535 204.628 377.532 204.646 377.527C204.795 377.512 204.945 377.49 205.102 377.476L205.613 377.41C205.783 377.388 205.953 377.359 206.123 377.337C206.164 377.33 206.198 377.33 206.239 377.323C206.362 377.308 206.484 377.286 206.607 377.265C206.668 377.257 206.73 377.25 206.784 377.243C206.907 377.221 207.022 377.206 207.145 377.184H207.152C210.889 376.609 214.578 375.721 218.184 374.527C218.375 374.461 218.566 374.403 218.757 374.337C218.763 374.337 218.77 374.33 218.777 374.33C218.831 374.308 218.893 374.294 218.947 374.272C219.458 374.097 219.962 373.915 220.466 373.726C221.161 373.478 221.848 373.209 222.536 372.932C222.72 372.852 222.904 372.779 223.088 372.699C223.462 372.546 223.83 372.386 224.198 372.226C224.824 371.956 225.451 371.672 226.071 371.381C226.65 371.104 227.222 370.828 227.794 370.536C227.807 370.529 227.828 370.529 227.841 370.514C227.971 370.449 228.1 370.383 228.223 370.318H228.23C231.366 368.709 234.391 366.862 237.281 364.791C238.207 364.128 239.119 363.444 240.018 362.738C240.74 362.162 241.448 361.58 242.157 360.983C245.651 358.011 248.885 354.706 251.82 351.109V351.102C252.032 350.854 252.229 350.599 252.433 350.344C252.467 350.308 252.495 350.271 252.522 350.242C252.651 350.075 252.774 349.915 252.903 349.754V349.747C253.074 349.536 253.244 349.318 253.407 349.099C253.448 349.048 253.482 349.004 253.516 348.961V348.954C253.652 348.779 253.782 348.604 253.918 348.422C253.986 348.335 254.047 348.247 254.115 348.16V348.152C254.517 347.614 254.905 347.075 255.294 346.521C255.396 346.376 255.498 346.223 255.607 346.07C256.097 345.364 256.574 344.643 257.037 343.922V343.915C257.214 343.645 257.384 343.368 257.561 343.099C257.732 342.822 257.902 342.546 258.072 342.269C258.242 341.978 258.42 341.694 258.59 341.402L258.61 341.359C258.781 341.082 258.951 340.791 259.114 340.507C259.244 340.274 259.373 340.048 259.502 339.822C259.584 339.669 259.673 339.517 259.754 339.356C259.786 339.307 259.816 339.256 259.843 339.203C260.034 338.847 260.224 338.49 260.415 338.133C260.64 337.718 260.858 337.296 261.076 336.873C261.157 336.699 261.246 336.524 261.334 336.349C261.368 336.291 261.396 336.233 261.423 336.174C261.525 335.97 261.627 335.759 261.723 335.548C261.825 335.344 261.927 335.133 262.029 334.922C262.124 334.718 262.227 334.507 262.322 334.296C262.397 334.135 262.465 333.975 262.54 333.815C262.545 333.802 262.552 333.79 262.56 333.779C262.594 333.699 262.628 333.626 262.656 333.553C262.664 333.542 262.671 333.53 262.676 333.516C262.751 333.356 262.819 333.189 262.894 333.029C262.989 332.817 263.078 332.599 263.173 332.388C263.234 332.242 263.303 332.089 263.364 331.936C263.452 331.725 263.548 331.514 263.629 331.296C263.725 331.077 263.813 330.859 263.902 330.633C263.927 330.578 263.95 330.523 263.97 330.465C264.018 330.364 264.052 330.262 264.093 330.16C264.202 329.89 264.31 329.614 264.413 329.344C264.535 329.038 264.651 328.725 264.76 328.419C264.869 328.135 264.971 327.844 265.073 327.553L265.114 327.451C266.701 322.982 267.904 318.368 268.71 313.667V313.659C269.164 310.975 269.489 308.268 269.684 305.548C269.691 305.395 269.704 305.249 269.711 305.104C269.834 303.261 269.888 301.412 269.888 299.555C269.888 298.732 269.874 297.917 269.854 297.101C269.379 280.045 263.69 263.625 253.659 250.353C253.441 250.062 253.223 249.77 252.999 249.479C252.774 249.188 252.542 248.904 252.318 248.62C244.852 239.272 235.436 231.93 224.83 227.187C214.224 222.443 202.724 220.431 191.256 221.311C179.789 222.192 168.676 225.941 158.813 232.257C148.949 238.573 140.612 247.278 134.473 257.671C134.139 258.239 133.805 258.814 133.485 259.389C133.158 259.972 132.845 260.554 132.532 261.144C126.362 272.87 123.129 286.101 123.147 299.555Z" fill="#F2F2F2"/>
<path d="M193.605 248.244C205.67 251.554 218.033 253.462 230.481 253.934C232.364 254.044 234.25 254.03 236.131 253.893C240.264 253.522 243.805 252.133 247.747 251.374C249.643 251.01 251.754 250.744 253.663 250.351C253.222 249.766 252.773 249.188 252.316 248.617C248.201 248.989 244.022 250.206 239.858 250.771C232.779 251.734 224.848 250.66 219.481 248.011C216.878 246.726 214.883 245.121 212.289 243.83C211.936 243.637 211.554 243.511 211.16 243.461C210.412 243.437 209.673 243.642 209.03 244.051C204.678 246.401 198.358 248.31 192.492 247.26C192.055 247.625 192.886 248.042 193.605 248.244Z" fill="white"/>
<path d="M167.648 256.512C167.594 256.501 167.54 256.493 167.487 256.483C167.712 256.334 167.924 256.163 168.121 255.973L167.648 256.512Z" fill="white"/>
<path d="M132.533 261.147C134.983 261.357 137.446 261.512 139.921 261.615C141.804 261.723 143.69 261.71 145.571 261.574C149.704 261.2 153.245 259.813 157.188 259.054C160.801 258.36 165.192 258.025 167.487 256.484C161.557 255.386 155.413 257.62 149.298 258.452C144.352 259.102 139.338 258.837 134.476 257.669C133.799 258.808 133.152 259.967 132.533 261.147Z" fill="white"/>
<path d="M162.17 368.883C162.756 369.226 163.348 369.553 163.941 369.866C164.152 369.976 164.37 370.085 164.581 370.201C164.758 370.289 164.935 370.383 165.112 370.471C165.166 370.5 165.214 370.522 165.262 370.551C165.412 370.624 165.555 370.697 165.705 370.769C165.868 370.849 166.031 370.93 166.188 371.01C166.372 371.097 166.549 371.184 166.733 371.265C167.414 371.592 168.102 371.905 168.79 372.204C171.255 373.284 173.774 374.218 176.335 375C176.451 375.036 176.574 375.073 176.696 375.109C177.793 375.437 178.896 375.735 180.006 376.005C181.947 376.485 183.906 376.879 185.883 377.184H185.897C186.135 377.221 186.367 377.257 186.605 377.294C186.626 377.294 186.646 377.301 186.673 377.301C186.673 377.308 186.673 377.308 186.68 377.301C186.939 377.337 187.205 377.374 187.463 377.41C187.481 377.416 187.499 377.418 187.518 377.418C187.763 377.454 188.015 377.483 188.26 377.512C188.526 377.541 188.791 377.57 189.057 377.6C189.261 377.621 189.466 377.643 189.67 377.665C189.687 377.672 189.706 377.674 189.724 377.672C189.908 377.687 190.092 377.709 190.276 377.723H190.303C190.46 377.738 190.623 377.752 190.78 377.767C192.68 377.927 194.587 378 196.521 378C198.612 378 200.689 377.913 202.739 377.723H202.759C203.202 377.68 203.638 377.636 204.074 377.592C204.189 377.578 204.298 377.57 204.414 377.556C204.435 377.556 204.462 377.549 204.482 377.549C204.516 377.541 204.55 377.541 204.591 377.534C204.61 377.535 204.628 377.532 204.646 377.527C204.795 377.512 204.945 377.49 205.102 377.476L205.613 377.41C205.783 377.388 205.953 377.359 206.124 377.337C206.164 377.33 206.198 377.33 206.239 377.323C206.362 377.308 206.484 377.286 206.607 377.265C206.668 377.257 206.73 377.25 206.784 377.243C206.907 377.221 207.022 377.206 207.145 377.184H207.152C210.889 376.609 214.578 375.721 218.184 374.527C218.375 374.461 218.566 374.403 218.757 374.337C217.877 369.953 216.067 365.843 213.465 362.325C210.864 358.808 207.541 355.977 203.754 354.051C204.69 353.096 205.338 351.864 205.613 350.512C205.79 349.64 205.804 348.74 205.654 347.863C205.504 346.986 205.194 346.149 204.741 345.4C203.857 343.949 202.471 342.933 200.886 342.575L190.794 340.318C189.169 339.979 187.485 340.34 186.107 341.321C184.73 342.303 183.771 343.826 183.438 345.56C183.336 346.092 183.29 346.634 183.302 347.177C173.584 354.094 166.59 361.267 162.17 368.883Z" fill="#4C6FBF"/>
<path d="M191.971 336.055C203.584 336.055 212.998 325.989 212.998 313.573C212.998 301.156 203.584 291.09 191.971 291.09C180.358 291.09 170.944 301.156 170.944 313.573C170.944 325.989 180.358 336.055 191.971 336.055Z" fill="#FFB8B8"/>
<path d="M178.865 332.956C176.622 331.318 174.332 328.171 172.804 325.813C170.778 322.712 169.384 319.192 168.713 315.478C168.041 311.765 168.107 307.943 168.905 304.258C169.16 302.785 169.786 301.414 170.715 300.293C171.705 299.246 173.323 298.749 174.532 299.49C174.202 298.545 174.057 297.538 174.105 296.532C174.153 295.525 174.394 294.539 174.812 293.636C175.661 291.831 176.893 290.264 178.407 289.057C181.304 286.672 184.751 285.169 188.382 284.71C192.014 284.25 195.693 284.85 199.031 286.446C200.345 287.097 198.187 282.071 199.562 282.556C200.928 283.121 202.446 283.093 203.792 282.476C205.085 281.78 209.371 285.915 208.875 284.461C209.857 284.937 210.709 285.671 211.354 286.595C211.998 287.518 212.413 288.601 212.561 289.743C212.709 290.884 212.584 292.047 212.198 293.123C211.812 294.199 211.178 295.153 210.354 295.896C209.269 296.875 207.914 297.439 206.726 298.271C204.644 299.837 203.171 302.164 202.583 304.812C201.996 307.46 202.336 310.246 203.539 312.645C202.289 311.786 200.918 311.149 199.477 310.758C198.755 310.569 198.001 310.568 197.277 310.754C196.554 310.94 195.883 311.308 195.32 311.827C194.849 312.403 194.494 313.076 194.275 313.804C194.056 314.532 193.979 315.3 194.048 316.062C194.095 317.587 194.435 319.09 194.473 320.616C194.585 325.094 196.828 333.607 193.581 335.987C191.018 337.865 181.926 335.192 178.865 332.956Z" fill="#2F2E41"/>
<path d="M206.429 201.042C205.986 201.041 205.548 200.946 205.139 200.763C204.53 200.501 204.008 200.049 203.643 199.464C203.278 198.88 203.086 198.192 203.093 197.49V193.931C203.093 193.185 202.815 192.469 202.321 191.941C201.828 191.413 201.159 191.116 200.46 191.115C199.582 191.114 198.739 190.741 198.118 190.076C197.497 189.412 197.147 188.511 197.146 187.572V138.817C197.147 137.878 197.497 136.977 198.118 136.313C198.739 135.649 199.581 135.275 200.46 135.274H351.53C352.409 135.275 353.251 135.648 353.873 136.313C354.494 136.977 354.844 137.878 354.844 138.817V187.572C354.844 188.511 354.494 189.412 353.873 190.076C353.251 190.741 352.409 191.114 351.53 191.115H218.147C217.801 191.114 217.459 191.187 217.139 191.328C216.819 191.47 216.529 191.678 216.285 191.94L208.752 199.995C208.448 200.325 208.087 200.588 207.688 200.767C207.29 200.947 206.861 201.04 206.429 201.042Z" fill="white"/>
<path d="M206.429 201.77C205.896 201.769 205.369 201.656 204.878 201.436C204.143 201.12 203.515 200.574 203.075 199.87C202.635 199.166 202.404 198.336 202.412 197.49V193.931C202.412 193.378 202.206 192.847 201.84 192.456C201.474 192.065 200.978 191.844 200.46 191.844C199.401 191.842 198.386 191.392 197.637 190.591C196.888 189.79 196.466 188.704 196.465 187.571V138.817C196.466 137.685 196.887 136.599 197.636 135.798C198.385 134.997 199.401 134.547 200.46 134.545H351.53C352.589 134.547 353.605 134.997 354.354 135.798C355.103 136.599 355.524 137.685 355.526 138.817V187.571C355.524 188.704 355.103 189.79 354.354 190.591C353.605 191.392 352.589 191.842 351.53 191.844H218.147C217.891 191.843 217.637 191.896 217.4 192.001C217.163 192.106 216.947 192.261 216.767 192.455L209.233 200.51C208.867 200.908 208.43 201.224 207.949 201.44C207.468 201.657 206.951 201.769 206.429 201.77ZM200.46 136.002C199.762 136.003 199.093 136.3 198.599 136.827C198.105 137.355 197.828 138.071 197.827 138.817V187.571C197.828 188.318 198.105 189.034 198.599 189.562C199.093 190.09 199.762 190.387 200.46 190.387C201.339 190.389 202.182 190.762 202.803 191.427C203.424 192.091 203.774 192.992 203.775 193.931V197.49C203.775 198.047 203.929 198.591 204.219 199.054C204.508 199.517 204.919 199.877 205.4 200.09C205.881 200.303 206.411 200.359 206.922 200.251C207.432 200.142 207.901 199.874 208.27 199.48L215.804 191.426C216.111 191.095 216.476 190.834 216.878 190.655C217.28 190.477 217.712 190.386 218.147 190.387H351.53C352.228 190.387 352.898 190.09 353.391 189.562C353.885 189.034 354.163 188.318 354.163 187.571V138.817C354.163 138.071 353.885 137.355 353.391 136.827C352.898 136.299 352.228 136.003 351.53 136.002L200.46 136.002Z" fill="#3F3D56"/>
<path d="M531.464 127.708C531.464 129.477 531.409 131.247 531.294 133.002C531.171 135.099 530.96 137.181 530.674 139.249C529.713 146.212 527.875 153.005 525.212 159.441C525.076 159.762 524.94 160.082 524.803 160.403L524.599 160.883C524.531 161.043 524.456 161.204 524.388 161.356C524.293 161.568 524.204 161.771 524.109 161.975C523.993 162.23 523.877 162.485 523.755 162.74C523.741 162.769 523.727 162.805 523.707 162.842C523.605 163.06 523.509 163.271 523.4 163.49C523.38 163.538 523.358 163.584 523.332 163.628C523.217 163.876 523.094 164.131 522.971 164.378C522.835 164.64 522.706 164.91 522.57 165.172C522.243 165.82 521.902 166.461 521.555 167.102C521.453 167.291 521.351 167.48 521.242 167.67C521.146 167.844 521.051 168.019 520.949 168.194C520.881 168.31 520.813 168.434 520.744 168.551C520.635 168.747 520.526 168.937 520.411 169.133C520.159 169.563 519.9 169.992 519.648 170.422H519.641C519.525 170.619 519.403 170.815 519.28 171.005V171.012C518.919 171.594 518.545 172.177 518.17 172.752C518.169 172.752 518.168 172.752 518.167 172.753C518.167 172.753 518.166 172.754 518.165 172.754C518.165 172.755 518.164 172.756 518.164 172.757C518.163 172.758 518.163 172.758 518.163 172.759C517.864 173.225 517.55 173.677 517.244 174.128V174.136C517.04 174.42 516.842 174.711 516.638 174.995C516.474 175.228 516.304 175.468 516.134 175.701C516.1 175.752 516.059 175.796 516.025 175.847V175.854C515.977 175.92 515.93 175.978 515.882 176.043C515.16 177.034 514.415 178.002 513.648 178.949L513.526 179.102C513.485 179.153 513.437 179.204 513.396 179.262C513.328 179.342 513.267 179.422 513.199 179.502C513.137 179.582 513.069 179.662 513.001 179.743C509.001 184.56 504.466 188.837 499.496 192.478C498.836 192.966 498.162 193.439 497.487 193.898C497.317 194.015 497.147 194.131 496.977 194.24C496.929 194.277 496.874 194.313 496.827 194.35C496.731 194.408 496.643 194.466 496.548 194.532C496.459 194.59 496.37 194.648 496.275 194.706C495.914 194.947 495.546 195.18 495.179 195.413C495.09 195.471 494.995 195.529 494.899 195.587C494.811 195.638 494.716 195.697 494.62 195.755C494.62 195.762 494.62 195.762 494.613 195.762H494.607V195.77H494.6C494.143 196.053 493.68 196.33 493.21 196.6C492.959 196.745 492.7 196.898 492.441 197.036C491.855 197.379 491.263 197.706 490.67 198.019C490.459 198.129 490.241 198.238 490.03 198.354C489.853 198.442 489.676 198.536 489.499 198.624C489.444 198.653 489.397 198.675 489.349 198.704C489.199 198.777 489.056 198.85 488.906 198.922C488.743 199.003 488.58 199.083 488.423 199.163C488.239 199.25 488.062 199.337 487.878 199.418C487.197 199.745 486.509 200.058 485.821 200.357C483.356 201.437 480.837 202.371 478.276 203.153C478.16 203.189 478.037 203.226 477.915 203.262C476.818 203.59 475.715 203.888 474.605 204.158C472.664 204.639 470.705 205.032 468.728 205.338H468.714C468.476 205.374 468.244 205.41 468.006 205.447C467.985 205.447 467.965 205.454 467.938 205.454C467.938 205.461 467.938 205.461 467.931 205.454C467.672 205.49 467.406 205.527 467.148 205.563C467.13 205.569 467.111 205.571 467.093 205.571C466.848 205.607 466.596 205.636 466.351 205.665C466.085 205.694 465.82 205.723 465.554 205.753C465.35 205.774 465.145 205.796 464.941 205.818C464.924 205.825 464.905 205.827 464.887 205.825C464.703 205.84 464.519 205.862 464.335 205.876H464.308C464.151 205.891 463.988 205.906 463.831 205.92C461.931 206.08 460.024 206.153 458.09 206.153C455.999 206.153 453.922 206.066 451.872 205.876H451.852C451.409 205.833 450.973 205.789 450.537 205.745C450.422 205.731 450.313 205.723 450.197 205.709C450.176 205.709 450.149 205.702 450.129 205.702C450.095 205.694 450.061 205.694 450.02 205.687C450.001 205.688 449.983 205.685 449.965 205.68C449.815 205.665 449.666 205.643 449.509 205.629L448.998 205.563C448.828 205.541 448.658 205.512 448.487 205.49C448.447 205.483 448.412 205.483 448.372 205.476C448.249 205.461 448.126 205.44 448.004 205.418C447.943 205.41 447.881 205.403 447.827 205.396C447.704 205.374 447.588 205.359 447.466 205.338H447.459C443.722 204.762 440.033 203.874 436.426 202.68C436.236 202.614 436.045 202.556 435.854 202.49C435.848 202.49 435.841 202.483 435.834 202.483C435.779 202.461 435.718 202.447 435.664 202.425C435.153 202.25 434.649 202.068 434.145 201.879C433.45 201.631 432.762 201.362 432.075 201.085C431.891 201.005 431.707 200.932 431.523 200.852C431.148 200.699 430.781 200.539 430.413 200.379C429.786 200.109 429.16 199.825 428.54 199.534C427.961 199.257 427.389 198.981 426.817 198.689C426.803 198.682 426.783 198.682 426.769 198.668C426.64 198.602 426.511 198.537 426.388 198.471H426.381C423.245 196.862 420.22 195.015 417.33 192.944C416.404 192.282 415.492 191.597 414.593 190.891C413.871 190.316 413.163 189.733 412.454 189.136C408.96 186.164 405.726 182.859 402.79 179.262V179.255C402.579 179.007 402.382 178.752 402.178 178.497C402.143 178.461 402.116 178.425 402.089 178.396C401.96 178.228 401.837 178.068 401.708 177.908V177.9C401.537 177.689 401.367 177.471 401.204 177.252C401.163 177.201 401.129 177.158 401.095 177.114V177.107C400.958 176.932 400.829 176.757 400.693 176.575C400.625 176.488 400.563 176.4 400.495 176.313V176.306C400.094 175.767 399.705 175.228 399.317 174.675C399.215 174.529 399.113 174.376 399.004 174.223C398.514 173.517 398.037 172.796 397.574 172.075V172.068C397.397 171.798 397.226 171.522 397.049 171.252C396.879 170.976 396.709 170.699 396.539 170.422C396.368 170.131 396.191 169.847 396.021 169.556L396.001 169.512C395.83 169.235 395.66 168.944 395.497 168.66C395.367 168.427 395.238 168.201 395.108 167.975C395.027 167.823 394.938 167.67 394.856 167.509C394.825 167.46 394.795 167.409 394.768 167.357C394.577 167 394.387 166.643 394.196 166.286C393.971 165.871 393.753 165.449 393.535 165.026C393.454 164.852 393.365 164.677 393.277 164.502C393.242 164.444 393.215 164.386 393.188 164.327C393.086 164.124 392.984 163.912 392.888 163.701C392.786 163.497 392.684 163.286 392.582 163.075C392.487 162.871 392.384 162.66 392.289 162.449C392.214 162.289 392.146 162.128 392.071 161.968C392.066 161.955 392.059 161.943 392.051 161.932C392.017 161.852 391.983 161.779 391.955 161.706C391.947 161.695 391.94 161.683 391.935 161.67C391.86 161.509 391.792 161.342 391.717 161.182C391.622 160.971 391.533 160.752 391.438 160.541C391.376 160.395 391.308 160.242 391.247 160.089C391.159 159.878 391.063 159.667 390.981 159.449C390.886 159.23 390.798 159.012 390.709 158.786C390.683 158.732 390.661 158.676 390.641 158.619C390.593 158.517 390.559 158.415 390.518 158.313C390.409 158.043 390.3 157.767 390.198 157.497C390.076 157.191 389.96 156.878 389.851 156.572C389.742 156.288 389.64 155.997 389.538 155.706L389.497 155.604C387.91 151.135 386.706 146.522 385.901 141.82V141.813C385.447 139.128 385.122 136.421 384.927 133.701C384.92 133.548 384.907 133.402 384.9 133.257C384.777 131.414 384.723 129.565 384.723 127.708C384.723 126.885 384.736 126.07 384.757 125.254C385.232 108.198 390.921 91.7777 400.952 78.5059C401.17 78.2146 401.388 77.9233 401.612 77.632C401.837 77.3408 402.069 77.0568 402.293 76.7728C409.759 67.4248 419.174 60.0831 429.781 55.3396C440.387 50.5962 451.887 48.5837 463.354 49.4644C474.822 50.3452 485.935 54.0945 495.798 60.4101C505.661 66.7257 513.999 75.4309 520.138 85.8239C520.472 86.3919 520.806 86.9671 521.126 87.5424C521.453 88.125 521.766 88.7075 522.079 89.2973C528.249 101.023 531.481 114.254 531.464 127.708Z" fill="#F2F2F2"/>
<path d="M461.006 76.3968C448.941 79.7069 436.578 81.6149 424.13 82.0876C422.247 82.1973 420.361 82.1835 418.48 82.0465C414.347 81.6749 410.806 80.2859 406.863 79.5269C404.968 79.163 402.857 78.8969 400.948 78.5037C401.389 77.9188 401.838 77.341 402.295 76.7705C406.41 77.1422 410.589 78.359 414.753 78.9243C421.832 79.8868 429.763 78.8128 435.13 76.164C437.733 74.8787 439.727 73.2746 442.322 71.9834C442.675 71.7897 443.057 71.6646 443.451 71.6137C444.199 71.5897 444.938 71.7947 445.58 72.2045C449.933 74.554 456.253 76.4633 462.119 75.4128C462.556 75.7786 461.725 76.1953 461.006 76.3968Z" fill="white"/>
<path d="M486.963 84.665C487.017 84.6545 487.071 84.6464 487.124 84.6365C486.899 84.4871 486.687 84.3162 486.49 84.1258L486.963 84.665Z" fill="white"/>
<path d="M522.078 89.3004C519.628 89.5097 517.165 89.6656 514.69 89.7679C512.807 89.8766 510.921 89.8629 509.04 89.7269C504.907 89.3532 501.366 87.9662 497.423 87.2072C493.81 86.5127 489.419 86.1782 487.124 84.6366C493.054 83.5392 499.198 85.7732 505.313 86.6046C510.259 87.2549 515.273 86.9902 520.135 85.8221C520.812 86.9607 521.459 88.1201 522.078 89.3004Z" fill="white"/>
<path d="M449.819 162.035C461.989 162.035 471.856 151.25 471.856 137.947C471.856 124.644 461.989 113.86 449.819 113.86C437.648 113.86 427.782 124.644 427.782 137.947C427.782 151.25 437.648 162.035 449.819 162.035Z" fill="#FFB6B6"/>
<path d="M492.441 197.036C491.855 197.379 491.263 197.706 490.67 198.019C490.459 198.129 490.241 198.238 490.03 198.354C489.853 198.442 489.676 198.536 489.499 198.624C489.444 198.653 489.397 198.675 489.349 198.704C489.199 198.777 489.056 198.85 488.906 198.922C488.743 199.003 488.58 199.083 488.423 199.163C488.239 199.25 488.062 199.337 487.878 199.418C487.197 199.745 486.509 200.058 485.821 200.357C483.356 201.437 480.837 202.371 478.276 203.153C478.16 203.189 478.037 203.226 477.915 203.262C476.818 203.59 475.715 203.889 474.605 204.158C472.664 204.639 470.705 205.032 468.728 205.338H468.714C468.476 205.374 468.244 205.41 468.006 205.447C467.985 205.447 467.965 205.454 467.938 205.454C467.938 205.461 467.938 205.461 467.931 205.454C467.672 205.49 467.406 205.527 467.148 205.563C467.13 205.569 467.111 205.571 467.093 205.571C466.848 205.607 466.596 205.636 466.351 205.665C466.085 205.694 465.82 205.723 465.554 205.753C465.35 205.774 465.145 205.796 464.941 205.818C464.924 205.825 464.905 205.827 464.887 205.825C464.703 205.84 464.519 205.862 464.335 205.876H464.308C464.151 205.891 463.988 205.906 463.831 205.92C461.931 206.08 460.024 206.153 458.09 206.153C455.999 206.153 453.922 206.066 451.872 205.876H451.852C451.409 205.833 450.973 205.789 450.537 205.745C450.422 205.731 450.313 205.723 450.197 205.709C450.176 205.709 450.149 205.702 450.129 205.702C450.095 205.694 450.061 205.694 450.02 205.687C450.001 205.688 449.983 205.685 449.965 205.68C449.815 205.665 449.666 205.643 449.509 205.629L448.998 205.563C448.828 205.541 448.658 205.512 448.487 205.49C448.447 205.483 448.413 205.483 448.372 205.476C448.249 205.461 448.126 205.439 448.004 205.418C447.943 205.41 447.881 205.403 447.827 205.396C447.704 205.374 447.588 205.359 447.466 205.338H447.459C443.722 204.762 440.033 203.874 436.426 202.68C436.236 202.614 436.045 202.556 435.854 202.49C436.734 198.106 438.544 193.996 441.145 190.478C443.747 186.961 447.07 184.13 450.857 182.204C449.921 181.25 449.273 180.017 448.998 178.665C448.821 177.793 448.807 176.893 448.957 176.016C449.107 175.139 449.417 174.302 449.87 173.553C450.754 172.102 452.14 171.086 453.725 170.728L463.817 168.471C465.442 168.132 467.126 168.493 468.503 169.474C469.881 170.456 470.84 171.98 471.172 173.713C471.275 174.245 471.321 174.787 471.309 175.33C481.027 182.247 488.021 189.42 492.441 197.036Z" fill="#4C6FBF"/>
<path d="M508.787 127.501C505.042 122.83 503.261 116.633 500.266 111.33C497.272 106.026 492.061 101.279 486.555 102.513C482.761 103.364 479.828 106.945 478.343 110.936C476.858 114.928 476.58 119.33 476.32 123.643C476.412 114.78 470.951 106.189 463.428 103.361C455.906 100.533 446.904 103.687 442.177 110.807C440.114 108.763 437.422 107.599 434.61 107.536C431.798 107.473 429.062 108.515 426.921 110.465C422.693 114.505 421.757 122.196 424.866 127.349C427.976 132.503 434.71 134.423 439.651 131.564L441.398 133.283C440.415 136.96 442.322 141.304 445.527 142.688C448.127 143.811 451.797 143.624 452.769 146.54C453.449 148.578 452.178 150.754 450.827 152.32C449.476 153.886 447.871 155.503 447.709 157.67C447.464 160.94 450.624 163.23 453.497 163.92C460.424 165.584 468.11 162.154 472.102 155.618C472.179 155.492 472.263 155.365 472.353 155.239C474.593 152.176 476.226 148.657 477.151 144.897C478.076 141.137 478.274 137.215 477.734 133.37C477.509 131.859 477.735 130.735 478.71 130.378C482.92 128.831 494.717 132.077 498.287 135.01C501.857 137.943 504.716 141.825 508.155 144.948C511.594 148.071 515.976 150.479 520.343 149.629C523.84 148.948 526.815 146.233 528.816 142.959C530.817 139.685 531.968 135.868 533 132.075C525.267 136.851 514.683 134.852 508.787 127.501Z" fill="#2F2E41"/>
<path d="M56.4064 78.9209C56.4064 80.6903 56.4609 82.4597 56.5767 84.2146C56.6993 86.3117 56.9104 88.3943 57.1964 90.4623C58.1577 97.4254 59.9949 104.218 62.6582 110.654C62.7944 110.975 62.9306 111.295 63.0669 111.615L63.2712 112.096C63.3393 112.256 63.4142 112.416 63.4823 112.569C63.5776 112.781 63.6662 112.984 63.7615 113.188C63.8773 113.443 63.9931 113.698 64.1156 113.953C64.1293 113.982 64.1429 114.018 64.1633 114.055C64.2655 114.273 64.3608 114.484 64.4698 114.703C64.4898 114.75 64.5126 114.797 64.5379 114.841C64.6537 115.089 64.7762 115.344 64.8988 115.591C65.035 115.853 65.1644 116.123 65.3006 116.385C65.6275 117.033 65.968 117.674 66.3154 118.315C66.4175 118.504 66.5197 118.693 66.6286 118.883C66.724 119.057 66.8193 119.232 66.9215 119.407C66.9896 119.523 67.0577 119.647 67.1258 119.764C67.2347 119.96 67.3437 120.15 67.4595 120.346C67.7115 120.776 67.9703 121.205 68.2222 121.635H68.229C68.3448 121.832 68.4674 122.028 68.59 122.218V122.225C68.9509 122.807 69.3255 123.39 69.7001 123.965C69.701 123.965 69.7019 123.965 69.7027 123.966C69.7035 123.966 69.7043 123.967 69.7049 123.967C69.7056 123.968 69.7061 123.969 69.7064 123.97C69.7067 123.97 69.7069 123.971 69.7069 123.972C70.0065 124.438 70.3198 124.89 70.6263 125.341V125.349C70.8306 125.633 71.0281 125.924 71.2324 126.208C71.3958 126.441 71.5661 126.681 71.7363 126.914C71.7704 126.965 71.8112 127.009 71.8453 127.06V127.067C71.893 127.133 71.9406 127.191 71.9883 127.256C72.7102 128.247 73.4548 129.215 74.2221 130.162L74.3447 130.315C74.3855 130.366 74.4332 130.417 74.4741 130.475C74.5422 130.555 74.6035 130.635 74.6716 130.715C74.7329 130.795 74.801 130.875 74.8691 130.955C78.8688 135.773 83.404 140.05 88.3738 143.691C89.0344 144.179 89.7086 144.652 90.3829 145.111C90.5531 145.228 90.7234 145.344 90.8936 145.453C90.9413 145.49 90.9958 145.526 91.0435 145.562C91.1388 145.621 91.2273 145.679 91.3227 145.745C91.4112 145.803 91.4997 145.861 91.5951 145.919C91.956 146.16 92.3238 146.393 92.6916 146.626C92.7801 146.684 92.8754 146.742 92.9708 146.8C93.0593 146.851 93.1546 146.91 93.25 146.968C93.25 146.975 93.25 146.975 93.2568 146.975H93.2636V146.982H93.2704C93.7267 147.266 94.1898 147.543 94.6597 147.813C94.9117 147.958 95.1705 148.111 95.4293 148.249C96.015 148.592 96.6075 148.919 97.2 149.232C97.4111 149.342 97.629 149.451 97.8401 149.567C98.0172 149.655 98.1943 149.749 98.3713 149.837C98.4258 149.866 98.4735 149.888 98.5212 149.917C98.671 149.99 98.814 150.063 98.9638 150.135C99.1273 150.215 99.2907 150.296 99.4473 150.376C99.6312 150.463 99.8083 150.55 99.9922 150.631C100.673 150.958 101.361 151.271 102.049 151.57C104.514 152.65 107.033 153.584 109.595 154.366C109.71 154.402 109.833 154.439 109.956 154.475C111.052 154.803 112.155 155.101 113.265 155.371C115.206 155.851 117.165 156.245 119.143 156.55H119.156C119.395 156.587 119.626 156.623 119.865 156.66C119.885 156.66 119.905 156.667 119.933 156.667C119.933 156.674 119.933 156.674 119.939 156.667C120.198 156.703 120.464 156.74 120.723 156.776C120.74 156.782 120.759 156.784 120.777 156.784C121.022 156.82 121.274 156.849 121.519 156.878C121.785 156.907 122.051 156.936 122.316 156.966C122.521 156.987 122.725 157.009 122.929 157.031C122.947 157.038 122.965 157.04 122.984 157.038C123.168 157.053 123.351 157.075 123.535 157.089H123.563C123.719 157.104 123.883 157.118 124.039 157.133C125.939 157.293 127.846 157.366 129.78 157.366C131.871 157.366 133.948 157.279 135.998 157.089H136.019C136.461 157.046 136.897 157.002 137.333 156.958C137.449 156.944 137.558 156.936 137.673 156.922C137.694 156.922 137.721 156.915 137.742 156.915C137.776 156.907 137.81 156.907 137.851 156.9C137.869 156.901 137.887 156.898 137.905 156.893C138.055 156.878 138.205 156.856 138.361 156.842L138.872 156.776C139.042 156.754 139.213 156.725 139.383 156.703C139.424 156.696 139.458 156.696 139.499 156.689C139.621 156.674 139.744 156.652 139.866 156.631C139.928 156.623 139.989 156.616 140.043 156.609C140.166 156.587 140.282 156.572 140.404 156.551H140.411C144.148 155.975 147.837 155.087 151.444 153.893C151.635 153.827 151.825 153.769 152.016 153.703C152.023 153.703 152.03 153.696 152.036 153.696C152.091 153.674 152.152 153.66 152.207 153.638C152.717 153.463 153.221 153.281 153.725 153.092C154.42 152.844 155.108 152.575 155.796 152.298C155.979 152.218 156.163 152.145 156.347 152.065C156.722 151.912 157.09 151.752 157.457 151.592C158.084 151.322 158.71 151.038 159.33 150.747C159.909 150.47 160.481 150.194 161.053 149.902C161.067 149.895 161.087 149.895 161.101 149.881C161.23 149.815 161.36 149.749 161.482 149.684H161.489C164.625 148.075 167.65 146.228 170.54 144.157C171.466 143.495 172.379 142.81 173.278 142.104C173.999 141.529 174.708 140.946 175.416 140.349C178.91 137.377 182.145 134.072 185.08 130.475V130.468C185.291 130.22 185.488 129.965 185.693 129.71C185.727 129.674 185.754 129.638 185.781 129.608C185.911 129.441 186.033 129.281 186.163 129.121V129.113C186.333 128.902 186.503 128.684 186.667 128.465C186.707 128.414 186.741 128.371 186.776 128.327V128.32C186.912 128.145 187.041 127.97 187.177 127.788C187.245 127.701 187.307 127.613 187.375 127.526V127.519C187.777 126.98 188.165 126.441 188.553 125.888C188.655 125.742 188.757 125.589 188.866 125.436C189.357 124.73 189.833 124.009 190.296 123.288V123.281C190.473 123.011 190.644 122.735 190.821 122.465C190.991 122.188 191.161 121.912 191.332 121.635C191.502 121.344 191.679 121.06 191.849 120.769L191.87 120.725C192.04 120.448 192.21 120.157 192.374 119.873C192.503 119.64 192.632 119.414 192.762 119.188C192.843 119.035 192.932 118.883 193.014 118.722C193.046 118.673 193.075 118.622 193.102 118.569C193.293 118.213 193.484 117.856 193.674 117.499C193.899 117.084 194.117 116.662 194.335 116.239C194.417 116.065 194.505 115.89 194.594 115.715C194.628 115.657 194.655 115.599 194.682 115.54C194.784 115.336 194.887 115.125 194.982 114.914C195.084 114.71 195.186 114.499 195.288 114.288C195.384 114.084 195.486 113.873 195.581 113.662C195.656 113.501 195.724 113.341 195.799 113.181C195.804 113.168 195.811 113.156 195.82 113.145C195.854 113.065 195.888 112.992 195.915 112.919C195.923 112.908 195.93 112.896 195.935 112.883C196.01 112.722 196.078 112.555 196.153 112.395C196.249 112.183 196.337 111.965 196.432 111.754C196.494 111.608 196.562 111.455 196.623 111.302C196.712 111.091 196.807 110.88 196.889 110.662C196.984 110.443 197.073 110.225 197.161 109.999C197.187 109.945 197.209 109.889 197.229 109.832C197.277 109.73 197.311 109.628 197.352 109.526C197.461 109.256 197.57 108.98 197.672 108.71C197.795 108.404 197.91 108.091 198.019 107.785C198.128 107.501 198.23 107.21 198.333 106.919L198.373 106.817C199.96 102.348 201.164 97.7345 201.969 93.0328V93.0255C202.424 90.3411 202.749 87.6337 202.943 84.9137C202.95 84.7608 202.964 84.6152 202.97 84.4695C203.093 82.6273 203.147 80.7777 203.147 78.9209C203.147 78.0981 203.134 77.2825 203.113 76.467C202.638 59.4107 196.95 42.9906 186.919 29.7188C186.701 29.4275 186.483 29.1363 186.258 28.845C186.033 28.5537 185.802 28.2698 185.577 27.9858C178.111 18.6377 168.696 11.296 158.089 6.55259C147.483 1.80914 135.983 -0.203325 124.516 0.677412C113.049 1.55815 101.935 5.30744 92.072 11.623C82.2087 17.9387 73.8713 26.6439 67.7319 37.0369C67.3982 37.6048 67.0645 38.1801 66.7445 38.7554C66.4176 39.3379 66.1043 39.9204 65.791 40.5102C59.6213 52.236 56.3887 65.4669 56.4064 78.9209Z" fill="#F2F2F2"/>
<path d="M126.864 27.6097C138.929 30.9198 151.293 32.8278 163.74 33.3006C165.623 33.4102 167.51 33.3965 169.39 33.2595C173.524 32.8878 177.064 31.4988 181.007 30.7398C182.902 30.3759 185.014 30.1099 186.922 29.7167C186.481 29.1317 186.032 28.554 185.575 27.9834C181.461 28.3551 177.282 29.5719 173.117 30.1373C166.038 31.0998 158.107 30.0258 152.741 27.377C150.137 26.0917 148.143 24.4875 145.548 23.1964C145.195 23.0027 144.813 22.8775 144.419 22.8267C143.671 22.8027 142.933 23.0076 142.29 23.4174C137.937 25.7669 131.617 27.6763 125.752 26.6257C125.314 26.9916 126.145 27.4082 126.864 27.6097Z" fill="white"/>
<path d="M100.907 35.878C100.853 35.8675 100.8 35.8594 100.746 35.8494C100.971 35.7001 101.184 35.5292 101.38 35.3388L100.907 35.878Z" fill="white"/>
<path d="M65.7924 40.5134C68.2423 40.7227 70.705 40.8785 73.1805 40.9809C75.0629 41.0896 76.9497 41.0759 78.8305 40.9399C82.9636 40.5662 86.504 39.1792 90.4469 38.4201C94.0604 37.7256 98.4516 37.3911 100.746 35.8496C94.8161 34.7521 88.6721 36.9862 82.5575 37.8176C77.6114 38.4679 72.5976 38.2032 67.7355 37.0351C67.0586 38.1737 66.4109 39.3331 65.7924 40.5134Z" fill="white"/>
<path d="M95.4293 148.249C96.015 148.592 96.6075 148.919 97.2 149.232C97.4111 149.342 97.629 149.451 97.8401 149.567C98.0172 149.655 98.1943 149.749 98.3713 149.837C98.4258 149.866 98.4735 149.888 98.5212 149.917C98.671 149.99 98.814 150.063 98.9638 150.135C99.1273 150.216 99.2907 150.296 99.4474 150.376C99.6312 150.463 99.8083 150.55 99.9922 150.631C100.673 150.958 101.361 151.271 102.049 151.57C104.514 152.65 107.033 153.584 109.595 154.366C109.71 154.402 109.833 154.439 109.956 154.475C111.052 154.803 112.155 155.101 113.265 155.371C115.206 155.852 117.165 156.245 119.143 156.551H119.156C119.395 156.587 119.626 156.623 119.865 156.66C119.885 156.66 119.905 156.667 119.933 156.667C119.933 156.674 119.933 156.674 119.939 156.667C120.198 156.703 120.464 156.74 120.723 156.776C120.74 156.782 120.759 156.784 120.777 156.784C121.022 156.82 121.274 156.849 121.519 156.878C121.785 156.907 122.051 156.936 122.316 156.966C122.521 156.987 122.725 157.009 122.929 157.031C122.947 157.038 122.965 157.04 122.984 157.038C123.168 157.053 123.351 157.075 123.535 157.089H123.563C123.719 157.104 123.883 157.118 124.039 157.133C125.939 157.293 127.846 157.366 129.78 157.366C131.871 157.366 133.948 157.279 135.998 157.089H136.019C136.461 157.046 136.897 157.002 137.333 156.958C137.449 156.944 137.558 156.936 137.673 156.922C137.694 156.922 137.721 156.915 137.742 156.915C137.776 156.907 137.81 156.907 137.851 156.9C137.869 156.901 137.887 156.898 137.905 156.893C138.055 156.878 138.205 156.856 138.361 156.842L138.872 156.776C139.042 156.754 139.213 156.725 139.383 156.703C139.424 156.696 139.458 156.696 139.499 156.689C139.621 156.674 139.744 156.652 139.866 156.631C139.928 156.623 139.989 156.616 140.043 156.609C140.166 156.587 140.282 156.572 140.404 156.551H140.411C144.148 155.975 147.837 155.087 151.444 153.893C151.635 153.827 151.825 153.769 152.016 153.703C151.137 149.319 149.326 145.209 146.725 141.691C144.123 138.174 140.801 135.343 137.013 133.417C137.95 132.463 138.597 131.23 138.872 129.878C139.049 129.006 139.063 128.106 138.913 127.229C138.764 126.352 138.453 125.515 138 124.766C137.117 123.315 135.73 122.299 134.146 121.941L124.053 119.684C122.428 119.345 120.744 119.706 119.367 120.687C117.989 121.669 117.03 123.193 116.698 124.926C116.595 125.458 116.549 126 116.562 126.543C106.843 133.46 99.8492 140.633 95.4293 148.249Z" fill="#4C6FBF"/>
<path d="M135.357 112.399C148.925 112.399 159.924 100.639 159.924 86.132C159.924 71.625 148.925 59.8648 135.357 59.8648C121.789 59.8648 110.79 71.625 110.79 86.132C110.79 100.639 121.789 112.399 135.357 112.399Z" fill="#FFB8B8"/>
<path d="M131.866 110.995C125.716 112.771 118.935 110.41 114.135 105.931C109.336 101.452 106.333 95.1054 104.603 88.5497C103.336 83.7485 102.736 78.419 104.735 73.9116C106.734 69.4042 112.115 66.3631 116.267 68.6399C113.706 65.4496 114.985 60.173 117.976 57.4439C120.967 54.7147 125.075 53.9322 128.986 53.5045C134.663 52.8838 140.527 52.8143 145.929 54.7807C151.332 56.7472 156.24 61.0465 157.931 66.8742C159.657 67.7338 161.602 67.9568 163.46 67.5083C165.318 67.0598 166.984 65.965 168.198 64.3955C168.511 66.1981 168.26 68.0607 167.483 69.6952C166.706 71.3296 165.447 72.6448 163.901 73.4372L172.178 70.568C173.602 73.7896 171.107 77.7769 167.918 78.8085C164.728 79.8402 161.285 78.7126 158.258 77.2221C155.231 75.7316 152.298 73.8472 149.01 73.266C145.722 72.6847 141.861 73.8142 140.34 76.9846C139.543 78.6451 139.502 80.5899 139.039 82.3894C138.577 84.1889 137.405 86.0546 135.665 86.2018C134.566 86.2949 133.49 85.6688 132.394 85.7968C131.721 85.9385 131.101 86.2868 130.611 86.7991C130.121 87.3115 129.781 87.9656 129.632 88.6814C129.36 90.1178 129.356 91.598 129.623 93.0358L131.725 110.219L131.866 110.995Z" fill="#2F2E41"/>
</svg>
