<svg width="180" height="180" viewBox="0 0 180 180" fill="none" xmlns="http://www.w3.org/2000/svg">
<path d="M122.871 62.0508H114.627C112.834 62.0508 111.129 62.9121 110.075 64.3887L82.4417 102.709L69.9261 85.3418C68.8714 83.8828 67.1839 83.0039 65.3733 83.0039H57.1292C55.9866 83.0039 55.3186 84.3047 55.9866 85.2363L77.889 115.611C78.4064 116.333 79.0885 116.922 79.8787 117.328C80.6689 117.734 81.5445 117.946 82.4329 117.946C83.3213 117.946 84.1969 117.734 84.9871 117.328C85.7774 116.922 86.4594 116.333 86.9769 115.611L123.996 64.2832C124.682 63.3516 124.014 62.0508 122.871 62.0508Z" fill="#2F2B70"/>
<path d="M90 11.25C46.5117 11.25 11.25 46.5117 11.25 90C11.25 133.488 46.5117 168.75 90 168.75C133.488 168.75 168.75 133.488 168.75 90C168.75 46.5117 133.488 11.25 90 11.25ZM90 155.391C53.8945 155.391 24.6094 126.105 24.6094 90C24.6094 53.8945 53.8945 24.6094 90 24.6094C126.105 24.6094 155.391 53.8945 155.391 90C155.391 126.105 126.105 155.391 90 155.391Z" fill="#2F2B70"/>
</svg>
