<svg width="200" height="200" viewBox="0 0 200 200" fill="none" xmlns="http://www.w3.org/2000/svg">
<path d="M41.6667 125H25V158.333C25 167.5 32.5 175 41.6667 175H75V158.333H41.6667V125ZM41.6667 41.6667H75V25H41.6667C32.5 25 25 32.5 25 41.6667V75H41.6667V41.6667ZM158.333 25H125V41.6667H158.333V75H175V41.6667C175 32.5 167.5 25 158.333 25ZM158.333 158.333H125V175H158.333C167.5 175 175 167.5 175 158.333V125H158.333V158.333ZM100 66.6667C81.5833 66.6667 66.6667 81.5833 66.6667 100C66.6667 118.417 81.5833 133.333 100 133.333C118.417 133.333 133.333 118.417 133.333 100C133.333 81.5833 118.417 66.6667 100 66.6667ZM100 116.667C90.8333 116.667 83.3333 109.167 83.3333 100C83.3333 90.8333 90.8333 83.3333 100 83.3333C109.167 83.3333 116.667 90.8333 116.667 100C116.667 109.167 109.167 116.667 100 116.667Z" fill="#2F2B70"/>
</svg>
