<svg width="200" height="200" viewBox="0 0 200 200" fill="none" xmlns="http://www.w3.org/2000/svg">
<path d="M130.986 20.5887C131.227 19.804 131.312 18.9795 131.235 18.1623C131.157 17.345 130.92 16.551 130.535 15.8255C130.151 15.1001 129.628 14.4574 128.995 13.9342C128.363 13.411 127.633 13.0175 126.849 12.7762C126.064 12.5349 125.24 12.4505 124.422 12.5278C123.605 12.6051 122.811 12.8427 122.086 13.2269C121.36 13.6111 120.717 14.1344 120.194 14.767C119.671 15.3996 119.277 16.129 119.036 16.9137L69.0362 179.414C68.5488 180.998 68.711 182.712 69.4869 184.177C70.2628 185.642 71.589 186.739 73.1737 187.226C74.7583 187.714 76.4717 187.551 77.9368 186.775C79.4019 185.999 80.4988 184.673 80.9862 183.089L130.986 20.5887ZM60.6862 51.8262C61.2682 52.4067 61.73 53.0964 62.0451 53.8557C62.3602 54.6151 62.5223 55.4291 62.5223 56.2512C62.5223 57.0733 62.3602 57.8873 62.0451 58.6466C61.73 59.4059 61.2682 60.0956 60.6862 60.6762L21.3487 100.001L60.6862 139.326C61.8598 140.5 62.5191 142.091 62.5191 143.751C62.5191 145.411 61.8598 147.003 60.6862 148.176C59.5126 149.35 57.9209 150.009 56.2612 150.009C54.6015 150.009 53.0098 149.35 51.8362 148.176L8.08617 104.426C7.50413 103.846 7.04235 103.156 6.72727 102.397C6.41218 101.637 6.25 100.823 6.25 100.001C6.25 99.1791 6.41218 98.3651 6.72727 97.6057C7.04235 96.8464 7.50413 96.1567 8.08617 95.5762L51.8362 51.8262C52.4167 51.2441 53.1064 50.7823 53.8658 50.4673C54.6251 50.1522 55.4391 49.99 56.2612 49.99C57.0833 49.99 57.8973 50.1522 58.6566 50.4673C59.4159 50.7823 60.1056 51.2441 60.6862 51.8262ZM139.336 51.8262C138.754 52.4067 138.292 53.0964 137.977 53.8557C137.662 54.6151 137.5 55.4291 137.5 56.2512C137.5 57.0733 137.662 57.8873 137.977 58.6466C138.292 59.4059 138.754 60.0956 139.336 60.6762L178.674 100.001L139.336 139.326C138.755 139.907 138.294 140.597 137.98 141.356C137.665 142.116 137.503 142.929 137.503 143.751C137.503 144.573 137.665 145.387 137.98 146.146C138.294 146.905 138.755 147.595 139.336 148.176C139.917 148.757 140.607 149.218 141.366 149.533C142.126 149.847 142.939 150.009 143.761 150.009C144.583 150.009 145.397 149.847 146.156 149.533C146.915 149.218 147.605 148.757 148.186 148.176L191.936 104.426C192.518 103.846 192.98 103.156 193.295 102.397C193.61 101.637 193.772 100.823 193.772 100.001C193.772 99.1791 193.61 98.3651 193.295 97.6057C192.98 96.8464 192.518 96.1567 191.936 95.5762L148.186 51.8262C147.606 51.2441 146.916 50.7823 146.157 50.4673C145.397 50.1522 144.583 49.99 143.761 49.99C142.939 49.99 142.125 50.1522 141.366 50.4673C140.606 50.7823 139.917 51.2441 139.336 51.8262Z" fill="#2F2B70"/>
</svg>
