<svg width="200" height="200" viewBox="0 0 200 200" fill="none" xmlns="http://www.w3.org/2000/svg">
<path d="M133.333 116.667H137.499C144.391 116.667 149.999 111.058 149.999 104.167V29.1667C149.999 22.2751 144.391 16.6667 137.499 16.6667H29.166C22.2743 16.6667 16.666 22.2751 16.666 29.1667V150L61.1077 116.667H133.333ZM55.5577 100L33.3327 116.667V33.3334H133.333V100H55.5577Z" fill="#2F2B70"/>
<path d="M170.833 66.6667H166.666V116.675C166.666 125.842 159.224 133.283 150.083 133.333H66.666V137.5C66.666 144.392 72.2743 150 79.166 150H138.891L183.333 183.333V79.1667C183.333 72.2751 177.724 66.6667 170.833 66.6667Z" fill="#2F2B70"/>
</svg>
