<svg width="32" height="32" viewBox="0 0 32 32" fill="none" xmlns="http://www.w3.org/2000/svg">
<path d="M0 6C0 2.68629 2.68629 0 6 0H26C29.3137 0 32 2.68629 32 6V26C32 29.3137 29.3137 32 26 32H6C2.68629 32 0 29.3137 0 26V6Z" fill="url(#paint0_linear)"/>
<path d="M10.4061 23.2971L10.4091 23.2981L9.3295 25.168C8.93544 25.8505 8.0626 26.0844 7.38003 25.6903C6.6975 25.2963 6.46363 24.4234 6.85769 23.7409L7.653 22.3634L7.72932 22.2312C7.86563 22.0352 8.202 21.6972 8.87485 21.7607C8.87485 21.7607 10.4582 21.9325 10.5728 22.7555C10.5728 22.7555 10.5884 23.0263 10.4061 23.2971ZM25.7186 18.5211H22.352C22.1227 18.5058 22.0226 18.4239 21.9833 18.3763L21.9808 18.3719L18.3769 12.1299L18.3723 12.1331L18.1561 11.8232C17.8019 11.2815 17.2395 12.6669 17.2395 12.6669C16.5679 14.2106 17.3348 15.9658 17.6022 16.4963L22.6077 25.166C23.0017 25.8486 23.8745 26.0825 24.5571 25.6884C25.2396 25.2944 25.4735 24.4215 25.0794 23.7389L23.8278 21.571C23.8035 21.5185 23.7613 21.3759 24.018 21.3753H25.7186C26.5067 21.3753 27.1457 20.7364 27.1457 19.9482C27.1457 19.16 26.5067 18.5211 25.7186 18.5211ZM19.1796 20.4612C19.1796 20.4612 19.3593 21.3753 18.6639 21.3753H17.9686V21.3753H6.2186C5.43044 21.3753 4.7915 20.7364 4.7915 19.9482C4.7915 19.16 5.43044 18.5211 6.2186 18.5211H9.41816C9.93472 18.4912 10.0572 18.193 10.0572 18.193L10.06 18.1944L14.2365 10.9605L14.2353 10.9602C14.3114 10.8205 14.248 10.6884 14.237 10.6675L12.8577 8.27857C12.4636 7.59601 12.6975 6.7232 13.38 6.32913C14.0626 5.93504 14.9354 6.16892 15.3295 6.85148L15.9692 7.95948L16.6077 6.85345C17.0018 6.17088 17.8746 5.93701 18.5572 6.3311C19.2397 6.7252 19.4736 7.59801 19.0795 8.28054L13.2678 18.3467C13.2424 18.408 13.2346 18.5042 13.4237 18.5211H16.8976L16.8983 18.5549C16.8983 18.5549 18.9061 18.5862 19.1796 20.4612Z" fill="white"/>
<defs>
<linearGradient id="paint0_linear" x1="16" y1="32" x2="16" y2="0" gradientUnits="userSpaceOnUse">
<stop stop-color="#1D76F2"/>
<stop offset="1" stop-color="#1AC2FB"/>
</linearGradient>
</defs>
</svg>
