<svg width="9" height="13" viewBox="0 0 9 13" fill="none" xmlns="http://www.w3.org/2000/svg">
<path d="M8.62207 5.7043C8.54104 5.88336 8.36298 5.9974 8.1669 5.9974H6.16616V12.4998C6.16616 12.7759 5.94208 13 5.66598 13H3.66524C3.38913 13 3.16505 12.7759 3.16505 12.4998V5.9974H1.16431C0.968236 5.9974 0.790171 5.88236 0.709141 5.7043C0.62711 5.52523 0.659122 5.31615 0.78817 5.1681L4.28947 1.16661C4.3845 1.05757 4.52155 0.99555 4.66561 0.99555C4.80966 0.99555 4.94671 1.05857 5.04175 1.16661L8.54305 5.1681C8.67309 5.31515 8.7031 5.52523 8.62207 5.7043Z" fill="white"/>
</svg>
