<svg width="25" height="27" viewBox="0 0 25 27" fill="none" xmlns="http://www.w3.org/2000/svg">
<path d="M22.3324 18.2192L22.6525 17.1862C22.7751 16.7908 22.8844 16.34 22.9567 15.843C23.2057 14.1293 23.0563 11.4813 20.8756 8.6456L20.2928 7.88775L19.9122 8.75555C19.5384 9.60787 19.037 10.2769 18.459 10.6855C17.8745 11.0988 17.2024 11.2485 16.5406 11.0241L22.3324 18.2192ZM22.3324 18.2192L23.1971 17.5697C23.2912 17.499 23.4165 17.4233 23.5549 17.3436M22.3324 18.2192L23.5549 17.3436M23.5549 17.3436C23.2445 18.8502 22.5617 20.6513 21.6516 22.3042C20.8309 23.7947 19.8458 25.1272 18.8166 26.0119C18.9858 25.4519 19.0768 24.8596 19.0768 24.247C19.0768 22.4701 18.2978 20.7727 16.9434 19.5883L16.9434 19.5883L16.1989 18.9374L15.9159 18.69L15.6893 18.9899L15.0962 19.7746L15.0962 19.7746C15.0287 19.8639 14.937 19.9704 14.8396 20.0478C14.733 20.1325 14.6779 20.1366 14.669 20.1356L14.6683 20.1355C14.6512 20.1337 14.5739 20.1119 14.4624 20.0084C14.3566 19.9101 14.2379 19.7535 14.1366 19.5277L14.1366 19.5277C13.8556 18.9014 13.7913 17.8909 14.4958 16.9611L14.2169 16.7497L14.4958 16.9611L15.7525 15.3026L16.2518 14.6436L15.4311 14.7438L13.3312 15.0001L13.3311 15.0001C13.2339 15.012 11.483 15.2399 9.74516 16.512C6.84236 18.6367 6.25027 21.9209 6.25027 24.247C6.25027 25.0218 6.37981 25.7347 6.64938 26.4279C3.81092 25.4117 2.24978 23.3923 1.38762 21.5531C0.919339 20.5542 0.659091 19.611 0.516157 18.9175C0.444774 18.5712 0.402887 18.2883 0.378937 18.0935C0.366966 17.9961 0.359489 17.9208 0.355052 17.8706C0.352834 17.8455 0.351376 17.8268 0.350498 17.8147L0.350006 17.8076C0.351017 16.7718 0.488711 15.7421 0.759323 14.7468L0.421583 14.6549L0.759323 14.7468L1.07214 13.5962L1.76123 14.5822L1.76121 14.5822L1.7636 14.5855C1.79256 14.6259 2.40032 15.463 3.60602 16.4124L4.1806 16.8648L4.17252 16.1335C4.15665 14.6958 4.26359 12.5744 4.8276 10.3397C6.16396 5.04514 9.41854 1.72248 14.2393 0.664827L14.1643 0.322958L14.2393 0.664826L15.1423 0.466715L14.9026 1.3235C13.9535 4.7158 14.135 6.95316 14.4737 8.25643C14.8299 9.6273 15.5504 10.6885 16.5405 11.0241L23.5549 17.3436ZM23.5549 17.3436C23.6057 17.3143 23.6582 17.2846 23.7115 17.2543C23.7268 17.2457 23.7422 17.237 23.7576 17.2282C23.8243 17.1903 23.8921 17.1516 23.9555 17.1135C23.3937 20.2682 21.1364 24.7896 18.5892 26.6384L23.5549 17.3436ZM15.7569 19.4808L15.3754 19.9856C15.2245 20.1854 14.9266 20.5163 14.6305 20.4835C14.3956 20.4579 14.0531 20.1968 13.8172 19.6709L15.7569 19.4808ZM15.7569 19.4808L15.7381 19.4644L15.9685 19.2009L16.2477 19.4119L16.2327 19.4319L16.713 19.8518C17.9927 20.9709 18.7268 22.5729 18.7268 24.247C18.7268 25.0107 18.5768 25.741 18.3045 26.4116L15.7569 19.4808Z" stroke="#FF001F" stroke-width="0.7"/>
</svg>
