<svg width="24" height="24" viewBox="0 0 24 24" fill="none" xmlns="http://www.w3.org/2000/svg">
<path d="M19.9148 9.6922H19.4472V7.5035C19.4472 3.45533 16.2347 0.0736667 12.2194 0.00147925C12.1097 -0.000493083 11.8905 -0.000493083 11.7809 0.00147925C7.76553 0.0736667 4.55309 3.45533 4.55309 7.5035V9.6922H4.0854C3.36471 9.6922 2.77686 10.4359 2.77686 11.3543V22.3319C2.77686 23.2494 3.36471 24 4.08545 24H19.9148C20.6355 24 21.2234 23.2494 21.2234 22.3319V11.3543C21.2234 10.4359 20.6355 9.6922 19.9148 9.6922ZM13.4831 16.832V20.149C13.4831 20.5288 13.1651 20.8503 12.785 20.8503H11.2153C10.8352 20.8503 10.5172 20.5288 10.5172 20.149V16.832C10.1485 16.4691 9.93386 15.9673 9.93386 15.4122C9.93386 14.3602 10.747 13.4563 11.7809 13.4145C11.8905 13.4101 12.1099 13.4101 12.2195 13.4145C13.2534 13.4563 14.0665 14.3602 14.0665 15.4122C14.0664 15.9673 13.8518 16.4691 13.4831 16.832ZM16.3649 9.6922H12.2194H11.7809H7.6354V7.5035C7.6354 5.09207 9.59511 3.09819 12.0001 3.09819C14.4051 3.09819 16.3649 5.09207 16.3649 7.5035V9.6922H16.3649Z" fill="#242A52"/>
</svg>
