<svg width="32" height="33" viewBox="0 0 32 33" fill="none" xmlns="http://www.w3.org/2000/svg">
<g clip-path="url(#clip0)">
<path d="M0.5 6.00195C0.5 2.96439 2.96243 0.501953 6 0.501953H26C29.0376 0.501953 31.5 2.96439 31.5 6.00195V26.002C31.5 29.0395 29.0376 31.502 26 31.502H6C2.96243 31.502 0.5 29.0395 0.5 26.002V6.00195Z" stroke="black" stroke-opacity="0.07"/>
<path d="M19 11.3518L7.68781 5.06001C7.54566 4.97969 7.36683 4.98415 7.22927 5.06447C7.08712 5.14479 7 5.28759 7 5.44823C7 5.44823 7.00459 6.02832 7.00917 6.98325L15.2491 15.002L19 11.3518Z" fill="url(#paint0_linear)"/>
<path d="M7 7.00195C7.01335 10.4532 7.05339 18.831 7.07119 23.002L15 15.0355L7 7.00195Z" fill="url(#paint1_linear)"/>
<path d="M24.7765 14.708L18.589 11.002L15 14.7586L19.0491 19.002L24.7809 15.5025C24.9167 15.4199 25 15.2683 25 15.1076C25 14.9423 24.9124 14.7907 24.7765 14.708Z" fill="url(#paint2_linear)"/>
<path d="M7 23.0757C7.00887 24.5853 7.0133 25.5509 7.0133 25.5509C7.0133 25.7141 7.09756 25.8637 7.23503 25.9408C7.37251 26.0224 7.54102 26.0224 7.67849 25.9408L19 19.1907L14.9024 15.002L7 23.0757Z" fill="url(#paint3_linear)"/>
</g>
<defs>
<linearGradient id="paint0_linear" x1="7" y1="10.0039" x2="19.0021" y2="10.0039" gradientUnits="userSpaceOnUse">
<stop stop-color="#63BE6B"/>
<stop offset="0.506" stop-color="#5BBC6A"/>
<stop offset="1" stop-color="#4AB96A"/>
</linearGradient>
<linearGradient id="paint1_linear" x1="6.99786" y1="15.0039" x2="14.9954" y2="15.0039" gradientUnits="userSpaceOnUse">
<stop stop-color="#3EC6F2"/>
<stop offset="1" stop-color="#45AFE3"/>
</linearGradient>
<linearGradient id="paint2_linear" x1="15.0042" y1="15.0049" x2="24.9989" y2="15.0049" gradientUnits="userSpaceOnUse">
<stop stop-color="#FAA51A"/>
<stop offset="0.387" stop-color="#FAB716"/>
<stop offset="0.741" stop-color="#FAC412"/>
<stop offset="1" stop-color="#FAC80F"/>
</linearGradient>
<linearGradient id="paint3_linear" x1="7.00195" y1="20.5018" x2="18.9998" y2="20.5018" gradientUnits="userSpaceOnUse">
<stop stop-color="#EC3B50"/>
<stop offset="1" stop-color="#E7515B"/>
</linearGradient>
<clipPath id="clip0">
<rect y="0.00195312" width="32" height="32" fill="white"/>
</clipPath>
</defs>
</svg>
