<svg width="62" height="54" viewBox="0 0 62 54" fill="none" xmlns="http://www.w3.org/2000/svg">
<g opacity="0.3" filter="url(#filter0_dd)">
<path d="M47 24.8214C47.4142 24.8214 47.75 25.1572 47.75 25.5714V38.1428C47.75 38.557 47.4142 38.8928 47 38.8928H34.4286C34.0144 38.8928 33.6786 38.557 33.6786 38.1428V24.8075C33.6786 24.691 33.7057 24.5762 33.7578 24.4721L38.233 15.5218C38.36 15.2677 38.6197 15.1072 38.9038 15.1072H43.9534C44.511 15.1072 44.8736 15.6939 44.6242 16.1926L41.2143 23.0124C40.7987 23.8435 41.4031 24.8214 42.3323 24.8214H47Z" fill="#3A427E" stroke="#5B65B0" stroke-width="0.5"/>
<path d="M28.3213 38.1428C28.3213 38.557 27.9855 38.8928 27.5713 38.8928H14.9999C14.5857 38.8928 14.2499 38.557 14.2499 38.1428V24.8075C14.2499 24.691 14.277 24.5762 14.329 24.4721L18.8043 15.5218C18.9313 15.2677 19.191 15.1072 19.4751 15.1072H24.5247C25.0823 15.1072 25.4449 15.6939 25.1955 16.1926L21.7856 23.0124C21.37 23.8435 21.9744 24.8214 22.9036 24.8214H27.5713C27.9855 24.8214 28.3213 25.1572 28.3213 25.5714V38.1428Z" fill="#3A427E" stroke="#5B65B0" stroke-width="0.5"/>
</g>
<defs>
<filter id="filter0_dd" x="0" y="-4" width="62" height="62" filterUnits="userSpaceOnUse" color-interpolation-filters="sRGB">
<feFlood flood-opacity="0" result="BackgroundImageFix"/>
<feColorMatrix in="SourceAlpha" type="matrix" values="0 0 0 0 0 0 0 0 0 0 0 0 0 0 0 0 0 0 127 0"/>
<feOffset dx="4" dy="4"/>
<feGaussianBlur stdDeviation="5"/>
<feColorMatrix type="matrix" values="0 0 0 0 0.0619618 0 0 0 0 0.0757506 0 0 0 0 0.179167 0 0 0 1 0"/>
<feBlend mode="normal" in2="BackgroundImageFix" result="effect1_dropShadow"/>
<feColorMatrix in="SourceAlpha" type="matrix" values="0 0 0 0 0 0 0 0 0 0 0 0 0 0 0 0 0 0 127 0"/>
<feOffset dx="-4" dy="-4"/>
<feGaussianBlur stdDeviation="5"/>
<feColorMatrix type="matrix" values="0 0 0 0 0.154826 0 0 0 0 0.191042 0 0 0 0 0.408333 0 0 0 1 0"/>
<feBlend mode="normal" in2="effect1_dropShadow" result="effect2_dropShadow"/>
<feBlend mode="normal" in="SourceGraphic" in2="effect2_dropShadow" result="shape"/>
</filter>
</defs>
</svg>
