<svg width="52" height="52" viewBox="0 0 52 52" fill="none" xmlns="http://www.w3.org/2000/svg">
<g filter="url(#filter0_dd)">
<g clip-path="url(#clip0)">
<path d="M34.6554 27.845C35.4515 28.6222 36.2918 29.3535 37.0058 30.2091C37.3212 30.5894 37.6198 30.9817 37.8483 31.423C38.172 32.0503 37.8788 32.7406 37.3164 32.778L33.82 32.7764C32.9182 32.8513 32.1988 32.4883 31.5939 31.8717C31.1098 31.3786 30.6615 30.8538 30.1961 30.3441C30.0052 30.1358 29.8055 29.9397 29.5669 29.7848C29.0896 29.475 28.6753 29.5698 28.4025 30.0676C28.1247 30.574 28.0617 31.1346 28.0344 31.6989C27.997 32.5222 27.7481 32.7387 26.9211 32.7763C25.1537 32.8597 23.4763 32.5923 21.918 31.7007C20.5442 30.9147 19.4789 29.805 18.5516 28.5488C16.7464 26.1028 15.3638 23.4148 14.1212 20.6517C13.8415 20.0291 14.0461 19.6949 14.733 19.6831C15.8736 19.6609 17.0141 19.6625 18.156 19.6815C18.6196 19.6883 18.9265 19.9542 19.1055 20.3921C19.7226 21.9095 20.4777 23.3532 21.4256 24.6913C21.678 25.0475 21.9354 25.4038 22.3018 25.6546C22.7073 25.9322 23.016 25.8402 23.2068 25.3885C23.3278 25.1021 23.3808 24.7936 23.4081 24.4869C23.4985 23.4316 23.5104 22.3781 23.3519 21.3265C23.2546 20.6702 22.8849 20.2453 22.23 20.1212C21.8959 20.0578 21.9456 19.9335 22.1074 19.7428C22.3884 19.4138 22.6527 19.209 23.1797 19.209H27.1311C27.7532 19.3317 27.8913 19.6112 27.9765 20.2371L27.9799 24.6264C27.9731 24.8687 28.1009 25.5878 28.5374 25.7481C28.8867 25.8623 29.1169 25.5829 29.3266 25.3614C30.2726 24.3573 30.9479 23.1706 31.5511 21.9418C31.8188 21.4015 32.049 20.8404 32.2721 20.2797C32.4374 19.8637 32.6967 19.659 33.1653 19.668L36.9684 19.6714C37.0812 19.6714 37.1953 19.673 37.3045 19.6918C37.9453 19.801 38.121 20.0766 37.923 20.7024C37.6112 21.6842 37.0044 22.5024 36.4111 23.3244C35.7768 24.2019 35.0985 25.0495 34.4696 25.9322C33.8917 26.7385 33.9376 27.1448 34.6554 27.845Z" fill="#BFC7FF"/>
</g>
</g>
<defs>
<filter id="filter0_dd" x="0" y="0" width="52" height="52" filterUnits="userSpaceOnUse" color-interpolation-filters="sRGB">
<feFlood flood-opacity="0" result="BackgroundImageFix"/>
<feColorMatrix in="SourceAlpha" type="matrix" values="0 0 0 0 0 0 0 0 0 0 0 0 0 0 0 0 0 0 127 0"/>
<feOffset dx="4" dy="4"/>
<feGaussianBlur stdDeviation="5"/>
<feColorMatrix type="matrix" values="0 0 0 0 0.088125 0 0 0 0 0.101934 0 0 0 0 0.195833 0 0 0 1 0"/>
<feBlend mode="normal" in2="BackgroundImageFix" result="effect1_dropShadow"/>
<feColorMatrix in="SourceAlpha" type="matrix" values="0 0 0 0 0 0 0 0 0 0 0 0 0 0 0 0 0 0 127 0"/>
<feOffset dx="-4" dy="-4"/>
<feGaussianBlur stdDeviation="5"/>
<feColorMatrix type="matrix" values="0 0 0 0 0.232104 0 0 0 0 0.256968 0 0 0 0 0.426042 0 0 0 1 0"/>
<feBlend mode="normal" in2="effect1_dropShadow" result="effect2_dropShadow"/>
<feBlend mode="normal" in="SourceGraphic" in2="effect2_dropShadow" result="shape"/>
</filter>
<clipPath id="clip0">
<rect x="14" y="14" width="24" height="24" fill="white"/>
</clipPath>
</defs>
</svg>
