<svg width="119" height="33" viewBox="0 0 119 33" fill="none" xmlns="http://www.w3.org/2000/svg">
<path d="M19.8373 15.8523C19.8047 12.284 22.8011 10.548 22.9382 10.4672C21.2412 8.02814 18.6109 7.69489 17.6866 7.66832C15.4774 7.43915 13.3346 8.97142 12.2092 8.97142C11.0614 8.97142 9.32848 7.69047 7.46077 7.72811C5.05734 7.76464 2.80891 9.13639 1.57575 11.2665C-0.969189 15.6098 0.928843 21.9925 3.36708 25.5032C4.58677 27.2226 6.01198 29.1424 7.87744 29.0748C9.70247 29.0006 10.3842 27.9278 12.5866 27.9278C14.7688 27.9278 15.4089 29.0748 17.3114 29.0316C19.2701 29.0006 20.5033 27.3045 21.6803 25.5696C23.0898 23.5989 23.6558 21.6581 23.6783 21.5585C23.6322 21.543 19.8743 20.1292 19.8373 15.8523Z" fill="white"/>
<path d="M16.2432 5.35869C17.2248 4.14859 17.8964 2.50227 17.71 0.831604C16.2892 0.893604 14.5125 1.80035 13.4894 2.98388C12.5841 4.0268 11.7755 5.73622 11.9844 7.34379C13.5803 7.46114 15.2189 6.54997 16.2432 5.35869Z" fill="white"/>
<path d="M45.5536 28.0557H43.1437L41.8236 24.0175H37.2351L35.9776 28.0557H33.6313L38.1774 14.3079H40.9853L45.5536 28.0557ZM41.4257 22.3233L40.2318 18.7334C40.1056 18.3667 39.8689 17.5031 39.5198 16.1436H39.4773C39.3383 16.7283 39.1144 17.5919 38.8067 18.7334L37.6341 22.3233H41.4257Z" fill="white"/>
<path d="M57.2448 22.9773C57.2448 24.6632 56.7768 25.9958 55.8408 26.9741C55.0025 27.845 53.9615 28.2799 52.7189 28.2799C51.3775 28.2799 50.414 27.8109 49.8272 26.8729H49.7847V32.095H47.5223V21.406C47.5223 20.3461 47.4937 19.2583 47.4385 18.1426H49.4282L49.5545 19.7139H49.5969C50.3514 18.53 51.4964 17.9391 53.033 17.9391C54.2342 17.9391 55.237 18.4009 56.0393 19.3254C56.8436 20.251 57.2448 21.468 57.2448 22.9773ZM54.9399 23.0578C54.9399 22.093 54.7171 21.2975 54.2692 20.6715C53.78 20.0186 53.1232 19.6922 52.2997 19.6922C51.7415 19.6922 51.2343 19.874 50.7812 20.2325C50.327 20.594 50.0299 21.0661 49.8908 21.6508C49.8208 21.9236 49.7858 22.1467 49.7858 22.3223V23.9752C49.7858 24.6963 50.0129 25.3047 50.4671 25.8016C50.9212 26.2985 51.5113 26.5464 52.2371 26.5464C53.0892 26.5464 53.7524 26.2262 54.2268 25.5878C54.7022 24.9483 54.9399 24.1054 54.9399 23.0578Z" fill="white"/>
<path d="M68.9566 22.9773C68.9566 24.6632 68.4886 25.9958 67.5516 26.9741C66.7143 27.845 65.6733 28.2799 64.4307 28.2799C63.0894 28.2799 62.1258 27.8109 61.5401 26.8729H61.4976V32.095H59.2352V21.406C59.2352 20.3461 59.2065 19.2583 59.1514 18.1426H61.1411L61.2673 19.7139H61.3098C62.0632 18.53 63.2082 17.9391 64.7459 17.9391C65.9461 17.9391 66.9489 18.4009 67.7532 19.3254C68.5544 20.251 68.9566 21.468 68.9566 22.9773ZM66.6517 23.0578C66.6517 22.093 66.4278 21.2975 65.98 20.6715C65.4908 20.0186 64.8361 19.6922 64.0115 19.6922C63.4523 19.6922 62.9461 19.874 62.4919 20.2325C62.0378 20.594 61.7417 21.0661 61.6027 21.6508C61.5337 21.9236 61.4976 22.1467 61.4976 22.3223V23.9752C61.4976 24.6963 61.7247 25.3047 62.1768 25.8016C62.6309 26.2975 63.221 26.5464 63.9489 26.5464C64.801 26.5464 65.4643 26.2262 65.9386 25.5878C66.414 24.9483 66.6517 24.1054 66.6517 23.0578Z" fill="white"/>
<path d="M82.0516 24.2002C82.0516 25.3697 81.6345 26.3211 80.7973 27.0556C79.8772 27.8583 78.5964 28.2591 76.9505 28.2591C75.4309 28.2591 74.2127 27.974 73.2905 27.4027L73.8147 25.567C74.808 26.1517 75.8978 26.4451 77.0853 26.4451C77.9374 26.4451 78.6006 26.257 79.0771 25.8831C79.5514 25.5091 79.7881 25.0071 79.7881 24.381C79.7881 23.8232 79.5928 23.3531 79.2013 22.9719C78.8118 22.5908 78.1613 22.2364 77.2529 21.9089C74.7804 21.0112 73.5452 19.6962 73.5452 17.9668C73.5452 16.8367 73.9782 15.91 74.8451 15.189C75.7089 14.4669 76.8614 14.1063 78.3024 14.1063C79.5875 14.1063 80.6551 14.3243 81.5072 14.7592L80.9416 16.5546C80.1457 16.1332 79.2458 15.9224 78.2388 15.9224C77.4429 15.9224 76.8211 16.1135 76.3754 16.4937C75.9986 16.8336 75.8097 17.2478 75.8097 17.7385C75.8097 18.2819 76.0252 18.7313 76.4581 19.0846C76.8348 19.411 77.5193 19.7643 78.5126 20.1455C79.7276 20.6218 80.62 21.1786 81.1941 21.817C81.7661 22.4534 82.0516 23.2498 82.0516 24.2002Z" fill="white"/>
<path d="M89.5316 19.7954H87.0378V24.6084C87.0378 25.8325 87.4771 26.4441 88.3579 26.4441C88.7622 26.4441 89.0975 26.41 89.3628 26.3418L89.4254 28.0143C88.9797 28.1765 88.3929 28.2581 87.666 28.2581C86.7725 28.2581 86.0743 27.9926 85.5702 27.4627C85.0683 26.9317 84.8157 26.0412 84.8157 24.7902V19.7933H83.3301V18.1404H84.8157V16.3254L87.0378 15.6725V18.1404H89.5316V19.7954Z" fill="white"/>
<path d="M100.783 23.0174C100.783 24.5411 100.335 25.7921 99.4417 26.7704C98.5047 27.7777 97.261 28.2797 95.7106 28.2797C94.2165 28.2797 93.0269 27.7973 92.1398 26.8324C91.2526 25.8676 90.8091 24.6496 90.8091 23.1816C90.8091 21.6455 91.2654 20.3872 92.1812 19.4089C93.0948 18.4296 94.3279 17.9399 95.8783 17.9399C97.3724 17.9399 98.5747 18.4224 99.482 19.3883C100.35 20.3253 100.783 21.535 100.783 23.0174ZM98.4357 23.0887C98.4357 22.1744 98.2352 21.3903 97.8287 20.7364C97.3544 19.9451 96.6763 19.5505 95.7976 19.5505C94.8882 19.5505 94.1974 19.9461 93.7231 20.7364C93.3166 21.3914 93.1161 22.1878 93.1161 23.13C93.1161 24.0442 93.3166 24.8283 93.7231 25.4812C94.2123 26.2725 94.8957 26.6671 95.7775 26.6671C96.6413 26.6671 97.3194 26.2642 97.8086 25.4605C98.2256 24.7942 98.4357 24.0019 98.4357 23.0887Z" fill="white"/>
<path d="M108.137 20.0796C107.913 20.0393 107.674 20.0186 107.424 20.0186C106.628 20.0186 106.013 20.311 105.58 20.8967C105.203 21.4132 105.014 22.0661 105.014 22.8543V28.0557H102.753L102.774 21.2645C102.774 20.1219 102.745 19.0816 102.689 18.1436H104.66L104.742 20.0403H104.805C105.044 19.3885 105.42 18.8637 105.936 18.4701C106.44 18.1157 106.985 17.9391 107.571 17.9391C107.78 17.9391 107.969 17.9535 108.137 17.9794V20.0796Z" fill="white"/>
<path d="M118.256 22.6301C118.256 23.0247 118.229 23.3573 118.173 23.629H111.386C111.412 24.6084 111.74 25.3573 112.37 25.8738C112.942 26.3356 113.682 26.567 114.59 26.567C115.595 26.567 116.512 26.411 117.337 26.098L117.691 27.6269C116.728 28.036 115.59 28.2395 114.277 28.2395C112.698 28.2395 111.459 27.7871 110.557 26.8831C109.657 25.9792 109.206 24.7654 109.206 23.2427C109.206 21.7479 109.625 20.503 110.465 19.5103C111.343 18.4504 112.531 17.9204 114.025 17.9204C115.492 17.9204 116.603 18.4504 117.358 19.5103C117.955 20.3522 118.256 21.3935 118.256 22.6301ZM116.098 22.0588C116.113 21.4059 115.966 20.8419 115.659 20.3656C115.267 19.753 114.666 19.4473 113.856 19.4473C113.116 19.4473 112.515 19.7458 112.055 20.345C111.679 20.8212 111.455 21.3925 111.386 22.0578H116.098V22.0588Z" fill="white"/>
<path d="M40.5319 5.47049C40.5319 6.67418 40.172 7.58027 39.4532 8.18876C38.7874 8.75021 37.8413 9.03144 36.6157 9.03144C36.0081 9.03144 35.4881 9.00485 35.0527 8.95167V2.37486C35.6206 2.28282 36.2324 2.23578 36.8931 2.23578C38.0605 2.23578 38.9404 2.49042 39.5338 2.99972C40.1985 3.57548 40.5319 4.39873 40.5319 5.47049ZM39.4053 5.50015C39.4053 4.71985 39.1994 4.12159 38.7874 3.70434C38.3755 3.28811 37.774 3.07948 36.9818 3.07948C36.6453 3.07948 36.3588 3.10198 36.1213 3.14903V8.14888C36.2528 8.16933 36.4934 8.17853 36.8431 8.17853C37.6608 8.17853 38.2919 7.95048 38.7365 7.49436C39.181 7.03825 39.4053 6.37351 39.4053 5.50015Z" fill="white"/>
<path d="M46.5057 6.52153C46.5057 7.26297 46.2947 7.87043 45.8726 8.347C45.4301 8.83686 44.8438 9.08128 44.1118 9.08128C43.4062 9.08128 42.8444 8.84709 42.4254 8.37666C42.0074 7.90725 41.7983 7.31512 41.7983 6.6013C41.7983 5.85475 42.0135 5.24216 42.4458 4.76662C42.8781 4.29108 43.4592 4.0528 44.1913 4.0528C44.8968 4.0528 45.4637 4.28699 45.893 4.75639C46.3008 5.21251 46.5057 5.80157 46.5057 6.52153ZM45.3974 6.5563C45.3974 6.11144 45.3016 5.72998 45.1109 5.41193C44.8866 5.0274 44.5675 4.83514 44.1525 4.83514C43.7233 4.83514 43.397 5.0274 43.1727 5.41193C42.981 5.72998 42.8862 6.11757 42.8862 6.57573C42.8862 7.02059 42.9821 7.40205 43.1727 7.7201C43.4042 8.10463 43.7264 8.29689 44.1423 8.29689C44.5502 8.29689 44.8703 8.10156 45.1007 7.70988C45.2985 7.38569 45.3974 7.00116 45.3974 6.5563Z" fill="white"/>
<path d="M54.5155 4.151L53.0116 8.97188H52.0328L51.4098 6.87847C51.2518 6.35588 51.1233 5.83637 51.0234 5.32094H51.004C50.9113 5.85068 50.7828 6.36918 50.6176 6.87847L49.9559 8.97188H48.9659L47.5518 4.151H48.6498L49.1933 6.44281C49.3248 6.98483 49.4329 7.50128 49.5195 7.99012H49.5389C49.6184 7.58718 49.75 7.0738 49.9355 6.45304L50.6176 4.15202H51.4883L52.1419 6.40395C52.2999 6.95313 52.4284 7.48185 52.5273 7.99114H52.5569C52.6293 7.49514 52.7383 6.96642 52.8831 6.40395L53.4663 4.15202H54.5155V4.151Z" fill="white"/>
<path d="M60.0552 8.97187H58.9867V6.21065C58.9867 5.35979 58.6645 4.93436 58.0181 4.93436C57.701 4.93436 57.4451 5.05094 57.2462 5.28513C57.0495 5.51933 56.9495 5.79545 56.9495 6.11145V8.97085H55.881V5.52853C55.881 5.10514 55.8678 4.64596 55.8423 4.14894H56.7813L56.8313 4.90265H56.8608C56.9852 4.66846 57.1708 4.47518 57.4145 4.32075C57.704 4.14076 58.0283 4.04974 58.3831 4.04974C58.8317 4.04974 59.2048 4.19496 59.5015 4.48643C59.8706 4.84334 60.0552 5.37615 60.0552 6.08384V8.97187Z" fill="white"/>
<path d="M63.0016 8.97201H61.9341V1.93909H63.0016V8.97201Z" fill="white"/>
<path d="M69.2924 6.52153C69.2924 7.26297 69.0813 7.87043 68.6592 8.347C68.2167 8.83686 67.6294 9.08128 66.8984 9.08128C66.1918 9.08128 65.63 8.84709 65.212 8.37666C64.794 7.90725 64.585 7.31512 64.585 6.6013C64.585 5.85475 64.8001 5.24216 65.2324 4.76662C65.6647 4.29108 66.2459 4.0528 66.9769 4.0528C67.6835 4.0528 68.2493 4.28699 68.6796 4.75639C69.0874 5.21251 69.2924 5.80157 69.2924 6.52153ZM68.183 6.5563C68.183 6.11144 68.0872 5.72998 67.8965 5.41193C67.6733 5.0274 67.3531 4.83514 66.9392 4.83514C66.5089 4.83514 66.1826 5.0274 65.9593 5.41193C65.7677 5.72998 65.6729 6.11757 65.6729 6.57573C65.6729 7.02059 65.7687 7.40205 65.9593 7.7201C66.1908 8.10463 66.513 8.29689 66.929 8.29689C67.3368 8.29689 67.6559 8.10156 67.8863 7.70988C68.0852 7.38569 68.183 7.00116 68.183 6.5563Z" fill="white"/>
<path d="M74.4633 8.97185H73.5039L73.4244 8.41654H73.3948C73.0665 8.85936 72.5985 9.08128 71.9909 9.08128C71.5372 9.08128 71.1701 8.93504 70.8938 8.6446C70.643 8.38075 70.5176 8.05247 70.5176 7.66283C70.5176 7.07377 70.7623 6.62482 71.2547 6.31393C71.7462 6.00303 72.4374 5.85065 73.3275 5.85781V5.76782C73.3275 5.13274 72.9951 4.81571 72.3294 4.81571C71.8553 4.81571 71.4372 4.93536 71.0763 5.17262L70.8591 4.46902C71.3057 4.19188 71.8573 4.0528 72.5078 4.0528C73.7639 4.0528 74.394 4.71753 74.394 6.04701V7.82237C74.394 8.30405 74.4175 8.68755 74.4633 8.97185ZM73.354 7.31512V6.57164C72.1754 6.55119 71.5861 6.87537 71.5861 7.54318C71.5861 7.79476 71.6534 7.98293 71.791 8.10872C71.9287 8.23451 72.104 8.29689 72.3131 8.29689C72.5476 8.29689 72.7668 8.22223 72.9666 8.07395C73.1675 7.92464 73.2908 7.73544 73.3367 7.50329C73.3479 7.45114 73.354 7.38773 73.354 7.31512Z" fill="white"/>
<path d="M80.5354 8.97201H79.5872L79.5372 8.19785H79.5076C79.2048 8.78691 78.6889 9.08144 77.964 9.08144C77.3849 9.08144 76.9026 8.85338 76.5203 8.39727C76.1379 7.94116 75.9473 7.34903 75.9473 6.62191C75.9473 5.84161 76.1542 5.2096 76.5702 4.72689C76.973 4.27692 77.4664 4.05193 78.0537 4.05193C78.6991 4.05193 79.1508 4.26976 79.4077 4.70644H79.4281V1.93909H80.4976V7.67322C80.4976 8.14262 80.5099 8.57521 80.5354 8.97201ZM79.4281 6.93894V6.13512C79.4281 5.99603 79.4179 5.88354 79.3985 5.79763C79.3384 5.53992 79.2089 5.32311 79.0121 5.14824C78.8133 4.97336 78.5737 4.88541 78.2974 4.88541C77.8987 4.88541 77.5867 5.04392 77.3573 5.36197C77.13 5.68003 77.0148 6.08603 77.0148 6.58202C77.0148 7.05859 77.1239 7.44516 77.3431 7.74276C77.5745 8.05979 77.8865 8.2183 78.277 8.2183C78.6277 8.2183 78.9081 8.08638 79.1212 7.8215C79.3272 7.57708 79.4281 7.28255 79.4281 6.93894Z" fill="white"/>
<path d="M89.6737 6.52153C89.6737 7.26297 89.4626 7.87043 89.0405 8.347C88.598 8.83686 88.0128 9.08128 87.2797 9.08128C86.5752 9.08128 86.0134 8.84709 85.5934 8.37666C85.1753 7.90725 84.9663 7.31512 84.9663 6.6013C84.9663 5.85475 85.1814 5.24216 85.6137 4.76662C86.046 4.29108 86.6272 4.0528 87.3603 4.0528C88.0648 4.0528 88.6327 4.28699 89.0609 4.75639C89.4688 5.21251 89.6737 5.80157 89.6737 6.52153ZM88.5664 6.5563C88.5664 6.11144 88.4706 5.72998 88.2799 5.41193C88.0546 5.0274 87.7365 4.83514 87.3205 4.83514C86.8923 4.83514 86.566 5.0274 86.3407 5.41193C86.149 5.72998 86.0542 6.11757 86.0542 6.57573C86.0542 7.02059 86.15 7.40205 86.3407 7.7201C86.5721 8.10463 86.8943 8.29689 87.3103 8.29689C87.7182 8.29689 88.0393 8.10156 88.2697 7.70988C88.4665 7.38569 88.5664 7.00116 88.5664 6.5563Z" fill="white"/>
<path d="M95.4189 8.97187H94.3514V6.21065C94.3514 5.35979 94.0292 4.93436 93.3818 4.93436C93.0647 4.93436 92.8088 5.05094 92.611 5.28513C92.4132 5.51933 92.3143 5.79545 92.3143 6.11145V8.97085H91.2448V5.52853C91.2448 5.10514 91.2325 4.64596 91.207 4.14894H92.145L92.195 4.90265H92.2246C92.35 4.66846 92.5355 4.47518 92.7782 4.32075C93.0688 4.14076 93.392 4.04974 93.7478 4.04974C94.1954 4.04974 94.5686 4.19496 94.8653 4.48643C95.2354 4.84334 95.4189 5.37615 95.4189 6.08384V8.97187Z" fill="white"/>
<path d="M102.61 4.95373H101.433V7.29566C101.433 7.89085 101.642 8.18845 102.056 8.18845C102.248 8.18845 102.407 8.17209 102.532 8.13834L102.56 8.95136C102.349 9.03113 102.071 9.07102 101.73 9.07102C101.308 9.07102 100.98 8.94216 100.742 8.68445C100.503 8.42673 100.385 7.99312 100.385 7.38463V4.95373H99.6826V4.15094H100.385V3.26735L101.432 2.95032V4.14991H102.609V4.95373H102.61Z" fill="white"/>
<path d="M108.267 8.97201H107.197V6.23125C107.197 5.36709 106.875 4.9345 106.23 4.9345C105.734 4.9345 105.396 5.18505 105.21 5.68616C105.179 5.7915 105.16 5.92035 105.16 6.07171V8.97099H104.093V1.93909H105.16V4.8445H105.181C105.517 4.31578 105.999 4.05193 106.624 4.05193C107.067 4.05193 107.433 4.19715 107.723 4.48861C108.085 4.85166 108.267 5.39163 108.267 6.10546V8.97201Z" fill="white"/>
<path d="M114.102 6.33365C114.102 6.52591 114.087 6.68749 114.062 6.81942H110.857C110.872 7.29598 111.025 7.65903 111.321 7.91061C111.592 8.1356 111.942 8.24809 112.37 8.24809C112.845 8.24809 113.277 8.17242 113.666 8.02004L113.834 8.76454C113.378 8.96294 112.841 9.06214 112.221 9.06214C111.476 9.06214 110.89 8.84227 110.466 8.40252C110.04 7.96277 109.829 7.37269 109.829 6.63227C109.829 5.90515 110.025 5.29973 110.422 4.81702C110.836 4.3016 111.396 4.04388 112.102 4.04388C112.794 4.04388 113.319 4.3016 113.673 4.81702C113.96 5.22609 114.102 5.73232 114.102 6.33365ZM113.082 6.0565C113.09 5.73845 113.02 5.46438 112.875 5.23325C112.69 4.93566 112.407 4.78634 112.025 4.78634C111.676 4.78634 111.392 4.93156 111.174 5.22303C110.997 5.45517 110.892 5.73232 110.857 6.0565H113.082Z" fill="white"/>
</svg>
