<svg width="129" height="31" viewBox="0 0 129 31" fill="none" xmlns="http://www.w3.org/2000/svg">
<path d="M41.9903 4.55796C41.9903 5.47208 41.7134 6.2042 41.1679 6.75021C40.5407 7.39748 39.7238 7.72316 38.7228 7.72316C37.766 7.72316 36.9491 7.392 36.279 6.73926C35.6075 6.07693 35.2725 5.26408 35.2725 4.29112C35.2725 3.31816 35.6075 2.5053 36.279 1.84845C36.9491 1.19023 37.766 0.85907 38.7228 0.85907C39.199 0.85907 39.6532 0.956229 40.0865 1.13686C40.5185 1.31887 40.8702 1.56518 41.1249 1.86898L40.5462 2.44646C40.1018 1.92782 39.4967 1.67192 38.7228 1.67192C38.0249 1.67192 37.4199 1.91277 36.9062 2.39856C36.3981 2.88573 36.1433 3.51658 36.1433 4.29112C36.1433 5.06565 36.3981 5.70198 36.9062 6.18914C37.4199 6.66946 38.0249 6.91578 38.7228 6.91578C39.4635 6.91578 40.0865 6.66947 40.5781 6.18367C40.902 5.86209 41.0862 5.41871 41.1346 4.85218H38.7228V4.06122H41.9404C41.9792 4.23227 41.9903 4.39786 41.9903 4.55796Z" fill="white" stroke="black" stroke-width="0.16" stroke-miterlimit="10"/>
<path d="M47.0949 1.81565H44.0724V3.89568H46.7972V4.68664H44.0724V6.76667H47.0949V7.57268H43.2168V1.00964H47.0949V1.81565Z" fill="white" stroke="black" stroke-width="0.16" stroke-miterlimit="10"/>
<path d="M50.6974 7.57268H49.8417V1.81565H47.9878V1.00964H52.5527V1.81565H50.6974V7.57268Z" fill="white" stroke="black" stroke-width="0.16" stroke-miterlimit="10"/>
<path d="M55.8564 7.57268V1.00964H56.7107V7.57268H55.8564Z" fill="white" stroke="black" stroke-width="0.16" stroke-miterlimit="10"/>
<path d="M60.4972 7.57268H59.6484V1.81565H57.7876V1.00964H62.358V1.81565H60.4972V7.57268Z" fill="white" stroke="black" stroke-width="0.16" stroke-miterlimit="10"/>
<path d="M71.0004 6.72831C70.3455 7.392 69.5342 7.72316 68.5664 7.72316C67.5931 7.72316 66.7817 7.392 66.1268 6.72831C65.4733 6.06598 65.1479 5.25313 65.1479 4.29112C65.1479 3.3291 65.4733 2.51625 66.1268 1.85393C66.7817 1.19023 67.5931 0.85907 68.5664 0.85907C69.5287 0.85907 70.34 1.19023 70.9949 1.8594C71.6539 2.5272 71.9793 3.33458 71.9793 4.29112C71.9793 5.25313 71.6539 6.06598 71.0004 6.72831ZM66.7596 6.1782C67.2525 6.66947 67.852 6.91578 68.5664 6.91578C69.2753 6.91578 69.8803 6.66947 70.3677 6.1782C70.8592 5.68693 71.1084 5.05608 71.1084 4.29112C71.1084 3.52616 70.8592 2.89531 70.3677 2.40404C69.8803 1.91277 69.2753 1.66645 68.5664 1.66645C67.852 1.66645 67.2525 1.91277 66.7596 2.40404C66.2681 2.89531 66.0188 3.52616 66.0188 4.29112C66.0188 5.05608 66.2681 5.68693 66.7596 6.1782Z" fill="white" stroke="black" stroke-width="0.16" stroke-miterlimit="10"/>
<path d="M73.1802 7.57268V1.00964H74.2186L77.4474 6.11392H77.4847L77.4474 4.85222V1.00964H78.3016V7.57268H77.41L74.0289 2.21661H73.9915L74.0289 3.48378V7.57268H73.1802Z" fill="white" stroke="black" stroke-width="0.16" stroke-miterlimit="10"/>
<path d="M64.9377 17.1573C62.3362 17.1573 60.2109 19.1141 60.2109 21.8141C60.2109 24.4921 62.3362 26.4695 64.9377 26.4695C67.5448 26.4695 69.6701 24.4921 69.6701 21.8141C69.6701 19.1141 67.5448 17.1573 64.9377 17.1573ZM64.9377 24.6358C63.5103 24.6358 62.2822 23.4713 62.2822 21.8141C62.2822 20.135 63.5103 18.991 64.9377 18.991C66.3652 18.991 67.5988 20.135 67.5988 21.8141C67.5988 23.4713 66.3652 24.6358 64.9377 24.6358ZM54.6242 17.1573C52.0171 17.1573 49.8974 19.1141 49.8974 21.8141C49.8974 24.4921 52.0171 26.4695 54.6242 26.4695C57.23 26.4695 59.3511 24.4921 59.3511 21.8141C59.3511 19.1141 57.23 17.1573 54.6242 17.1573ZM54.6242 24.6358C53.1954 24.6358 51.9631 23.4713 51.9631 21.8141C51.9631 20.135 53.1954 18.991 54.6242 18.991C56.0517 18.991 57.2798 20.135 57.2798 21.8141C57.2798 23.4713 56.0517 24.6358 54.6242 24.6358ZM42.3516 18.5846V20.5633H47.1324C46.9926 21.669 46.6188 22.4819 46.0456 23.0484C45.3478 23.7326 44.2609 24.4921 42.3516 24.4921C39.4094 24.4921 37.1055 22.1452 37.1055 19.2373C37.1055 16.3294 39.4094 13.9825 42.3516 13.9825C43.9424 13.9825 45.0999 14.5969 45.9542 15.3934L47.3651 13.9989C46.1702 12.8713 44.5807 12.0051 42.3516 12.0051C38.317 12.0051 34.9263 15.2497 34.9263 19.2373C34.9263 23.2249 38.317 26.4695 42.3516 26.4695C44.5323 26.4695 46.1702 25.7634 47.4578 24.4387C48.7773 23.1346 49.1885 21.3009 49.1885 19.8203C49.1885 19.3605 49.1497 18.9376 49.0805 18.5846H42.3516ZM92.536 20.1186C92.1469 19.0772 90.9465 17.1573 88.5014 17.1573C86.0784 17.1573 84.0611 19.0443 84.0611 21.8141C84.0611 24.4223 86.0576 26.4695 88.734 26.4695C90.898 26.4695 92.1469 25.1654 92.6606 24.4059L91.0545 23.3481C90.5187 24.1226 89.789 24.6358 88.734 24.6358C87.6859 24.6358 86.9341 24.1609 86.4522 23.2249L92.7533 20.6482L92.536 20.1186ZM86.1116 21.669C86.0576 19.8736 87.5225 18.954 88.572 18.954C89.3944 18.954 90.0922 19.3605 90.3248 19.942L86.1116 21.669ZM80.9902 26.1862H83.0615V12.5018H80.9902V26.1862ZM77.5981 18.1945H77.5288C77.0636 17.6499 76.1761 17.1573 75.0519 17.1573C72.6926 17.1573 70.5355 19.2045 70.5355 21.8291C70.5355 24.4387 72.6926 26.4695 75.0519 26.4695C76.1761 26.4695 77.0636 25.9728 77.5288 25.4117H77.5981V26.0795C77.5981 27.8598 76.6358 28.8164 75.0837 28.8164C73.8182 28.8164 73.0332 27.9132 72.7092 27.1537L70.9079 27.8968C71.4271 29.1311 72.802 30.6501 75.0837 30.6501C77.5122 30.6501 79.5613 29.2379 79.5613 25.8017V17.4405H77.5981V18.1945ZM75.2291 24.6358C73.8016 24.6358 72.6068 23.4548 72.6068 21.8291C72.6068 20.1884 73.8016 18.991 75.2291 18.991C76.6358 18.991 77.7448 20.1884 77.7448 21.8291C77.7448 23.4548 76.6358 24.6358 75.2291 24.6358ZM102.233 12.5018H97.2794V26.1862H99.3452V21.0012H102.233C104.528 21.0012 106.777 19.3605 106.777 16.7508C106.777 14.1426 104.522 12.5018 102.233 12.5018ZM102.287 19.0977H99.3452V14.4053H102.287C103.83 14.4053 104.71 15.6711 104.71 16.7508C104.71 17.81 103.83 19.0977 102.287 19.0977ZM115.057 17.1313C113.564 17.1313 112.012 17.7826 111.374 19.2264L113.207 19.9858C113.602 19.2264 114.327 18.98 115.094 18.98C116.166 18.98 117.253 19.6164 117.27 20.7398V20.8835C116.896 20.6701 116.095 20.3539 115.111 20.3539C113.137 20.3539 111.125 21.4282 111.125 23.4329C111.125 25.2666 112.742 26.4476 114.56 26.4476C115.95 26.4476 116.717 25.8277 117.199 25.1065H117.27V26.1643H119.265V20.915C119.265 18.4888 117.432 17.1313 115.057 17.1313ZM114.808 24.6303C114.132 24.6303 113.191 24.2992 113.191 23.4713C113.191 22.4121 114.365 22.0057 115.381 22.0057C116.291 22.0057 116.717 22.2041 117.27 22.4654C117.108 23.7326 116.004 24.6303 114.808 24.6303ZM126.534 17.431L124.159 23.3631H124.088L121.634 17.431H119.406L123.094 25.721L120.99 30.334H123.148L128.832 17.431H126.534ZM107.913 26.1862H109.984V12.5018H107.913V26.1862Z" fill="white"/>
<path d="M1.02685 1.59682C0.701481 1.93345 0.513184 2.45757 0.513184 3.13631V27.3468C0.513184 28.0255 0.701481 28.5496 1.02685 28.8862L1.10715 28.9601L14.8336 15.3989V15.0787L1.10715 1.51745L1.02685 1.59682Z" fill="white"/>
<g opacity="0.3">
<path d="M19.4039 19.9216L14.8335 15.3989V15.0787L19.4094 10.556L19.5119 10.6149L24.931 13.6624C26.4776 14.5272 26.4776 15.9504 24.931 16.8207L19.5119 19.8628L19.4039 19.9216Z" fill="white"/>
</g>
<g opacity="0.5">
<path d="M19.512 19.8626L14.8336 15.2387L1.02686 28.8861C1.54052 29.4198 2.37817 29.4841 3.33074 28.9504L19.512 19.8626Z" fill="white"/>
</g>
<g opacity="0.5">
<path d="M19.512 10.6149L3.33074 1.52706C2.37817 0.998845 1.54052 1.06316 1.02686 1.59685L14.8336 15.2388L19.512 10.6149Z" fill="white"/>
</g>
</svg>
