<svg width="145" height="49" viewBox="0 0 145 49" fill="none" xmlns="http://www.w3.org/2000/svg">
<path d="M56.1753 21.6575L61.1461 13.8495L56.3487 8.16226H60.7222L64.9802 13.6375V8.16226H68.7179V13.6375L72.9758 8.16226H77.3493L72.5519 13.8495L77.5227 21.6575H73.0914L70.0087 16.5678L68.7179 18.0716V21.6575H64.9802V18.0716L63.6893 16.5678L60.6066 21.6575H56.1753Z" fill="white"/>
<path d="M78.5959 21.6575V8.16226H88.3063V11.4397H82.3337V21.6575H78.5959Z" fill="white"/>
<path d="M89.885 21.6575V8.16226H93.5842V15.7581L98.8055 8.16226H102.293V21.6575H98.5935V14.0616L93.3723 21.6575H89.885Z" fill="white"/>
<path d="M69.45 42.1286C68.0628 43.491 66.3352 44.1722 64.2673 44.1722C62.1993 44.1722 60.4718 43.4974 59.0846 42.1479C57.7102 40.7855 57.023 39.1211 57.023 37.1547C57.023 35.2011 57.7166 33.5431 59.1038 32.1807C60.5039 30.8184 62.2379 30.1372 64.3058 30.1372C66.3738 30.1372 68.0949 30.8184 69.4693 32.1807C70.8565 33.5303 71.5501 35.1882 71.5501 37.1547C71.5501 39.1083 70.8501 40.7663 69.45 42.1286ZM64.3058 40.7984C65.3205 40.7984 66.1426 40.445 66.7719 39.7381C67.4142 39.0312 67.7353 38.17 67.7353 37.1547C67.7353 36.1522 67.4077 35.2975 66.7527 34.5906C66.0976 33.8709 65.2691 33.511 64.2673 33.511C63.2654 33.511 62.4434 33.8644 61.8012 34.5713C61.1718 35.2782 60.8571 36.1393 60.8571 37.1547C60.8571 38.1572 61.1782 39.0183 61.8204 39.7381C62.4755 40.445 63.304 40.7984 64.3058 40.7984Z" fill="white"/>
<path d="M73.4971 43.9023V30.4071H77.2348V35.4582H82.0322V30.4071H85.7699V43.9023H82.0322V38.7741H77.2348V43.9023H73.4971Z" fill="white"/>
<path d="M88.9247 44.0951C88.0513 44.0951 87.3063 43.9923 86.6897 43.7866L86.9402 40.9141C87.1714 40.9655 87.4604 40.9912 87.8072 40.9912C88.0641 40.9912 88.276 40.9526 88.443 40.8755C88.61 40.7984 88.7898 40.5992 88.9825 40.2779C89.188 39.9437 89.3485 39.481 89.4641 38.8898C89.5797 38.2857 89.6761 37.431 89.7531 36.3257C89.8302 35.2075 89.8687 33.858 89.8687 32.2771V30.4071H100.234V43.9023H96.4965V33.6845H93.356V34.205C93.356 35.8116 93.2854 37.2061 93.1441 38.3885C93.0028 39.571 92.8037 40.5285 92.5468 41.2611C92.3028 41.9808 91.9881 42.5592 91.6027 42.9962C91.2174 43.4203 90.8128 43.7095 90.3889 43.8637C89.9779 44.018 89.4898 44.0951 88.9247 44.0951Z" fill="white"/>
<path d="M101.544 43.9023L107.285 30.3107H110.888L116.63 43.9023H112.622L111.64 41.4924H106.438L105.474 43.9023H101.544ZM107.536 38.5813H110.561L109.058 34.7448L107.536 38.5813Z" fill="white"/>
<path d="M117.938 43.9023V30.4071H121.637V38.003L126.859 30.4071H130.346V43.9023H126.647V36.3064L121.426 43.9023H117.938ZM124.258 29.5395C123.333 29.5395 122.569 29.2825 121.965 28.7684C121.374 28.2543 121.008 27.5281 120.867 26.5899L122.909 26.2236C123.192 26.9947 123.641 27.3803 124.258 27.3803C124.887 27.3803 125.343 26.9947 125.626 26.2236L127.668 26.5899C127.527 27.5281 127.154 28.2543 126.55 28.7684C125.96 29.2825 125.195 29.5395 124.258 29.5395Z" fill="white"/>
<path d="M132.727 43.9023V30.4071H136.465V35.4582H141.262V30.4071H145V43.9023H141.262V38.7741H136.465V43.9023H132.727Z" fill="white"/>
<path d="M40.8768 30.746C41.4499 30.3154 42.5209 29.8339 42.7318 29.5668C41.9726 35.5717 37.2251 45.1366 32.0557 48.0123C32.8502 46.5498 33.3012 44.8841 33.3012 43.1176C33.3012 40.1406 31.9959 37.2918 29.7202 35.3019L28.3963 34.1444L27.3417 35.5398C27.0732 35.8951 26.5435 36.4835 26.0169 36.4251C25.5993 36.3797 24.9901 35.9152 24.5708 34.9802C23.9909 33.6876 23.8732 31.644 25.2814 29.7855L27.5161 26.8362L23.7818 27.292C23.6559 27.3074 20.6639 27.6933 17.6971 29.8649C12.7711 33.4706 11.737 39.0619 11.737 43.1176C11.737 44.8845 12.1357 46.4509 12.9831 48.0132C0.749688 44.6566 0 31.6871 0 31.6871C0 29.7835 0.252154 27.8904 0.749688 26.0604L1.65486 22.731L3.64209 25.5745C3.66941 25.6126 4.71125 27.0539 6.79751 28.6966C6.76891 26.1064 6.96106 22.2767 7.98129 18.2345C10.4084 8.61835 16.3583 2.51149 25.188 0.574305L27.8055 0L27.1002 2.52123C25.4378 8.46284 25.7696 12.3287 26.3405 14.5256C26.9525 16.881 28.1455 18.5169 29.6133 19.0144C31.5199 19.6608 33.5713 18.2105 34.8392 15.3197L35.9383 12.8136L37.6158 14.9948C41.6136 20.1933 41.9016 25.0792 41.4391 28.2625C41.3054 29.1818 41.1033 30.0152 40.8768 30.746Z" fill="#FF001F"/>
</svg>
