<svg width="179" height="73" viewBox="0 0 179 73" fill="none" xmlns="http://www.w3.org/2000/svg">
<path d="M88.6034 72.0607C89.1892 72.6464 90.1389 72.6464 90.7247 72.0607L100.271 62.5147C100.856 61.9289 100.856 60.9792 100.271 60.3934C99.6849 59.8076 98.7351 59.8076 98.1493 60.3934L89.6641 68.8787L81.1788 60.3934C80.593 59.8076 79.6432 59.8076 79.0575 60.3934C78.4717 60.9792 78.4717 61.9289 79.0575 62.5147L88.6034 72.0607ZM88.1641 0V71H91.1641V0L88.1641 0Z" fill="#E76F00"/>
<path d="M151.304 71.2884C151.652 72.04 152.544 72.3671 153.295 72.0188L165.544 66.3438C166.296 65.9956 166.623 65.1039 166.275 64.3522C165.927 63.6006 165.035 63.2735 164.283 63.6218L153.395 68.6662L148.351 57.778C148.002 57.0263 147.111 56.6993 146.359 57.0475C145.607 57.3958 145.28 58.2874 145.629 59.0391L151.304 71.2884ZM175.705 3.48348L151.256 70.1413L154.073 71.1743L178.522 4.51652L175.705 3.48348Z" fill="#E76F00"/>
<path d="M26.0385 71.9412C26.7913 72.287 27.6819 71.9571 28.0278 71.2043L33.663 58.9367C34.0088 58.1839 33.6789 57.2933 32.9261 56.9475C32.1733 56.6017 31.2827 56.9316 30.9369 57.6844L25.9278 68.589L15.0232 63.5798C14.2704 63.234 13.3798 63.564 13.034 64.3168C12.6882 65.0696 13.0182 65.9602 13.771 66.306L26.0385 71.9412ZM0.593419 4.52108L25.2581 71.0993L28.0713 70.0571L3.40658 3.47892L0.593419 4.52108Z" fill="#E76F00"/>
</svg>
