<svg width="603" height="617" viewBox="0 0 603 617" fill="none" xmlns="http://www.w3.org/2000/svg">
<path d="M305.034 596.503C462.702 596.503 590.518 526.051 590.518 439.144C590.518 352.236 462.702 281.784 305.034 281.784C147.365 281.784 19.5492 352.236 19.5492 439.144C19.5492 526.051 147.365 596.503 305.034 596.503Z" fill="#F0F0F0"/>
<path d="M304.129 498.832C348.582 498.832 384.618 477.545 384.618 451.286C384.618 425.027 348.582 403.74 304.129 403.74C259.677 403.74 223.641 425.027 223.641 451.286C223.641 477.545 259.677 498.832 304.129 498.832Z" fill="#E0E0E0"/>
<path d="M145.552 524.092C194.374 524.092 233.952 500.711 233.952 471.869C233.952 443.027 194.374 419.646 145.552 419.646C96.7303 419.646 57.1523 443.027 57.1523 471.869C57.1523 500.711 96.7303 524.092 145.552 524.092Z" fill="#E0E0E0"/>
<path d="M453.444 528.843C502.266 528.843 541.844 505.462 541.844 476.62C541.844 447.778 502.266 424.397 453.444 424.397C404.622 424.397 365.044 447.778 365.044 476.62C365.044 505.462 404.622 528.843 453.444 528.843Z" fill="#E0E0E0"/>
<path d="M499.718 417.166C499.718 417.166 496.715 387.747 504.627 365.98C512.538 344.212 526.431 328.639 541.506 324.024C556.581 319.409 572.549 335.253 558.245 348.815C543.942 362.376 516.928 378.961 511.344 419.029L499.718 417.166Z" fill="#4C6FBF"/>
<path opacity="0.15" d="M499.718 417.166C499.718 417.166 496.715 387.747 504.627 365.98C512.538 344.212 526.431 328.639 541.506 324.024C556.581 319.409 572.549 335.253 558.245 348.815C543.942 362.376 516.928 378.961 511.344 419.029L499.718 417.166Z" fill="black"/>
<path d="M502.757 410.601H502.576C502.347 410.567 502.139 410.442 501.999 410.253C501.859 410.063 501.798 409.825 501.829 409.589C508.052 363.067 535.524 337.153 549.176 329.959C549.383 329.851 549.622 329.832 549.843 329.904C549.952 329.941 550.053 329.998 550.141 330.074C550.228 330.15 550.3 330.243 550.352 330.348C550.404 330.452 550.436 330.567 550.445 330.684C550.454 330.801 550.441 330.918 550.406 331.03C550.37 331.142 550.314 331.245 550.24 331.335C550.165 331.424 550.074 331.498 549.972 331.551C536.598 338.597 509.692 364.042 503.565 409.836C503.538 410.039 503.442 410.227 503.295 410.366C503.148 410.506 502.958 410.589 502.757 410.601Z" fill="white"/>
<path d="M507.256 438.576C507.621 434.92 507.351 431.227 506.46 427.667C505.591 423.854 503.348 420.263 503.167 416.265C503.023 413.081 504.964 409.478 507.171 407.331C509.378 405.184 512.453 403.555 513.985 400.754C515.517 397.953 515.191 394.349 515.951 391.153C516.775 387.601 518.917 384.517 521.924 382.552C524.931 380.588 528.567 379.897 532.063 380.627C535.319 381.318 538.19 383.169 541.168 384.675C544.102 386.35 547.482 387.024 550.816 386.6C554.472 385.882 558.179 385.469 561.9 385.366C568.231 385.366 576.191 387.575 578.361 394.423C578.982 396.1 579.041 397.94 578.53 399.656L578.458 399.865C576.625 404.505 570.848 405.455 567.134 407.726C566.121 408.355 564.42 409.231 564.034 410.49C563.648 411.749 564.709 413.476 565.24 414.636C566.591 417.635 568.545 420.523 568.725 423.916C568.967 428.766 565.011 433.43 561.019 435.491C557.095 437.311 552.783 438.079 548.489 437.724C546.366 437.626 544.051 437.441 542.302 438.687C541.588 439.295 541.006 440.047 540.591 440.896C540.175 441.746 539.937 442.674 539.89 443.623C539.661 445.499 539.83 447.411 539.661 449.299C539.289 452.273 538.144 455.089 536.345 457.455C534.546 459.821 532.159 461.65 529.434 462.75C524.874 464.521 519.829 464.459 515.312 462.577C511.597 461.084 508.413 456.518 507.69 452.545C506.934 447.929 506.788 443.231 507.256 438.576Z" fill="#4C6FBF"/>
<path d="M508.787 449.657H508.727C508.636 449.644 508.548 449.612 508.469 449.564C508.39 449.515 508.321 449.451 508.266 449.376C508.211 449.3 508.172 449.214 508.149 449.123C508.127 449.031 508.122 448.936 508.136 448.843C514.263 404.098 558.149 392.264 568.677 391.733C568.862 391.727 569.042 391.794 569.179 391.92C569.317 392.047 569.401 392.223 569.413 392.412C569.419 392.506 569.407 392.601 569.377 392.691C569.347 392.78 569.3 392.863 569.238 392.933C569.176 393.003 569.101 393.06 569.017 393.1C568.933 393.14 568.842 393.162 568.75 393.165C558.438 393.683 515.517 405.258 509.523 449.04C509.502 449.22 509.413 449.385 509.276 449.5C509.139 449.615 508.964 449.671 508.787 449.657Z" fill="white"/>
<path d="M555.761 421.51C555.617 421.504 555.478 421.452 555.363 421.362C555.242 421.263 542.495 411.193 523.947 416.426C523.859 416.452 523.767 416.46 523.676 416.449C523.585 416.438 523.497 416.409 523.417 416.363C523.337 416.317 523.267 416.255 523.211 416.181C523.155 416.107 523.114 416.022 523.09 415.932C523.042 415.747 523.067 415.55 523.16 415.384C523.252 415.218 523.405 415.095 523.585 415.043C529.069 413.404 534.839 413.022 540.483 413.924C546.128 414.826 551.509 416.991 556.243 420.263C556.387 420.384 556.479 420.558 556.499 420.747C556.52 420.936 556.467 421.125 556.352 421.275C556.279 421.36 556.187 421.425 556.085 421.466C555.982 421.507 555.871 421.522 555.761 421.51Z" fill="white"/>
<path d="M97.1432 403.58C99.0849 392.313 98.7593 372.878 90.6067 352.282C81.8873 330.243 68.4646 314.337 54.9453 316.496C42.3426 318.508 42.5597 335.648 58.0327 356.626C68.8867 371.335 79.3909 389.512 82.5868 408.935L89.3042 434.368L97.1432 403.58Z" fill="#4C6FBF"/>
<path d="M97.1432 403.58C99.0849 392.313 98.7593 372.878 90.6067 352.282C81.8873 330.243 68.4646 314.337 54.9453 316.496C42.3426 318.508 42.5597 335.648 58.0327 356.626C68.8867 371.335 79.3909 389.512 82.5868 408.935L89.3042 434.368L97.1432 403.58Z" fill="#4C6FBF"/>
<g opacity="0.15">
<path opacity="0.15" d="M97.1432 403.58C99.0849 392.313 98.7593 372.878 90.6067 352.282C81.8873 330.243 68.4646 314.337 54.9453 316.496C42.3426 318.508 42.5597 335.648 58.0327 356.626C68.8867 371.335 79.3909 389.512 82.5868 408.935L89.3042 434.368L97.1432 403.58Z" fill="black"/>
</g>
<path d="M93.8992 411.699C93.7425 411.658 93.6019 411.568 93.4963 411.442C93.3907 411.316 93.3251 411.161 93.3083 410.996C90.245 377.505 75.5077 340.584 59.094 324.962C59.0149 324.889 58.9503 324.802 58.9041 324.704C58.858 324.607 58.831 324.501 58.8248 324.393C58.8187 324.284 58.8334 324.176 58.8682 324.073C58.9031 323.971 58.9572 323.876 59.0277 323.795C59.0982 323.714 59.1836 323.648 59.279 323.601C59.3744 323.554 59.478 323.526 59.5838 323.52C59.6896 323.514 59.7956 323.529 59.8958 323.564C59.9959 323.6 60.0882 323.655 60.1674 323.728C76.8946 339.523 91.837 376.95 94.9364 410.786C94.9566 411 94.8931 411.214 94.7598 411.381C94.6264 411.547 94.4341 411.653 94.2248 411.675C94.1181 411.7 94.0084 411.708 93.8992 411.699Z" fill="white"/>
<path d="M91.9334 440.229C85.0259 444.831 77.0567 447.49 68.8264 447.942C54.5956 448.954 48.9998 441.538 48.9998 441.538C48.9998 441.538 55.681 428.568 63.9662 425.495C63.9662 425.495 50.2178 427.087 38.7367 433.517C38.7367 433.517 30.162 432.887 27.8827 419.19C27.8827 419.19 33.6594 411.601 51.062 408.775C51.062 408.775 40.9316 405.184 25.6637 407.738C24.4577 408.084 21.2135 390.351 20.4537 382.244C19.694 374.136 22.8657 374.494 29.0525 373.384C35.2393 372.273 56.079 373.088 59.5884 376.851C63.0979 380.615 64.0265 392.498 64.0265 392.498C64.0265 392.498 68.537 384.576 67.6445 377.382C73.1987 377.246 78.7099 378.411 83.7567 380.788C85.2642 381.503 86.0722 393.424 81.6221 402.506C86.2809 397.765 89.6483 391.861 91.3907 385.378C99.6879 391.733 101.642 399.285 102.245 406.048C102.92 414.019 101.738 430.666 91.9334 440.229Z" fill="#4C6FBF"/>
<path d="M91.861 441.032C91.7131 441.021 91.5714 440.966 91.4536 440.874C91.3357 440.782 91.2468 440.656 91.1977 440.513C81.9356 415.426 42.2462 383.663 27.4244 379.307C27.3237 379.277 27.2298 379.227 27.148 379.16C27.0662 379.093 26.9981 379.01 26.9477 378.916C26.8972 378.822 26.8655 378.719 26.8541 378.612C26.8428 378.506 26.8522 378.398 26.8817 378.295C26.9433 378.091 27.0792 377.92 27.2612 377.817C27.4432 377.713 27.6572 377.686 27.8586 377.74C42.9215 382.182 83.2743 414.451 92.6811 439.946C92.7514 440.147 92.7414 440.369 92.6534 440.563C92.5654 440.756 92.4064 440.907 92.2107 440.982C92.1004 441.03 91.9798 441.047 91.861 441.032Z" fill="white"/>
<path d="M233.626 188.802L183.951 166.244L182.745 138.479C192.393 137.887 195.444 140.034 199.786 142.786C206.142 146.797 228.006 158.31 238.306 163.258L250.016 129.94C253.387 129.495 256.7 128.667 259.893 127.472C263.366 125.868 267.237 127.966 267.237 127.966C267.237 127.966 256.878 179.3 252.971 188.802C250.739 194.195 242.189 192.627 233.626 188.802Z" fill="#FFA8A7"/>
<path d="M182.757 138.418C182.757 138.418 189.197 136.406 197.905 140.886C206.612 145.365 226.39 156.348 226.39 156.348C226.39 156.348 220.36 173.217 213.281 182.2L188.293 171.292L182.757 138.418Z" fill="#455A64"/>
<path d="M260.58 357.576C260.882 342.694 263.728 332.452 264.066 328.33C264.066 328.33 262.992 239.84 262.992 225.489L336.727 222.416C336.727 222.416 334.315 315.275 334.315 327.565C334.315 339.856 326.669 401.605 324.414 425.903C320.145 431.604 315.152 431.999 308.447 426.421C308.447 426.421 307.892 423.028 307.023 411.823C306.01 399.002 304.008 369.151 303.888 356.589C303.743 341.115 303.623 334.291 304.057 326.837C304.575 318.31 302.573 260.781 302.573 260.781C302.573 260.781 293.335 315.657 291.032 334.291C288.403 355.651 279.961 418.203 279.937 431.197C279.937 433.529 279.937 436.231 279.937 439.156C279.937 446.19 279.744 448.053 280.841 450.78C282.771 455.543 266.285 458.53 265.525 455.149L263.752 441.167V440.76V431.9C263.825 418.634 260.146 379.146 260.58 357.576Z" fill="#FFBDA7"/>
<path d="M356.976 448.633C357.422 450.002 357.34 451.494 356.747 452.804C356.18 454.038 349.957 457.617 341.563 457.037C335.344 456.603 329.351 454.473 324.209 450.867C321.001 448.695 317.672 448.287 313.524 448.053C309.375 447.819 303.876 445.684 302.995 443.697C302.115 441.71 303.128 438.28 303.128 438.28L356.976 448.633Z" fill="#263238"/>
<path d="M323.136 421.843L323.799 421.695C324.16 421.595 324.538 421.574 324.908 421.633C325.316 421.762 325.676 422.011 325.946 422.349C326.768 423.423 327.487 424.576 328.092 425.792C329.853 428.729 333.543 431.16 337.571 433.381C340.321 434.886 343.01 436.059 345.833 437.367C348.655 438.675 352.55 439.501 354.817 441.069C358.11 443.339 358.532 449.053 354.817 451.311C351.585 453.248 343.059 455.358 334.134 452.767C329.31 451.36 323.859 446.042 317.479 445.523C313.415 445.203 305.733 444.03 303.116 440.871C302.151 439.477 303.442 435.034 304.503 431.209C305.709 427.026 306.529 420.461 307.88 420.831C307.923 421.583 308.003 422.333 308.121 423.077C308.266 423.719 308.941 424.311 309.327 424.805L310.895 426.656C311.526 427.513 312.317 428.235 313.222 428.778C314.826 429.617 316.744 429.259 318.505 428.877C318.589 428.877 317.781 425.594 317.696 425.273C317.611 425.02 317.59 424.748 317.636 424.484C317.741 424.227 317.928 424.013 318.167 423.879C319.665 422.851 321.358 422.157 323.136 421.843Z" fill="#455A64"/>
<path d="M296.905 472.968C297.4 473.449 297.255 476.67 296.7 477.595C296.145 478.521 292.744 481.482 286.642 481.939C280.805 482.358 275.595 481.556 272.17 479.335C268.745 477.114 267.093 474.658 266.767 471.252C266.442 467.846 266.767 464.576 265.236 461.96C263.776 459.492 261.437 456.827 260.93 455.506C259.833 452.668 260.93 448.584 260.93 448.584L296.905 472.968Z" fill="#263238"/>
<path d="M280.998 443.29C281.047 444.579 281.275 445.854 281.673 447.078C282.581 449.711 283.796 452.222 285.291 454.556C286.017 455.783 286.823 456.958 287.703 458.073C289.464 460.22 291.659 461.973 293.528 464.033C295.526 465.975 296.805 468.565 297.146 471.363C297.4 476.04 292.431 477.632 288.608 478.335C284.472 479.074 280.228 478.855 276.186 477.694C274.064 477.125 272.147 475.943 270.665 474.289C269.182 472.634 268.198 470.577 267.828 468.365C267.611 467.069 267.696 465.736 267.539 464.428C267.037 461.44 265.815 458.628 263.981 456.247C262.92 454.861 262.007 453.364 261.256 451.78C260.05 448.892 261.015 445.61 261.786 442.747C262.438 440.279 263.185 437.428 264.042 437.663C264.042 438.959 264.042 439.094 264.946 439.97C266.152 441.081 266.152 442.747 267.358 443.672C266.965 442.595 266.682 441.478 266.514 440.341C266.438 439.884 266.528 439.414 266.767 439.02C267.172 438.655 267.655 438.393 268.178 438.255C269.978 437.627 271.838 437.193 273.726 436.959C275.522 436.651 277.356 436.651 279.153 436.959C279.685 437.055 280.167 437.339 280.516 437.762C280.83 438.235 280.998 438.794 280.998 439.366C280.998 440.118 280.901 442.056 280.998 443.29Z" fill="#455A64"/>
<path d="M285.822 455.543C284.121 454.235 280.311 454.211 278.224 454.445C276.101 454.628 274.058 455.363 272.291 456.58C272.028 456.768 271.709 456.856 271.39 456.829C271.071 456.801 270.771 456.661 270.542 456.432C270.408 456.301 270.303 456.141 270.236 455.964C270.169 455.786 270.141 455.596 270.153 455.407C270.166 455.217 270.219 455.033 270.309 454.867C270.399 454.7 270.524 454.557 270.675 454.445C272.625 452.995 274.938 452.139 277.344 451.977C282.481 451.607 283.989 452.508 283.989 452.508C283.989 452.508 286.304 453.989 285.822 455.543Z" fill="#F5F5F5"/>
<path d="M289.717 460.282C287.583 458.986 283.374 459.171 281.275 459.406C279.193 459.62 277.204 460.395 275.511 461.652C275.251 461.846 274.932 461.939 274.612 461.914C274.291 461.889 273.99 461.748 273.762 461.516C273.63 461.384 273.527 461.224 273.461 461.047C273.395 460.87 273.367 460.68 273.38 460.491C273.393 460.302 273.445 460.119 273.534 459.952C273.623 459.786 273.746 459.642 273.895 459.529C275.874 457.989 278.233 457.045 280.708 456.802C285.846 456.432 287.185 457.506 287.185 457.506C287.786 457.74 288.326 458.112 288.765 458.594C289.204 459.075 289.53 459.652 289.717 460.282Z" fill="#F5F5F5"/>
<path d="M275.282 446.881C277.443 446.498 279.665 446.689 281.734 447.436C282.638 447.954 283.229 449.423 282.65 449.793C280.84 449.041 278.875 448.765 276.934 448.991C275.007 449.181 273.127 449.707 271.374 450.546C270.94 450.743 270.409 451.027 269.963 451.286C269.819 451.371 269.659 451.424 269.494 451.442C269.329 451.46 269.161 451.443 269.003 451.392C268.844 451.341 268.698 451.257 268.573 451.145C268.447 451.034 268.346 450.897 268.275 450.743C268.151 450.483 268.129 450.184 268.211 449.907C268.294 449.63 268.476 449.395 268.721 449.25C270.716 447.987 272.954 447.179 275.282 446.881Z" fill="#F5F5F5"/>
<path d="M333.785 431.123C333.492 430.549 333.065 430.06 332.54 429.7C332.015 429.34 331.411 429.121 330.782 429.062C328.936 428.716 325.668 430.111 323.642 431.814C323.449 431.974 323.297 432.18 323.2 432.414C323.103 432.648 323.063 432.903 323.085 433.156C323.106 433.409 323.188 433.653 323.323 433.867C323.458 434.08 323.642 434.257 323.859 434.38C324.133 434.536 324.447 434.601 324.758 434.565C325.07 434.53 325.362 434.396 325.596 434.183C327.831 432.109 330.769 431.011 333.785 431.123Z" fill="#F5F5F5"/>
<path d="M339.513 434.368C339.111 433.786 338.577 433.312 337.958 432.986C337.339 432.659 336.652 432.49 335.955 432.492C335.955 432.492 331.131 432.64 328.141 435.479C327.959 435.635 327.818 435.834 327.727 436.058C327.636 436.282 327.599 436.525 327.619 436.767C327.64 437.009 327.716 437.242 327.842 437.447C327.969 437.652 328.141 437.824 328.346 437.947C328.608 438.096 328.91 438.158 329.209 438.122C329.507 438.087 329.788 437.956 330.01 437.749C331.245 436.493 332.74 435.536 334.385 434.951C336.03 434.366 337.783 434.166 339.513 434.368Z" fill="#F5F5F5"/>
<path d="M345.832 437.367C345.375 436.826 344.808 436.394 344.17 436.1C343.533 435.806 342.841 435.657 342.142 435.664C339.399 435.834 336.781 436.893 334.665 438.687C334.484 438.843 334.342 439.042 334.251 439.266C334.161 439.49 334.124 439.733 334.144 439.975C334.164 440.217 334.24 440.45 334.367 440.655C334.493 440.861 334.666 441.032 334.87 441.155C335.133 441.305 335.435 441.366 335.733 441.331C336.032 441.295 336.312 441.165 336.534 440.958C337.702 439.657 339.152 438.655 340.766 438.032C342.381 437.408 344.116 437.18 345.832 437.367Z" fill="#F5F5F5"/>
<path d="M292.202 338.437L299.582 288.423L302.706 328.602C302.959 331.884 302.139 344.052 302.344 354.096C302.549 364.141 306.818 409.33 306.818 409.33C306.818 409.33 315.176 415.179 326.295 409.33C326.597 408.405 332.518 356.984 333.049 350.382C333.712 342.213 334.87 334.821 335.135 327.861C335.401 320.902 335.883 306.513 335.775 295.531C335.666 284.548 336.691 222.416 336.691 222.416L261.485 222.651L260.544 326.85C260.086 329.182 257.517 351.048 258.193 361.994C258.868 372.939 263.402 423.817 263.402 423.817C263.402 423.817 270.18 428.247 280.383 423.817C280.383 423.817 286.702 371.989 288.523 362.216C290.344 352.443 291.55 342.83 292.202 338.437Z" fill="#37474F"/>
<path d="M299.582 288.423L301.862 267.21C309.093 266.384 316.022 263.785 322.062 259.634C322.062 259.634 320.856 262.348 314.549 266.581C311.997 268.283 309.196 269.558 306.252 270.357L303.912 287.238L302.706 327.861L299.582 288.423Z" fill="#263238"/>
<path d="M318.987 114.12C328.731 114.12 333.109 116.008 337.861 121.932C342.612 127.855 365.201 158.952 365.201 158.952C365.201 158.952 381.168 143.415 389.321 135.691C394.41 130.335 399.403 125.091 404.866 123.486C410.571 121.808 407.724 132.667 409.992 133.556L403.25 143.601C403.25 143.601 378.37 177.486 369.675 182.743C366.66 184.569 363.476 188.493 355.07 181.509C344.036 172.316 324.016 149.24 324.016 149.24L318.987 114.12Z" fill="#FFBDA7"/>
<path d="M315.031 114.108C324.028 112.553 329.732 111.973 337.861 120.722C345.989 129.471 361.716 154.164 361.716 154.164C361.716 154.164 360.787 166.837 344.832 171.797L320.169 154.164L315.031 114.108Z" fill="#455A64"/>
<path d="M260.58 233.226C270.699 240.766 316.575 249.12 337.861 233.226C337.861 233.226 337.366 172.377 335.702 140.17C335.618 138.714 335.521 137.295 335.376 135.913C335.376 135.456 335.268 135 335.22 134.543C334.985 132.621 334.626 130.716 334.146 128.842C334.062 128.533 333.965 128.225 333.869 127.916C333.674 127.221 333.44 126.537 333.17 125.868C333.037 125.51 332.892 125.152 332.735 124.807C332.596 124.478 332.439 124.156 332.265 123.844C332.246 123.785 332.222 123.727 332.193 123.672C332.036 123.363 331.855 123.055 331.686 122.758C331.517 122.462 331.3 122.117 331.071 121.783C330.842 121.45 330.661 121.179 330.456 120.907C330.251 120.636 329.962 120.29 329.696 119.994C329.45 119.704 329.189 119.428 328.912 119.167L328.358 118.637C328.184 118.463 327.998 118.302 327.803 118.156C327.562 117.946 327.296 117.748 327.043 117.563C326.211 116.967 325.331 116.443 324.414 115.996C324.155 115.858 323.89 115.734 323.618 115.626C323.558 115.626 323.473 115.626 323.437 115.539L322.484 115.169C321.939 114.955 321.384 114.769 320.82 114.614C320.253 114.454 319.614 114.305 319.047 114.157C318.48 114.009 317.6 114.157 316.78 114.157H315.092C314.501 114.157 313.886 114.157 313.283 114.157C305.323 114.515 296.917 112.923 287.752 114.059C287.149 114.145 267.973 116.342 263.547 117.983C259.423 119.525 255.708 127.028 254.792 131.187C252.054 143.428 264.114 183.175 264.114 183.175L260.58 233.226Z" fill="#4C6FBF"/>
<path d="M285.062 116.354C284.628 117.872 287.474 122.437 292.069 124.548C296.664 126.658 303.43 127.633 307.747 126.115C312.065 124.597 317.274 119.093 312.728 114.194C304.925 114.453 296.688 112.96 287.727 114.083C287.691 114.071 285.508 114.836 285.062 116.354Z" fill="#455A64"/>
<path opacity="0.3" d="M335.919 144.847C328.201 147.599 315.526 149.783 299.582 150.733C284.885 151.48 270.152 150.653 255.624 148.265C257.372 158.655 260.448 170.477 262.401 177.351C290.272 183.163 322.159 178.585 336.884 173.809C336.619 163.246 336.329 153.46 335.919 144.847Z" fill="black"/>
<path d="M287.281 71.3252L284.459 74.4843L283.012 58.1708C281.868 58.0344 280.708 58.1669 279.621 58.5582C278.535 58.9495 277.549 59.5893 276.741 60.429C274.051 63.2425 275.535 72.0656 278.912 80.7036C278.912 80.7036 282.18 96.4248 283.494 99.0038C284.363 100.6 285.802 101.79 287.51 102.323L287.281 71.3252Z" fill="#263238"/>
<path d="M286.919 81.444C285.713 82.1967 283.916 79.7658 282.397 78.1369C280.877 76.508 275.897 74.2745 273.412 79.6177C270.928 84.9609 275.607 92.2785 279.527 93.5372C286.268 95.709 287.281 91.279 287.281 91.279L287.739 116.675C294.807 129.755 318.722 123.054 309.761 114.379V107.926C313.149 108.179 316.551 108.179 319.94 107.926C324.908 107.148 326.947 103.631 328.454 98.1277C330.866 89.3046 331.783 82.1721 329.732 64.8097C327.489 45.7814 305.854 45.584 294.167 53.099C282.481 60.6141 286.919 81.444 286.919 81.444Z" fill="#FFBDA7"/>
<path d="M284.025 47.7681C288.123 45.9768 292.402 44.6565 296.785 43.8317C306.228 41.7339 315.839 39.8088 324.45 35.3541C325.454 34.6852 326.629 34.3372 327.827 34.3546C330.106 34.6631 331.095 37.4766 331.192 39.8212C331.276 41.9963 330.999 44.1703 330.372 46.2503C331.06 45.5797 331.978 45.2128 332.928 45.229C333.878 45.2452 334.783 45.643 335.449 46.3367C336.079 47.0663 336.539 47.9336 336.792 48.8725C337.044 49.8113 337.084 50.7969 336.908 51.754C336.353 56.073 333.121 59.6762 329.298 61.626C325.375 63.3727 321.131 64.2395 316.852 64.168C310.899 64.332 304.945 63.8564 299.088 62.7489C297.681 62.3911 296.225 62.2826 294.783 62.4281C294.063 62.5143 293.38 62.805 292.813 63.2673C292.247 63.7297 291.817 64.3452 291.575 65.0441C290.948 67.4504 290.296 83.7886 287.028 83.912C286.425 83.912 284.097 79.8028 282.578 78.3343C280.672 76.4957 278.755 62.4898 278.417 59.8984C278.374 59.6976 278.283 59.511 278.152 59.3554C276.005 56.2704 278.526 51.0876 281.179 49.397C282.095 48.7968 283.046 48.2529 284.025 47.7681Z" fill="#263238"/>
<path d="M279.322 59.5158C278.938 59.9761 278.47 60.3545 277.944 60.6297C277.418 60.9048 276.844 61.0711 276.255 61.1193C275.666 61.1674 275.073 61.0963 274.511 60.9101C273.949 60.724 273.428 60.4263 272.978 60.0341C272.528 59.642 272.158 59.163 271.89 58.6245C271.621 58.0861 271.458 57.4988 271.411 56.896C271.364 56.2933 271.433 55.687 271.615 55.1117C271.797 54.5365 272.088 54.0035 272.472 53.5433L279.322 59.5158Z" fill="#263238"/>
<path d="M309.737 107.913C309.737 107.913 298.654 106.827 294.783 104.717C292.509 103.503 290.647 101.615 289.44 99.3C290.022 101.618 291.056 103.792 292.479 105.692C295.313 109.394 309.749 111.406 309.749 111.406L309.737 107.913Z" fill="#F28F8F"/>
<path d="M306.324 78.5935C306.305 79.0378 306.159 79.4667 305.904 79.8269C305.649 80.1871 305.296 80.4627 304.889 80.6195C304.483 80.7763 304.04 80.8074 303.616 80.709C303.192 80.6106 302.806 80.3869 302.505 80.0658C302.204 79.7446 302.002 79.3402 301.924 78.9027C301.846 78.4651 301.895 78.0137 302.066 77.6046C302.236 77.1954 302.52 76.8464 302.883 76.601C303.245 76.3556 303.67 76.2246 304.105 76.2242C304.403 76.2306 304.696 76.297 304.969 76.4195C305.242 76.5421 305.488 76.7184 305.694 76.9384C305.9 77.1584 306.062 77.4179 306.17 77.7018C306.278 77.9858 306.33 78.2888 306.324 78.5935Z" fill="#263238"/>
<path d="M303.996 70.0172L299.245 72.6949C298.905 72.0294 298.831 71.255 299.038 70.5346C299.245 69.8143 299.717 69.2041 300.354 68.8325C300.668 68.6587 301.013 68.5514 301.368 68.517C301.723 68.4826 302.081 68.5219 302.421 68.6325C302.761 68.7431 303.076 68.9227 303.347 69.1606C303.617 69.3986 303.838 69.6899 303.996 70.0172Z" fill="#263238"/>
<path d="M307.349 94.2899L313.56 96.6592C313.421 97.0823 313.2 97.4724 312.911 97.8065C312.622 98.1406 312.27 98.4118 311.876 98.604C311.482 98.7963 311.055 98.9056 310.619 98.9255C310.183 98.9454 309.748 98.8755 309.339 98.72C308.518 98.3804 307.854 97.7326 307.484 96.9091C307.115 96.0857 307.066 95.1487 307.349 94.2899Z" fill="#F28F8F"/>
<path d="M325.946 71.9052L321.616 68.4993C321.816 68.1962 322.074 67.9381 322.374 67.7409C322.675 67.5436 323.012 67.4115 323.365 67.3525C323.717 67.2936 324.078 67.3091 324.424 67.3981C324.77 67.487 325.095 67.6477 325.379 67.87C325.965 68.3367 326.352 69.018 326.458 69.7706C326.564 70.5231 326.38 71.2883 325.946 71.9052Z" fill="#263238"/>
<path d="M324.607 77.9395C324.615 78.244 324.564 78.5471 324.456 78.8311C324.348 79.1151 324.187 79.3743 323.98 79.5937C323.774 79.8131 323.526 79.9882 323.253 80.1088C322.98 80.2295 322.686 80.2932 322.388 80.2964C321.929 80.3136 321.476 80.1902 321.086 79.9419C320.696 79.6936 320.388 79.3318 320.201 78.9029C320.013 78.474 319.955 77.9976 320.034 77.5349C320.114 77.0721 320.326 76.6442 320.645 76.3058C320.963 75.9675 321.373 75.7343 321.822 75.6361C322.271 75.538 322.739 75.5793 323.164 75.7549C323.59 75.9305 323.955 76.2322 324.212 76.6215C324.469 77.0107 324.607 77.4697 324.607 77.9395Z" fill="#263238"/>
<path d="M313.898 76.3229L314.633 89.9833L321.604 87.5523L313.898 76.3229Z" fill="#F28F8F"/>
<path d="M274.148 115.873C259.338 116.588 254.96 118.97 250.028 129.842C246.41 137.788 228.32 186.877 225.003 195.663C222.097 203.499 221.711 207.522 228.055 212.877C234.398 218.233 240.79 223.218 247.351 228.167C251.342 231.19 254.924 234.472 258.952 237.434C265.296 242.086 271.495 247.306 278.248 251.218C286.328 255.919 300.933 262.102 308.627 253.488C310.147 251.785 311.558 249.786 310.726 247.318C310.082 245.731 308.918 244.422 307.433 243.616C305.959 242.817 304.417 242.156 302.827 241.642C299.265 240.332 295.833 238.679 292.576 236.706C295.386 235.793 298.461 236.015 301.319 235.472C302.127 235.322 302.857 234.885 303.381 234.238C303.648 233.92 303.795 233.515 303.795 233.096C303.795 232.678 303.648 232.273 303.381 231.955C303.028 231.684 302.613 231.509 302.175 231.449C298.155 230.528 294.091 229.742 289.983 229.092C286.186 228.643 282.431 227.88 278.755 226.809C272.833 224.835 269.107 220.38 264.886 215.95C260.267 211.1 255.865 206.078 251.62 200.871L271.35 153.374C271.35 153.374 281.541 126.127 274.148 115.873Z" fill="#FFBDA7"/>
<path d="M276.258 115.552C270.578 115.873 261.786 116.564 257.674 119.254C252.91 122.376 251.113 124.782 246.386 136.628C241.658 148.475 232.36 173.266 232.36 173.266C235.549 177.5 239.712 180.862 244.478 183.051C249.243 185.241 254.464 186.19 259.676 185.816L275.354 148.796C275.354 148.796 282.65 129.15 276.258 115.552Z" fill="#455A64"/>
<path d="M298.847 249.268C296.978 241.432 303.96 234.731 309.628 230.758C318.372 224.588 326.127 220.886 335.135 215.358C343.336 210.298 368.445 192.418 368.445 192.418C368.445 192.418 381.434 171.501 390.322 155.496C401.345 135.691 410.016 123.03 428.468 125.3L428.299 149.191C428.299 149.191 388.911 203.955 386.487 206.905C384.063 209.854 383.086 211.174 378.925 213.075C367.649 218.406 353.382 225.069 342.046 232.3C338.807 234.331 336.276 237.353 334.81 240.938C333.591 243.81 332.019 246.509 330.13 248.972C329.21 250.175 328.219 251.321 327.164 252.402C326.452 253.118 325.138 254.587 324.064 254.475C323.809 254.435 323.567 254.333 323.357 254.179C323.148 254.025 322.977 253.822 322.858 253.587C322.622 253.105 322.502 252.572 322.509 252.032C322.436 248.737 324.8 245.862 325.126 242.567C325.126 242.271 324.752 242.419 324.691 242.135C324.631 241.852 319.662 244.801 319.228 245.097C317.459 246.356 315.76 247.716 314.139 249.169C312.499 250.613 310.871 252.094 309.194 253.488C308.413 254.267 307.427 254.798 306.358 255.017C305.288 255.236 304.179 255.134 303.164 254.722C302.09 254.204 301.144 253.444 300.397 252.5C299.649 251.555 299.12 250.451 298.847 249.268Z" fill="#FFBDA7"/>
<path d="M430.831 125.078C424.934 123.844 410.486 124.005 403.95 132.988C397.051 142.453 375.717 178.313 375.717 178.313C375.717 178.313 381.168 190.283 397.124 194.355L424.512 156.175L430.831 125.078Z" fill="#455A64"/>
<path d="M480.784 496.673C481.266 498.61 482.267 504.077 492.229 504.077C502.191 504.077 507.907 499.893 509.849 494.723C511.79 489.553 510.681 485.702 510.5 481.149C510.319 476.596 513.599 473.745 514.323 471.277C515.396 467.686 512.466 462.738 512.466 462.738L480.784 496.673Z" fill="#263238"/>
<path d="M385.028 463.392C384.762 464.201 384.665 465.059 384.744 465.91C384.823 466.76 385.076 467.584 385.486 468.328C386.209 469.327 392.891 474.288 401.164 473.264C407.215 472.66 413.038 470.582 418.144 467.205C422.968 464.293 426.285 463.873 431.193 463.885C436.102 463.898 439.454 462.96 439.864 461.689C440.576 459.48 440.624 458.061 439.587 458.098L385.028 463.392Z" fill="#263238"/>
<path d="M500.96 378.838C499.682 368.111 496.161 357.791 490.637 348.58C490.637 348.58 485.813 275.774 481.713 237.52H408.05C408.05 237.52 410.245 336.722 411.427 351.27C412.331 362.376 419.772 431.999 419.785 432.134L420.858 443.746C426.635 446.72 431.169 446.276 436.09 442.66L437.139 432.381C437.139 432.381 443.169 388.241 443.543 377.715C443.959 368.726 442.986 359.727 440.66 351.048L449.597 301.602C449.597 301.602 456.736 336.549 460.777 356.12C465.395 378.542 492.133 451.965 492.133 451.989L493.833 458.098C493.459 464.761 509.125 460.22 508.956 454.976C508.932 454.988 503.915 401.63 500.96 378.838Z" fill="#FFBDA7"/>
<path d="M457.87 357.095C453.842 337.524 449.597 301.565 449.597 301.565L443.977 351.801C423.788 360.735 409.883 352.159 409.883 352.159C406.265 314.941 408.05 237.483 408.05 237.483H481.713C485.789 275.737 493.037 347.717 493.037 347.717C493.037 347.717 487.296 360.131 457.87 357.095Z" fill="#37474F"/>
<path d="M449.597 301.614L444.604 278.094C444.604 278.094 433.461 275.49 425.501 268.963C425.501 268.963 428.419 276.465 440.624 282.203L445.726 304.243L444.363 348.371L449.597 301.614Z" fill="#263238"/>
<path d="M493.857 458.11L493.254 456.086C492.603 456.753 492.699 457.32 492.675 459.134C492.675 460.566 492.675 461.948 492.494 463.848C492.259 466.33 491.815 468.787 491.168 471.191C489.877 476.768 488.43 479.014 484.595 485.912C483.678 487.541 481.484 490.268 480.832 492.082C480.181 493.896 479.988 497.018 482.038 498.252C487.863 501.781 496.848 500.819 502.54 498.079C504.672 497.085 506.48 495.486 507.75 493.471C509.02 491.457 509.698 489.112 509.704 486.714C509.704 485.295 509.414 483.888 509.354 482.469C509.401 479.197 510.229 475.986 511.766 473.116C512.642 471.455 513.345 469.706 513.865 467.896C514.636 464.601 513.117 461.282 511.851 458.32C510.765 455.766 509.499 452.347 508.643 452.742L508.98 454.988C508.088 456.37 505.362 458.036 501.998 458.69C499.851 459.134 494.098 459.788 493.857 458.11Z" fill="#455A64"/>
<path d="M420.243 437.157C419.483 437.157 418.711 437.762 417.36 439.785C415.503 442.56 413.105 444.913 410.317 446.696C405.313 450.299 397.389 453.939 389.249 457.061C384.81 458.752 383.966 461.997 385.426 464.971C387.729 467.316 395.556 472.807 408.412 468.797C416.384 466.329 419.194 462.133 424.898 461.393C428.926 460.862 435.921 461.997 440.033 458.591C441.336 455.408 440.286 452.199 439.876 447.782C439.466 443.364 438.08 436.293 436.717 436.577L436.476 438.909C435.378 444.03 423.873 444.524 420.617 441.18L420.243 437.157Z" fill="#455A64"/>
<path d="M451.309 124.005C464.093 124.819 480.772 124.659 481.556 138.06C482.762 158.618 478.891 209.274 478.891 209.274L483.027 244.727C473.657 254.969 431.036 260.325 407.109 245.307C407.109 245.307 405.747 168.392 407.628 156.755C411.005 135.777 421.003 125.794 428.468 125.202L451.309 124.005Z" fill="#4C6FBF"/>
<path d="M457.074 130.582C460.017 127.546 460.933 124.634 458.835 124.412C456.266 124.227 453.685 124.116 451.261 123.955L433.171 124.905C433.171 124.905 429.059 129.15 430.277 132.692C431.495 136.234 435.463 137.998 440.335 137.801C446.578 137.516 452.515 134.955 457.074 130.582Z" fill="#455A64"/>
<path opacity="0.3" d="M407.387 158.68C406.941 163.542 406.724 173.143 406.663 184.261C429.975 192.368 463.695 188.025 480.47 185.014C480.977 175.993 481.459 168.688 481.676 159.445C455.12 165.356 424.886 163.159 407.387 158.68Z" fill="black"/>
<path d="M468.857 125.769C477.07 125.769 483.461 126.3 489.202 133.519C493.218 138.554 523.054 176.141 526.588 182.398C530.122 188.654 530.363 191.11 525.129 198.958C520.787 205.461 496.595 242.148 488.768 250.453C480.941 258.757 470.485 260.152 465.311 257.931C460.137 255.71 453.504 250.403 466.336 244.357C475.333 240.161 480.507 235.854 481.556 231.708L480.893 225.785H485.717L502.745 190.036L472.945 157.31C472.945 157.31 462.742 139.084 468.857 125.769Z" fill="#FFBDA7"/>
<path d="M466.059 125.239C466.059 125.239 477.082 125.041 481.23 126.534C485.379 128.027 488.804 131.47 494.653 138.874C500.502 146.278 516.638 167.355 516.638 167.355C516.638 167.355 514.829 181.484 497.342 185.532L471.811 159.741C471.811 159.741 461.391 148.931 466.059 125.239Z" fill="#455A64"/>
<path d="M442.021 92.525C451.125 85.7049 453.102 72.6247 446.436 63.3096C439.771 53.9944 426.988 51.9719 417.884 58.792C408.78 65.6121 406.803 78.6923 413.469 88.0074C420.134 97.3226 432.918 99.3451 442.021 92.525Z" fill="#263238"/>
<path d="M465.516 89.9709C465.516 89.9709 462.429 105.939 461.138 108.592C460.267 110.221 458.809 111.439 457.074 111.986V100.793L465.516 89.9709Z" fill="#263238"/>
<path d="M460.994 67.253C462.148 67.0936 463.324 67.2065 464.429 67.5829C465.535 67.9593 466.542 68.5893 467.373 69.4248C470.147 72.2383 468.76 81.1849 465.492 89.9709L459.281 90.7977L460.994 67.253Z" fill="#263238"/>
<path d="M457.4 90.8347C458.666 91.5874 460.415 89.0948 461.934 87.4165C463.454 85.7383 468.447 83.406 471.04 88.7863C473.632 94.1665 469.013 101.62 465.07 102.953C458.28 105.26 457.183 100.793 457.183 100.793L457.074 126.707C448.765 137.986 425.187 137.418 434.823 125.633L434.727 117.958C434.727 117.958 428.552 119.019 425.537 118.587C420.496 117.872 417.276 113.873 415.672 108.333C413.091 99.448 412.054 92.2908 413.851 74.6446C415.841 55.3572 437.718 54.8019 449.657 62.2306C461.597 69.6593 457.4 90.8347 457.4 90.8347Z" fill="#FFBDA7"/>
<path d="M457.436 92.9942C458.063 92.9942 460.391 88.8974 461.934 87.4166C464.057 85.3805 460.994 67.253 460.994 67.253C461.714 65.6412 461.944 63.8449 461.654 62.0976C461.363 60.3503 460.566 58.7327 459.365 57.455C456.363 54.1726 452.129 50.1868 438.863 52.0131C429.324 53.3211 418.977 56.5419 410.51 52.4573C409.78 55.2594 409.879 58.2203 410.796 60.9644C411.713 63.7086 413.406 66.1121 415.66 67.87C415.66 67.87 418.735 69.8197 426.743 70.6959C434.751 71.572 447.245 70.1776 448.897 69.9061C451.213 69.5482 451.744 71.8435 453.094 78.0999C454.276 83.6529 455.325 92.9819 457.436 92.9942Z" fill="#263238"/>
<path d="M461.006 68.6597L468.495 64.3901C468.247 63.8735 467.899 63.4137 467.472 63.0387C467.045 62.6636 466.548 62.381 466.012 62.208C465.475 62.035 464.91 61.9751 464.35 62.032C463.79 62.0889 463.247 62.2614 462.754 62.5391C461.749 63.133 461.006 64.1007 460.681 65.2407C460.355 66.3807 460.471 67.6053 461.006 68.6597Z" fill="#263238"/>
<path d="M436.355 88.7493C436.388 89.1959 436.548 89.6229 436.815 89.9776C437.082 90.3323 437.445 90.5993 437.859 90.7456C438.273 90.8919 438.719 90.9112 439.143 90.8011C439.568 90.6909 439.951 90.4562 440.247 90.1257C440.542 89.7953 440.737 89.3836 440.806 88.9414C440.876 88.4993 440.818 88.0459 440.639 87.6372C440.459 87.2285 440.167 86.8824 439.798 86.6415C439.429 86.4005 439 86.2753 438.562 86.2813C438.257 86.2889 437.956 86.3596 437.678 86.489C437.4 86.6184 437.151 86.8039 436.945 87.0344C436.739 87.2649 436.58 87.5356 436.479 87.8303C436.378 88.1249 436.335 88.4375 436.355 88.7493Z" fill="#263238"/>
<path d="M437.645 80.3951L442.469 83.0235C442.799 82.3419 442.858 81.5558 442.633 80.8308C442.408 80.1058 441.917 79.4984 441.263 79.1364C440.946 78.9725 440.599 78.875 440.244 78.8497C439.889 78.8244 439.533 78.8717 439.196 78.9889C438.859 79.1061 438.549 79.2908 438.282 79.5322C438.016 79.7737 437.8 80.067 437.645 80.3951Z" fill="#263238"/>
<path d="M415.262 82.678L419.592 79.1487C419.382 78.8487 419.115 78.5957 418.807 78.4052C418.498 78.2148 418.155 78.0909 417.798 78.0412C417.441 77.9915 417.078 78.017 416.731 78.1162C416.384 78.2154 416.061 78.3862 415.781 78.6181C415.2 79.0963 414.822 79.7853 414.725 80.5416C414.629 81.2979 414.821 82.0631 415.262 82.678Z" fill="#263238"/>
<path d="M417.348 88.7493C417.381 89.1959 417.541 89.6229 417.809 89.9776C418.076 90.3323 418.439 90.5993 418.852 90.7456C419.266 90.8919 419.713 90.9112 420.137 90.8011C420.561 90.6909 420.945 90.4562 421.24 90.1257C421.536 89.7953 421.73 89.3836 421.8 88.9414C421.869 88.4993 421.811 88.0459 421.632 87.6372C421.453 87.2285 421.161 86.8824 420.792 86.6415C420.423 86.4005 419.993 86.2753 419.555 86.2813C419.251 86.2906 418.951 86.3624 418.674 86.4924C418.397 86.6224 418.148 86.808 417.942 87.0381C417.736 87.2682 417.578 87.5382 417.476 87.8321C417.374 88.126 417.331 88.4379 417.348 88.7493Z" fill="#263238"/>
<path d="M434.727 118.02C434.727 118.02 445.738 115.811 449.609 113.713C451.648 112.505 453.2 110.593 453.987 108.32C453.778 110.571 452.94 112.713 451.575 114.49C448.741 118.192 434.787 121.45 434.787 121.45L434.727 118.02Z" fill="#F0997A"/>
<path d="M437.091 104.372L430.904 106.753C431.038 107.179 431.255 107.573 431.541 107.911C431.828 108.249 432.178 108.524 432.571 108.72C432.964 108.916 433.392 109.029 433.829 109.051C434.266 109.074 434.702 109.006 435.113 108.851C435.945 108.512 436.616 107.855 436.985 107.02C437.354 106.184 437.392 105.235 437.091 104.372Z" fill="#F0997A"/>
<path d="M430.542 86.417L429.806 100.077L422.836 97.6464L430.542 86.417Z" fill="#F0997A"/>
<path d="M176.788 126.596L175.497 126.732C171.256 127.196 166.968 126.8 162.877 125.567C158.786 124.335 154.972 122.29 151.654 119.548C148.335 116.807 145.577 113.424 143.537 109.592C141.497 105.76 140.214 101.554 139.763 97.2146C138.902 88.7628 141.353 80.3066 146.578 73.7017C151.803 67.0968 159.376 62.8826 167.634 61.9839L171.252 61.589C179.493 60.7027 187.742 63.1906 194.196 68.5089C200.65 73.8271 204.785 81.5433 205.695 89.971C206.153 94.319 205.769 98.7168 204.563 102.912C203.357 107.108 201.354 111.019 198.669 114.421C195.983 117.824 192.668 120.65 188.914 122.739C185.159 124.829 181.038 126.139 176.788 126.596Z" fill="#263238"/>
<path d="M160.097 63.7608C168.631 60.2212 177.376 57.2372 186.279 54.8266C189.801 53.7846 193.486 53.4452 197.133 53.8271C198.949 54.0374 200.695 54.6636 202.242 55.6591C203.789 56.6546 205.097 57.9939 206.069 59.5775C208.24 63.5757 207.275 68.7955 204.55 72.4482C206.942 73.1907 209.049 74.6795 210.574 76.7066C212.1 78.7336 212.968 81.1976 213.059 83.7543C213.149 86.3111 212.457 88.8329 211.078 90.9673C209.7 93.1018 207.704 94.7423 205.37 95.6597C202.222 96.6859 198.879 96.9187 195.625 96.3384C188.76 95.64 182.107 93.5109 176.076 90.082C170.026 86.6196 165.214 81.272 162.34 74.8174" fill="#263238"/>
<path d="M192.779 448.46C189.366 444.487 188.799 440.723 189.463 433.529C190.126 426.335 197.302 363.722 199.111 348.05C202.198 321.716 203.271 246.553 201.595 228.179L132.66 231.881C127.341 244.529 123.265 260.164 123.41 284.943C123.518 303.786 121.782 354.861 121.782 354.861C121.782 354.861 113.195 362.142 106.815 376.814C101.183 389.771 93.9232 434.812 93.9232 434.812C93.3559 436.772 92.6464 438.686 91.8007 440.538C90.2469 442.365 89.3194 444.662 89.1595 447.078C88.9571 454.901 89.5676 462.723 90.9806 470.413C91.7163 474.399 94.068 477.003 97.8789 478.681C98.7261 479.059 99.6445 479.24 100.568 479.212C101.047 479.219 101.513 479.053 101.883 478.743C102.558 478.089 102.003 476.497 101.883 475.695C101.718 474.41 101.637 473.116 101.642 471.82C101.642 469.278 101.786 466.168 102.015 463.639C102.489 457.946 103.532 452.318 105.127 446.844L106.538 443.623C106.538 443.623 137.978 382.811 146.843 368.028C153.886 356.416 159.53 310.795 164.933 285.918L171.469 345.903C169.297 352.062 167.639 358.399 166.512 364.844C164.981 375.95 171.517 419.56 173.411 435.071C173.767 437.942 173.726 440.85 173.29 443.709C173.929 450.435 178.789 452.631 183.77 456.555C186.255 458.505 197.181 465.712 203.85 467.279C209.277 468.513 211.412 466.452 212.22 464.897C205.167 460.169 198.647 454.657 192.779 448.46Z" fill="#FFA8A7"/>
<path d="M82.9849 449.238C82.3968 449.594 81.8895 450.075 81.4965 450.647C81.1035 451.219 80.8339 451.87 80.7055 452.557C80.2352 454.927 80.8382 458.086 81.61 461.195C82.3819 464.305 82.2733 470.932 81.9718 475.756C81.6548 480.334 82.937 484.878 85.5898 488.578C88.0742 491.885 92.4761 494.353 98.1925 494.563C103.909 494.772 106.888 493.983 109.047 492.823C111.205 491.663 112.134 485.74 108.564 484.37C104.994 483 92.7414 480.668 90.1003 469.056C88.5306 462.177 86.1409 455.521 82.9849 449.238Z" fill="#263238"/>
<path d="M91.8007 440.538C92.2376 441.895 92.4496 443.317 92.4278 444.746C92.6404 445.928 92.7734 447.124 92.8258 448.325C92.8258 449.386 93.0067 450.657 93.9594 451.064C94.349 451.182 94.7638 451.182 95.1535 451.064C95.5431 450.946 95.8908 450.714 96.1543 450.398C96.6636 449.75 97.1387 449.074 97.5774 448.374C98.1 447.677 98.7679 447.108 99.5325 446.708C100.297 446.308 101.139 446.088 101.997 446.063C102.856 446.039 103.709 446.21 104.494 446.565C105.279 446.92 105.978 447.449 106.538 448.115L106.116 449.102C102.768 457.519 102.035 466.787 104.017 475.645C104.371 477.367 105.29 478.913 106.622 480.026C107.762 480.935 108.834 481.929 109.83 483C110.329 483.541 110.706 484.187 110.938 484.892C111.169 485.597 111.248 486.345 111.169 487.084C110.932 488.192 110.3 489.168 109.396 489.824C108.501 490.471 107.507 490.959 106.454 491.268C101.392 492.978 95.8839 492.647 91.0529 490.342C89.0145 489.24 87.268 487.648 85.9636 485.702C83.2381 480.532 83.6843 475.682 83.7566 471.289C83.9255 461.59 82.5506 456.543 81.8512 451.669C81.0793 445.721 90.0278 439.551 91.8007 440.538Z" fill="#455A64"/>
<path d="M170.565 457.9C170.227 460.183 169.998 461.195 172.735 463.305C175.473 465.415 179.706 466.909 182.986 468.241C186.267 469.574 190.886 473.362 192.876 475.263C194.865 477.163 202.596 480.581 208.891 480.372C215.187 480.162 218.841 478.706 220.36 477.324C221.88 475.941 223.46 471.067 219.432 469.722C215.404 468.377 170.565 457.9 170.565 457.9Z" fill="#263238"/>
<path d="M173.423 441.772C173.219 441.82 173.03 441.921 172.875 442.066C172.721 442.211 172.606 442.395 172.542 442.599C171.964 444.413 171.939 446.498 171.517 448.362C170.878 451.286 170.155 455.482 170.565 457.851C170.975 460.22 174.026 462.59 179.827 464.441C183.312 465.564 189.475 468.834 192.321 471.585C195.758 474.954 203.175 477.879 208.288 478.175C214.246 478.521 220.505 477.052 222.049 472.708C222.7 470.87 222.362 468.019 214.813 464.07C214.813 464.07 209.06 460.911 206.901 459.455C203.101 456.985 199.532 454.159 196.24 451.015C195.048 449.837 193.95 448.562 192.96 447.202C192.441 446.569 191.977 445.892 191.573 445.178C191.125 443.864 190.83 442.502 190.693 441.118C190.639 440.679 190.491 440.257 190.259 439.884C189.942 439.501 189.523 439.222 189.053 439.082C187.918 438.647 186.695 438.514 185.497 438.694C184.298 438.875 183.164 439.363 182.201 440.114C181.237 440.865 180.475 441.853 179.986 442.987C179.497 444.12 179.297 445.363 179.405 446.597C178.995 446.807 178.488 446.412 178.355 445.955C178.289 445.485 178.253 445.011 178.247 444.536C178.144 444.032 177.915 443.563 177.58 443.178C177.246 442.793 176.819 442.504 176.341 442.34C175.436 441.885 174.428 441.689 173.423 441.772Z" fill="#455A64"/>
<path d="M161.676 304.798C162.545 298.085 164.679 288.953 164.679 288.953L166.488 304.551L170.372 345.063C169.029 348.837 167.893 352.685 166.971 356.589C165.005 364.413 165.222 377.567 166.428 386.205C167.634 394.843 170.215 410.317 170.215 410.317C182.516 417.314 192.152 410.737 192.152 410.737C192.152 410.737 195.01 393.313 197.977 368.189C200.944 343.064 202.319 318.15 203.018 297.234C203.018 297.234 206.19 245.196 198.484 209.755C188.172 216.777 158.058 217.431 146.179 207.287C146.179 207.287 141.102 215.382 130.019 233.46C121.312 247.651 123.169 270.875 122.53 290.224C121.541 320.087 120.841 353.812 120.841 353.812C116.875 358.106 113.306 362.765 110.18 367.732C104.633 376.37 101.401 395.768 101.401 395.768C101.401 395.768 106.478 407.603 124.809 408.602C124.809 408.602 143.478 375.876 148.145 368.46C152.812 361.044 160.808 311.499 161.676 304.798Z" fill="#37474F"/>
<path d="M164.679 288.953L172.048 262.768C172.048 262.768 184.904 261.707 195.083 254.476C195.083 254.476 192.779 264.064 175.051 266.421L166.778 292.1V307.994L164.679 288.953Z" fill="#263238"/>
<path d="M206.503 163.246C200.087 152.485 187.002 142.046 182.757 138.418L157.54 137.924C152.583 138.06 145.311 138.517 145.311 138.517C139.992 141.244 140.077 147.92 139.739 154.213C139.353 161.123 139.245 164.159 140.813 175.623L143.828 190.27L144.286 192.516C144.37 192.899 144.443 193.294 144.527 193.75C145.685 199.364 144.828 205.216 142.115 210.237C136.085 221.343 129.006 229.697 126.835 239.112C130.144 238.263 133.187 236.564 135.675 234.176C139.486 230.635 141.777 229.006 144.865 224.785C144.865 224.785 144.997 231.202 151.003 239.779C152.543 241.978 154.319 243.994 156.298 245.788C167.224 255.66 200.751 260.72 202.62 230.746C202.62 230.746 199.4 211.717 198.942 205.338C200.027 199.871 203.078 190.431 203.199 188.321C211.05 181.398 211.183 171.082 206.503 163.246Z" fill="#4C6FBF"/>
<path d="M157.769 143.144C160.181 146.13 166.078 152.782 171.59 153.929C178.066 155.274 184.735 154.707 186.387 150.622C188.04 146.537 184.868 141.601 181.949 138.43L157.54 137.949H155.767C155.683 138.405 155.043 139.676 157.769 143.144Z" fill="#455A64"/>
<path opacity="0.3" d="M140.089 169.897C140.282 171.551 140.511 173.439 140.813 175.623L143.828 190.271L144.286 192.516C144.37 192.899 144.443 193.294 144.527 193.75C144.873 195.579 145.026 197.441 144.985 199.303C169.66 207.793 189.607 203.4 200.377 199.303C201.583 194.602 203.09 189.728 203.175 188.284C205.869 186.008 207.852 182.973 208.878 179.556C209.905 176.14 209.93 172.49 208.952 169.058C203.211 172.081 194.721 173.895 185.941 174.734C170.495 176.228 154.913 174.584 140.089 169.897Z" fill="black"/>
<path opacity="0.1" d="M191.042 186.778C191.042 186.778 182.6 194.047 172.482 190.826C169.657 190.024 167.081 188.491 165.003 186.375C162.924 184.259 161.413 181.632 160.615 178.745C160.615 178.745 159.988 190.431 172.675 193.923C184.952 197.28 191.042 186.778 191.042 186.778Z" fill="black"/>
<path d="M268.456 231.178C268.221 230.893 267.911 230.683 267.563 230.573C254.948 225.477 240.838 230.092 229.852 228.697L230.02 232.547C235.242 235.842 241.694 236.459 247.809 235.966C253.923 235.472 259.929 234.003 266.044 233.436C266.71 233.445 267.367 233.275 267.949 232.942C268.237 232.769 268.449 232.49 268.543 232.162C268.637 231.835 268.606 231.483 268.456 231.178Z" fill="#F28F8F"/>
<path d="M179.875 233.917C176.727 233.177 170.709 230.573 168.575 227.673C164.74 222.453 132.72 172.711 130.755 159.038C129.175 148.031 134.228 138.307 145.311 138.517C152.451 143.823 159.481 164.073 159.481 164.073L184.807 211.643C193.744 215.913 225.016 226.451 230.527 228.179C236.038 229.907 247.278 228.648 254.78 231.091C262.281 233.535 281.239 241.593 277.416 245.233C274.486 247.997 271.326 250.736 266.056 251.131C259.579 251.6 258.82 248.984 252.319 248.824C245.819 248.663 240.404 250.662 233.554 247.935C229.224 246.208 229.032 245.196 223.002 243.703C216.972 242.21 183.951 234.867 179.875 233.917Z" fill="#FFA8A7"/>
<path d="M148.483 138.319C142.887 137.332 135.217 138.183 130.513 145.538C125.81 152.893 129.946 163.098 132.925 169.922C135.904 176.746 145.661 192.504 145.661 192.504C145.661 192.504 166.802 190.937 170.794 180.09C170.794 180.053 157.902 151.881 148.483 138.319Z" fill="#455A64"/>
<path d="M194.721 77.0263C198.218 79.3586 202.246 88.7987 200.968 108.135C199.882 124.523 194.516 128.336 191.85 129.385C189.185 130.434 184.192 129.496 179.332 128.447L178.898 138.319C178.898 138.319 184.928 143.49 184.289 147.981C183.65 152.473 173.785 153.719 167.646 149.018C164.215 146.498 161.181 143.456 158.649 139.997L159.759 114.478C159.759 114.478 156.406 118.007 151.16 114.083C150.091 113.288 149.201 112.266 148.551 111.089C147.901 109.911 147.505 108.604 147.391 107.257C147.276 105.909 147.446 104.552 147.888 103.277C148.331 102.003 149.035 100.84 149.954 99.8676C153.234 96.7456 159.144 98.72 160.205 103.286C160.205 103.286 167.176 103.162 177.487 97.1158C188.703 90.625 191.633 83.7886 194.721 77.0263Z" fill="#FFA8A7"/>
<path d="M180.369 102.669C180.355 103.072 180.225 103.463 179.996 103.792C179.767 104.12 179.448 104.373 179.08 104.518C178.712 104.663 178.31 104.694 177.924 104.607C177.539 104.521 177.187 104.32 176.912 104.03C176.637 103.741 176.451 103.375 176.378 102.978C176.304 102.581 176.347 102.171 176.499 101.798C176.652 101.426 176.908 101.108 177.236 100.883C177.563 100.658 177.949 100.537 178.343 100.534C178.614 100.536 178.882 100.592 179.131 100.701C179.38 100.81 179.605 100.968 179.794 101.167C179.983 101.365 180.131 101.601 180.229 101.858C180.328 102.116 180.376 102.392 180.369 102.669Z" fill="#263238"/>
<path d="M182.106 117.045L187.822 119.192C187.702 119.585 187.504 119.948 187.243 120.261C186.982 120.574 186.661 120.83 186.301 121.013C185.94 121.196 185.548 121.303 185.146 121.327C184.744 121.352 184.342 121.293 183.963 121.154C183.195 120.847 182.573 120.247 182.227 119.482C181.881 118.716 181.838 117.843 182.106 117.045Z" fill="#F28F8F"/>
<path d="M198.266 97.486L194.311 94.401C194.496 94.1317 194.733 93.9032 195.006 93.729C195.28 93.5548 195.585 93.4383 195.903 93.3866C196.221 93.3348 196.546 93.3488 196.859 93.4276C197.171 93.5065 197.465 93.6487 197.724 93.8458C198.252 94.2664 198.603 94.8782 198.704 95.5553C198.805 96.2324 198.648 96.9234 198.266 97.486Z" fill="#263238"/>
<path d="M197.109 102.336C197.117 102.612 197.071 102.886 196.974 103.144C196.878 103.402 196.732 103.637 196.546 103.837C196.36 104.037 196.137 104.197 195.89 104.308C195.643 104.418 195.376 104.478 195.107 104.483C194.688 104.502 194.273 104.394 193.916 104.17C193.558 103.946 193.274 103.618 193.101 103.228C192.927 102.838 192.871 102.403 192.941 101.981C193.011 101.558 193.203 101.166 193.492 100.856C193.781 100.546 194.155 100.331 194.564 100.24C194.973 100.149 195.4 100.185 195.789 100.344C196.178 100.503 196.512 100.778 196.747 101.133C196.982 101.488 197.108 101.907 197.109 102.336Z" fill="#263238"/>
<path d="M187.316 100.707L187.087 113.133L193.563 111.406L187.316 100.707Z" fill="#F28F8F"/>
<path d="M179.332 128.447C174.207 127.509 163.727 123.918 162.267 119.55C162.833 121.749 164.046 123.718 165.741 125.189C168.792 128.114 179.188 131.729 179.188 131.729L179.332 128.447Z" fill="#F28F8F"/>
<path d="M249.714 128.879C249.244 119.612 251.813 116.897 255.045 114.676C258.277 112.454 270.228 109.283 272.701 110.172C275.173 111.06 288.126 117.576 287.51 124.005C286.895 130.434 280.998 132.038 274.474 130.508C267.949 128.978 256.733 121.426 254.333 122.499C251.933 123.573 249.714 128.879 249.714 128.879Z" fill="#FFA8A7"/>
<path d="M399.596 137.85C401.924 136.777 405.373 138.331 410.679 137.208C415.986 136.086 419.531 133.852 422.643 133.593C425.754 133.334 427.069 132.359 423.909 130.57C420.749 128.78 415.238 129.533 414.14 129.101C415.823 127.998 417.662 127.166 419.592 126.633C424.118 125.813 428.683 125.232 433.268 124.893C433.521 124.893 435.197 122.117 427.37 121.006C419.543 119.895 408.074 121.611 403.781 123.943C399.488 126.275 399.596 137.85 399.596 137.85Z" fill="#FFBDA7"/>
<path d="M92.4399 113.368C92.4673 113.849 92.3564 114.328 92.121 114.745C91.8855 115.162 91.5357 115.5 91.1149 115.716C90.694 115.933 90.2204 116.018 89.7525 115.963C89.2847 115.907 88.8431 115.712 88.4822 115.402C88.1213 115.093 87.8569 114.682 87.7216 114.22C87.5863 113.758 87.5861 113.266 87.721 112.804C87.8559 112.343 88.1199 111.931 88.4806 111.621C88.8413 111.311 89.2827 111.116 89.7505 111.06C90.077 111.021 90.4078 111.05 90.7227 111.147C91.0376 111.243 91.33 111.404 91.5818 111.62C91.8337 111.836 92.0397 112.103 92.1872 112.403C92.3348 112.704 92.4208 113.032 92.4399 113.368Z" fill="#4C6FBF"/>
<path d="M97.9031 92.9696L101.642 96.1039L106.273 94.7219C106.371 94.6906 106.476 94.6886 106.575 94.7161C106.675 94.7436 106.764 94.7993 106.834 94.8769C106.903 94.9545 106.95 95.0508 106.968 95.1544C106.986 95.258 106.975 95.3648 106.936 95.4623L105.187 100.065L107.901 104.15C107.961 104.236 107.995 104.337 108.001 104.442C108.006 104.548 107.982 104.653 107.932 104.745C107.881 104.837 107.806 104.912 107.715 104.962C107.624 105.011 107.521 105.034 107.418 105.026L102.594 104.754L99.6398 108.654C99.5761 108.735 99.4921 108.796 99.3967 108.831C99.3013 108.867 99.1983 108.875 99.0988 108.854C98.9994 108.834 98.9073 108.786 98.8325 108.716C98.7578 108.646 98.7033 108.556 98.675 108.456L97.4448 103.656L92.862 102.002C92.7669 101.966 92.6834 101.904 92.6205 101.822C92.5576 101.741 92.5177 101.643 92.5053 101.54C92.4928 101.437 92.5083 101.332 92.5499 101.238C92.5916 101.143 92.6578 101.062 92.7414 101.003L96.8057 98.3251L96.9624 93.3891C96.9535 93.2739 96.9799 93.1587 97.038 93.0596C97.0961 92.9605 97.183 92.8824 97.2866 92.8362C97.3901 92.79 97.5052 92.778 97.6157 92.8019C97.7262 92.8258 97.8267 92.8844 97.9031 92.9696Z" fill="#4C6FBF"/>
<path d="M528.554 115.095C529.3 115.156 529.996 115.507 530.499 116.075C531.003 116.643 531.275 117.386 531.261 118.152C531.247 118.919 530.948 119.651 530.425 120.2C529.902 120.748 529.194 121.072 528.445 121.105C528.044 121.122 527.643 121.056 527.268 120.909C526.893 120.762 526.551 120.538 526.264 120.251C525.976 119.964 525.749 119.62 525.597 119.24C525.444 118.86 525.37 118.452 525.377 118.041C525.384 117.63 525.474 117.225 525.64 116.851C525.806 116.477 526.045 116.141 526.343 115.866C526.641 115.59 526.99 115.379 527.37 115.246C527.751 115.114 528.153 115.062 528.554 115.095Z" fill="#4C6FBF"/>
<path d="M496.932 101.719L502.842 95.7955L501.431 87.466C501.399 87.2885 501.417 87.1056 501.482 86.938C501.547 86.7704 501.657 86.625 501.799 86.5182C501.941 86.4114 502.11 86.3477 502.286 86.3341C502.461 86.3206 502.637 86.3579 502.793 86.4417L510.138 90.3659L517.446 86.4171C517.602 86.3309 517.778 86.2912 517.954 86.3027C518.131 86.3142 518.3 86.3763 518.444 86.4819C518.587 86.5875 518.699 86.7324 518.766 86.8999C518.832 87.0674 518.852 87.2507 518.821 87.4289L517.374 95.7708L523.404 101.669C523.529 101.794 523.618 101.953 523.66 102.127C523.702 102.301 523.696 102.484 523.642 102.655C523.588 102.825 523.489 102.977 523.355 103.093C523.221 103.209 523.059 103.284 522.885 103.311L514.709 104.545L511.091 112.134C511.013 112.295 510.893 112.431 510.744 112.526C510.595 112.621 510.422 112.672 510.246 112.672C510.071 112.672 509.898 112.621 509.749 112.526C509.6 112.431 509.48 112.295 509.402 112.134L505.784 104.545L497.596 103.311C497.419 103.301 497.249 103.242 497.105 103.139C496.96 103.035 496.847 102.893 496.778 102.727C496.708 102.561 496.686 102.378 496.714 102.2C496.741 102.022 496.817 101.855 496.932 101.719Z" fill="#4C6FBF"/>
<path d="M546.065 218.332L547.838 222.354L552.083 223.157C552.171 223.175 552.254 223.218 552.32 223.281C552.387 223.344 552.435 223.424 552.46 223.513C552.485 223.603 552.485 223.697 552.461 223.786C552.437 223.876 552.39 223.957 552.324 224.02L549.128 226.982L549.695 231.35C549.71 231.443 549.699 231.539 549.663 231.626C549.627 231.713 549.568 231.787 549.491 231.84C549.415 231.894 549.326 231.924 549.234 231.926C549.141 231.929 549.05 231.905 548.971 231.856L545.221 229.66L541.337 231.572C541.255 231.615 541.163 231.633 541.071 231.623C540.979 231.614 540.892 231.578 540.82 231.52C540.748 231.461 540.693 231.383 540.663 231.294C540.633 231.205 540.628 231.109 540.65 231.017L541.53 226.698L538.551 223.514C538.488 223.446 538.444 223.361 538.426 223.269C538.407 223.177 538.413 223.082 538.445 222.993C538.476 222.905 538.531 222.827 538.603 222.769C538.675 222.71 538.762 222.674 538.853 222.663L543.134 222.182L545.184 218.307C545.228 218.225 545.293 218.157 545.372 218.111C545.451 218.064 545.541 218.041 545.632 218.044C545.723 218.046 545.812 218.074 545.888 218.125C545.964 218.176 546.026 218.247 546.065 218.332Z" fill="#4C6FBF"/>
<path d="M72.8665 188.074L79.596 192.911L87.3385 189.937C87.5068 189.875 87.6892 189.862 87.8641 189.902C88.039 189.941 88.1992 190.031 88.3259 190.161C88.4526 190.291 88.5405 190.455 88.5792 190.634C88.6179 190.813 88.6059 190.999 88.5445 191.171L86.1325 199.279L91.2942 205.893C91.4047 206.033 91.4747 206.202 91.4961 206.38C91.5176 206.559 91.4897 206.74 91.4156 206.903C91.3415 207.067 91.2242 207.205 91.0769 207.304C90.9297 207.402 90.7585 207.456 90.5827 207.46L82.3095 207.621L77.7508 214.691C77.6538 214.842 77.5174 214.961 77.3573 215.036C77.1971 215.111 77.0196 215.139 76.8449 215.116C76.6702 215.093 76.5054 215.02 76.3692 214.905C76.2329 214.791 76.1309 214.64 76.0745 214.469L73.373 206.473L65.3893 204.227C65.2187 204.18 65.0645 204.084 64.9445 203.951C64.8245 203.819 64.7435 203.654 64.7107 203.476C64.678 203.298 64.6949 203.115 64.7594 202.946C64.824 202.778 64.9336 202.632 65.0758 202.524L71.6726 197.415L71.2987 188.962C71.2597 188.762 71.2839 188.555 71.3679 188.369C71.4518 188.184 71.591 188.031 71.7655 187.932C71.94 187.833 72.1407 187.794 72.3386 187.819C72.5365 187.845 72.7214 187.934 72.8665 188.074Z" fill="#4C6FBF"/>
<path d="M534.74 234.645C534.813 235.107 534.705 235.579 534.438 235.958C534.171 236.338 533.768 236.593 533.317 236.669C532.865 236.74 532.404 236.626 532.033 236.351C531.663 236.076 531.414 235.662 531.339 235.2C531.27 234.739 531.382 234.268 531.651 233.892C531.92 233.515 532.324 233.262 532.775 233.189C532.997 233.15 533.225 233.158 533.445 233.21C533.665 233.263 533.873 233.36 534.056 233.495C534.239 233.631 534.394 233.802 534.511 234C534.629 234.197 534.707 234.417 534.74 234.645Z" fill="#4C6FBF"/>
<path d="M97.686 196.033C97.7491 196.425 97.6976 196.827 97.538 197.189C97.3783 197.55 97.1176 197.856 96.7887 198.066C96.4597 198.277 96.0773 198.383 95.6895 198.371C95.3017 198.36 94.9259 198.231 94.6095 198.002C94.293 197.772 94.05 197.452 93.911 197.081C93.7721 196.711 93.7434 196.306 93.8287 195.919C93.9139 195.532 94.1092 195.179 94.39 194.905C94.6708 194.631 95.0245 194.448 95.4066 194.38C95.6625 194.334 95.9248 194.34 96.1783 194.399C96.4318 194.457 96.6714 194.566 96.8834 194.72C97.0953 194.874 97.2754 195.069 97.4132 195.294C97.5509 195.52 97.6436 195.771 97.686 196.033Z" fill="#4C6FBF"/>
</svg>
