<svg width="38" height="38" viewBox="0 0 38 38" fill="none" xmlns="http://www.w3.org/2000/svg">
<g filter="url(#filter0_dd)">
<g clip-path="url(#clip0)">
<path d="M23.3534 19.5436C23.3209 19.4657 23.2451 19.4149 23.1609 19.4149H20.8788V14.2083C20.8788 14.0933 20.7855 14 20.6705 14H17.3383C17.2233 14 17.13 14.0933 17.13 14.2083V19.4149H14.8391C14.755 19.4149 14.6792 19.4657 14.6467 19.5432C14.6146 19.6211 14.6321 19.7106 14.6917 19.7702L18.8465 23.9388C18.8857 23.9779 18.9386 24 18.994 24C19.0494 24 19.1023 23.9779 19.1414 23.9392L23.3084 19.7706C23.368 19.711 23.3859 19.6215 23.3534 19.5436Z" fill="#BFC7FF"/>
</g>
</g>
<defs>
<filter id="filter0_dd" x="0" y="0" width="38" height="38" filterUnits="userSpaceOnUse" color-interpolation-filters="sRGB">
<feFlood flood-opacity="0" result="BackgroundImageFix"/>
<feColorMatrix in="SourceAlpha" type="matrix" values="0 0 0 0 0 0 0 0 0 0 0 0 0 0 0 0 0 0 127 0"/>
<feOffset dx="4" dy="4"/>
<feGaussianBlur stdDeviation="5"/>
<feColorMatrix type="matrix" values="0 0 0 0 0.088125 0 0 0 0 0.101934 0 0 0 0 0.195833 0 0 0 1 0"/>
<feBlend mode="normal" in2="BackgroundImageFix" result="effect1_dropShadow"/>
<feColorMatrix in="SourceAlpha" type="matrix" values="0 0 0 0 0 0 0 0 0 0 0 0 0 0 0 0 0 0 127 0"/>
<feOffset dx="-4" dy="-4"/>
<feGaussianBlur stdDeviation="5"/>
<feColorMatrix type="matrix" values="0 0 0 0 0.232104 0 0 0 0 0.256968 0 0 0 0 0.426042 0 0 0 1 0"/>
<feBlend mode="normal" in2="effect1_dropShadow" result="effect2_dropShadow"/>
<feBlend mode="normal" in="SourceGraphic" in2="effect2_dropShadow" result="shape"/>
</filter>
<clipPath id="clip0">
<rect x="14" y="14" width="10" height="10" fill="white"/>
</clipPath>
</defs>
</svg>
