<svg width="175" height="27" viewBox="0 0 175 27" fill="none" xmlns="http://www.w3.org/2000/svg">
<g clip-path="url(#clip0_436_150)">
<path d="M6.40647 26.0602C5.72184 26.3943 4.94498 25.8087 5.08333 25.0612L6.55546 17.0793L0.306894 11.416C-0.276636 10.8862 0.0266578 9.91755 0.808837 9.81293L9.49617 8.63842L13.3698 1.33661C13.7192 0.678486 14.6646 0.678486 15.014 1.33661L18.8876 8.63842L27.575 9.81293C28.3571 9.91755 28.6604 10.8862 28.0751 11.416L21.8283 17.0793L23.3005 25.0612C23.4388 25.8087 22.662 26.3943 21.9773 26.0602L14.1892 22.2532L6.4047 26.0602H6.40647Z" fill="#FFE052"/>
</g>
<g clip-path="url(#clip1_436_150)">
<path d="M43.2983 26.0602C42.6137 26.3943 41.8368 25.8087 41.9752 25.0612L43.4473 17.0793L37.1987 11.416C36.6152 10.8862 36.9185 9.91755 37.7007 9.81293L46.388 8.63842L50.2617 1.33661C50.6111 0.678486 51.5564 0.678486 51.9058 1.33661L55.7795 8.63842L64.4668 9.81293C65.249 9.91755 65.5523 10.8862 64.967 11.416L58.7202 17.0793L60.1923 25.0612C60.3307 25.8087 59.5538 26.3943 58.8692 26.0602L51.0811 22.2532L43.2965 26.0602H43.2983Z" fill="#FFE052"/>
</g>
<g clip-path="url(#clip2_436_150)">
<path d="M80.1903 26.0602C79.5057 26.3943 78.7288 25.8087 78.8671 25.0612L80.3393 17.0793L74.0907 11.416C73.5072 10.8862 73.8105 9.91755 74.5927 9.81293L83.28 8.63842L87.1536 1.33661C87.503 0.678486 88.4484 0.678486 88.7978 1.33661L92.6714 8.63842L101.359 9.81293C102.141 9.91755 102.444 10.8862 101.859 11.416L95.6122 17.0793L97.0843 25.0612C97.2226 25.8087 96.4458 26.3943 95.7611 26.0602L87.9731 22.2532L80.1885 26.0602H80.1903Z" fill="#FFE052"/>
</g>
<g clip-path="url(#clip3_436_150)">
<path d="M117.082 26.0602C116.398 26.3943 115.621 25.8087 115.759 25.0612L117.231 17.0793L110.983 11.416C110.399 10.8862 110.702 9.91755 111.484 9.81293L120.172 8.63842L124.045 1.33661C124.395 0.678486 125.34 0.678486 125.69 1.33661L129.563 8.63842L138.251 9.81293C139.033 9.91755 139.336 10.8862 138.751 11.416L132.504 17.0793L133.976 25.0612C134.114 25.8087 133.338 26.3943 132.653 26.0602L124.865 22.2532L117.08 26.0602H117.082Z" fill="#FFE052"/>
</g>
<g clip-path="url(#clip4_436_150)">
<path d="M153.028 26.0602C152.343 26.3943 151.567 25.8087 151.705 25.0612L153.177 17.0793L146.928 11.416C146.345 10.8862 146.648 9.91755 147.43 9.81293L156.118 8.63842L159.991 1.33661C160.341 0.678486 161.286 0.678486 161.636 1.33661L165.509 8.63842L174.197 9.81293C174.979 9.91755 175.282 10.8862 174.697 11.416L168.45 17.0793L169.922 25.0612C170.06 25.8087 169.284 26.3943 168.599 26.0602L160.811 22.2532L153.026 26.0602H153.028Z" fill="#FFE052"/>
</g>
<defs>
<clipPath id="clip0_436_150">
<rect width="28.3784" height="27" fill="white"/>
</clipPath>
<clipPath id="clip1_436_150">
<rect width="28.3784" height="27" fill="white" transform="translate(36.8918)"/>
</clipPath>
<clipPath id="clip2_436_150">
<rect width="28.3784" height="27" fill="white" transform="translate(73.7838)"/>
</clipPath>
<clipPath id="clip3_436_150">
<rect width="28.3784" height="27" fill="white" transform="translate(110.676)"/>
</clipPath>
<clipPath id="clip4_436_150">
<rect width="28.3784" height="27" fill="white" transform="translate(146.622)"/>
</clipPath>
</defs>
</svg>
