<svg xmlns="http://www.w3.org/2000/svg" xmlns:xlink="http://www.w3.org/1999/xlink"><symbol viewBox="0 0 18 14" id="form-mail" xmlns="http://www.w3.org/2000/svg"><defs><mask id="ab" width="2" height="2" x="-1" y="-1"><path d="M1 1h16v12H1z"/><path d="M17 2.931v8.14C17 12.136 16.122 13 15.043 13H2.956C1.877 13 1 12.135 1 11.072V2.928C1 1.865 1.877 1 2.956 1h12.09c1.08 0 1.957.868 1.954 1.931zm-.894 8.14v-8.14c0-.577-.477-1.047-1.063-1.047H2.956c-.586 0-1.062.47-1.062 1.047v8.14c0 .578.476 1.048 1.062 1.048h12.09c.587 0 1.063-.47 1.063-1.047zm-1.086-.495a.438.438 0 0 1 .017.623.45.45 0 0 1-.633.016L10.425 7.49l-1.116.986a.447.447 0 0 1-.596.003l-1.085-.956-4.003 3.69a.451.451 0 0 1-.632-.023.438.438 0 0 1 .02-.623l3.943-3.638-3.96-3.488a.435.435 0 0 1-.036-.623.451.451 0 0 1 .632-.036L7.876 6.56c.026.02.05.039.073.062 0 .003.003.006.006.01l1.053.926 5.396-4.773a.454.454 0 0 1 .633.032.438.438 0 0 1-.034.623L11.09 6.9z"/></mask><filter id="aa" width="38" height="34" x="-10" y="-10" filterUnits="userSpaceOnUse"><feOffset in="SourceGraphic" result="FeOffset1041Out"/><feGaussianBlur in="FeOffset1041Out" result="FeGaussianBlur1042Out" stdDeviation="0.4 0.4"/></filter></defs><g filter="url(#aa)"><path d="M17 2.931v8.14C17 12.136 16.122 13 15.043 13H2.956C1.877 13 1 12.135 1 11.072V2.928C1 1.865 1.877 1 2.956 1h12.09c1.08 0 1.957.868 1.954 1.931zm-.894 8.14v-8.14c0-.577-.477-1.047-1.063-1.047H2.956c-.586 0-1.062.47-1.062 1.047v8.14c0 .578.476 1.048 1.062 1.048h12.09c.587 0 1.063-.47 1.063-1.047zm-1.086-.495a.438.438 0 0 1 .017.623.45.45 0 0 1-.633.016L10.425 7.49l-1.116.986a.447.447 0 0 1-.596.003l-1.085-.956-4.003 3.69a.451.451 0 0 1-.632-.023.438.438 0 0 1 .02-.623l3.943-3.638-3.96-3.488a.435.435 0 0 1-.036-.623.451.451 0 0 1 .632-.036L7.876 6.56c.026.02.05.039.073.062 0 .003.003.006.006.01l1.053.926 5.396-4.773a.454.454 0 0 1 .633.032.438.438 0 0 1-.034.623L11.09 6.9z" mask="url(#ab)"/><path fill-opacity=".34" d="M17 2.931v8.14C17 12.136 16.122 13 15.043 13H2.956C1.877 13 1 12.135 1 11.072V2.928C1 1.865 1.877 1 2.956 1h12.09c1.08 0 1.957.868 1.954 1.931zm-.894 8.14v-8.14c0-.577-.477-1.047-1.063-1.047H2.956c-.586 0-1.062.47-1.062 1.047v8.14c0 .578.476 1.048 1.062 1.048h12.09c.587 0 1.063-.47 1.063-1.047zm-1.086-.495a.438.438 0 0 1 .017.623.45.45 0 0 1-.633.016L10.425 7.49l-1.116.986a.447.447 0 0 1-.596.003l-1.085-.956-4.003 3.69a.451.451 0 0 1-.632-.023.438.438 0 0 1 .02-.623l3.943-3.638-3.96-3.488a.435.435 0 0 1-.036-.623.451.451 0 0 1 .632-.036L7.876 6.56c.026.02.05.039.073.062 0 .003.003.006.006.01l1.053.926 5.396-4.773a.454.454 0 0 1 .633.032.438.438 0 0 1-.034.623L11.09 6.9z"/></g><g filter="url(#aa)"><path d="M17 2.931v8.14C17 12.136 16.122 13 15.043 13H2.956C1.877 13 1 12.135 1 11.072V2.928C1 1.865 1.877 1 2.956 1h12.09c1.08 0 1.957.868 1.954 1.931zm-.894 8.14v-8.14c0-.577-.477-1.047-1.063-1.047H2.956c-.586 0-1.062.47-1.062 1.047v8.14c0 .578.476 1.048 1.062 1.048h12.09c.587 0 1.063-.47 1.063-1.047zm-1.086-.495a.438.438 0 0 1 .017.623.45.45 0 0 1-.633.016L10.425 7.49l-1.116.986a.447.447 0 0 1-.596.003l-1.085-.956-4.003 3.69a.451.451 0 0 1-.632-.023.438.438 0 0 1 .02-.623l3.943-3.638-3.96-3.488a.435.435 0 0 1-.036-.623.451.451 0 0 1 .632-.036L7.876 6.56c.026.02.05.039.073.062 0 .003.003.006.006.01l1.053.926 5.396-4.773a.454.454 0 0 1 .633.032.438.438 0 0 1-.034.623L11.09 6.9z" mask="url(#ab)"/><path fill-opacity=".34" d="M17 2.931v8.14C17 12.136 16.122 13 15.043 13H2.956C1.877 13 1 12.135 1 11.072V2.928C1 1.865 1.877 1 2.956 1h12.09c1.08 0 1.957.868 1.954 1.931zm-.894 8.14v-8.14c0-.577-.477-1.047-1.063-1.047H2.956c-.586 0-1.062.47-1.062 1.047v8.14c0 .578.476 1.048 1.062 1.048h12.09c.587 0 1.063-.47 1.063-1.047zm-1.086-.495a.438.438 0 0 1 .017.623.45.45 0 0 1-.633.016L10.425 7.49l-1.116.986a.447.447 0 0 1-.596.003l-1.085-.956-4.003 3.69a.451.451 0 0 1-.632-.023.438.438 0 0 1 .02-.623l3.943-3.638-3.96-3.488a.435.435 0 0 1-.036-.623.451.451 0 0 1 .632-.036L7.876 6.56c.026.02.05.039.073.062 0 .003.003.006.006.01l1.053.926 5.396-4.773a.454.454 0 0 1 .633.032.438.438 0 0 1-.034.623L11.09 6.9z"/></g><path d="M17 2.931v8.14C17 12.136 16.122 13 15.043 13H2.956C1.877 13 1 12.135 1 11.072V2.928C1 1.865 1.877 1 2.956 1h12.09c1.08 0 1.957.868 1.954 1.931zm-.894 8.14v-8.14c0-.577-.477-1.047-1.063-1.047H2.956c-.586 0-1.062.47-1.062 1.047v8.14c0 .578.476 1.048 1.062 1.048h12.09c.587 0 1.063-.47 1.063-1.047zm-1.086-.495a.438.438 0 0 1 .017.623.45.45 0 0 1-.633.016L10.425 7.49l-1.116.986a.447.447 0 0 1-.596.003l-1.085-.956-4.003 3.69a.451.451 0 0 1-.632-.023.438.438 0 0 1 .02-.623l3.943-3.638-3.96-3.488a.435.435 0 0 1-.036-.623.451.451 0 0 1 .632-.036L7.876 6.56c.026.02.05.039.073.062 0 .003.003.006.006.01l1.053.926 5.396-4.773a.454.454 0 0 1 .633.032.438.438 0 0 1-.034.623L11.09 6.9z"/></symbol><symbol viewBox="0 0 15 18" id="form-name" xmlns="http://www.w3.org/2000/svg"><path d="M4.865 8.562C3.459 6.944 3.693 4.171 3.718 3.906 3.81 1.905 4.744.954 5.511.511 6.275.067 7.071 0 7.476 0h.062c.738.015 1.399.194 1.965.526.76.443 1.68 1.394 1.771 3.38.026.265.26 3.038-1.146 4.656-.64.734-1.505 1.118-2.575 1.137h-.117C6.366 9.68 5.5 9.296 4.865 8.562zm.734-.667c.457.53 1.074.79 1.877.797h.037c.807-.007 1.42-.268 1.88-.797 1.162-1.335.906-3.87.903-3.895-.004-.008-.004-.02-.004-.03-.113-2.527-1.79-2.937-2.776-2.96h-.043c-.797 0-2.656.287-2.776 2.96 0 .007-.004.018-.004.03-.003.022-.252 2.568.906 3.895zm9.225 8.088a.497.497 0 0 1-.19.235C14.524 16.29 11.9 18 7.505 18 3.112 18 .486 16.293.377 16.218a.477.477 0 0 1-.19-.235c-.194-.5-.19-1.494-.187-1.688v-.011c.004-.03.004-.06.004-.094.022-.734.07-2.46 1.654-3.015a.433.433 0 0 1 .037-.011c1.654-.429 3.017-1.398 3.031-1.41a.486.486 0 0 1 .687.124.51.51 0 0 1-.12.7c-.063.042-1.516 1.078-3.335 1.555-.851.31-.946 1.237-.972 2.087 0 .034-.003.064-.003.093a6.51 6.51 0 0 0 .076 1.152c.596.343 2.93 1.532 6.443 1.532 3.528 0 5.847-1.185 6.438-1.528.059-.298.08-.816.077-1.152-.004-.03-.004-.06-.004-.093-.025-.85-.12-1.778-.971-2.087-1.819-.477-3.272-1.51-3.334-1.555a.51.51 0 0 1-.12-.7.486.486 0 0 1 .686-.124c.014.012 1.384.98 3.03 1.41l.037.01c1.585.552 1.633 2.278 1.655 3.016 0 .034.004.064.004.093v.012c.003.193.007 1.189-.176 1.684z"/></symbol><symbol viewBox="0 0 17 17" id="form-phone" xmlns="http://www.w3.org/2000/svg"><path d="M15.416 12.508c.363.359.554.786.554 1.23 0 .442-.187.872-.543 1.242-.155.161-.313.316-.467.463-.227.219-.442.423-.63.65-.003.006-.01.01-.013.017-.547.592-1.244.89-2.074.89a4.91 4.91 0 0 1-.226-.007c-1.233-.08-2.336-.542-3.163-.933a16.905 16.905 0 0 1-5.63-4.403C1.925 10.1 1.055 8.647.473 7.08c-.237-.638-.546-1.614-.46-2.662.058-.65.32-1.21.78-1.668l1.222-1.231.007-.007c.36-.345.783-.528 1.222-.528.438 0 .855.183 1.204.528.233.215.46.445.675.667.108.115.223.23.334.34l.981.98c.755.754.755 1.73 0 2.483-.1.1-.2.205-.301.305-.266.27-.54.55-.834.818.22.485.521.962.97 1.529.927 1.137 1.894 2.016 2.958 2.69.104.065.226.126.355.191.09.047.184.093.277.144L11 10.528c.363-.363.787-.553 1.229-.553.445 0 .866.193 1.214.556zm-.69.678l-1.98-1.977-.007-.007c-.111-.122-.295-.262-.518-.262-.226 0-.42.147-.542.269l-1.23 1.227a.768.768 0 0 1-.545.248.78.78 0 0 1-.356-.09c-.015-.007-.029-.018-.043-.025a4.565 4.565 0 0 0-.356-.19 4.925 4.925 0 0 1-.442-.24c-1.153-.73-2.2-1.68-3.191-2.9l-.004-.003c-.546-.693-.905-1.274-1.16-1.891a3.7 3.7 0 0 0-.011-.032c-.065-.205-.122-.506.187-.815.003-.007.01-.01.018-.018.312-.28.6-.567.902-.875.104-.1.205-.205.309-.309.38-.38.38-.732 0-1.112l-.981-.98-.342-.348a18.563 18.563 0 0 0-.646-.642l-.011-.01c-.115-.116-.299-.252-.525-.252-.183 0-.37.09-.546.255L1.48 3.43c-.298.298-.46.646-.495 1.066-.054.657.068 1.353.402 2.246.543 1.464 1.362 2.827 2.587 4.302a15.96 15.96 0 0 0 5.304 4.148c.744.355 1.736.771 2.803.84.054.003.112.003.166.003.56 0 .988-.183 1.35-.57a9.43 9.43 0 0 1 .694-.718c.155-.151.299-.287.439-.438-.004.004-.004 0 0 0 .366-.38.366-.757-.004-1.123zm-5.93-9.702a.488.488 0 0 1 .561-.395 5.545 5.545 0 0 1 3.001 1.554 5.531 5.531 0 0 1 1.556 2.996.485.485 0 0 1-.399.56c-.029.003-.054.007-.083.007a.482.482 0 0 1-.477-.402 4.571 4.571 0 0 0-1.287-2.476 4.56 4.56 0 0 0-2.48-1.284.48.48 0 0 1-.391-.56zm7.802 4.568c-.028.003-.054.007-.082.007a.482.482 0 0 1-.478-.402 8.124 8.124 0 0 0-2.29-4.41A8.168 8.168 0 0 0 9.333.962.483.483 0 1 1 9.49.008a9.123 9.123 0 0 1 4.941 2.558 9.099 9.099 0 0 1 2.563 4.933.475.475 0 0 1-.396.553z"/></symbol></svg>