<svg width="143" height="39" viewBox="0 0 143 39" fill="none" xmlns="http://www.w3.org/2000/svg">
<path fill-rule="evenodd" clip-rule="evenodd" d="M73.2048 23.8612H68.4519L65.9695 34.8931H62.1634L64.6457 23.8612H58.9734L55.0468 26.6932L60.0436 34.8931H55.7041L52.0323 28.8673L50.6798 29.8427L49.5434 34.8931H45.7373L48.7576 21.4715H52.5635L51.4913 26.2368L58.098 21.4715H73.7426L73.2048 23.8612ZM32.5501 21.4715H29.8277L33.7804 3.90576H28.918L6.28587 28.1672L7.79268 21.4715H3.9866L0.966309 34.8931H4.1399L11.0454 27.4904L9.37965 34.8931H13.1857L16.0614 22.1132L19.4903 18.4375H26.7043L26.0216 21.4715H22.155C14.9217 21.4715 13.667 30.5885 20.7852 30.5885H23.9701L22.875 35.4546H26.6811L27.776 30.5885H31.6917C37.6888 30.5885 40.6276 21.4715 32.5501 21.4715ZM31.9974 23.7656C36.6877 23.7656 35.0305 28.2943 31.0737 28.2943H28.2923L29.3114 23.7656H31.9974ZM22.4951 23.7656C18.8937 23.7655 18.2336 28.2943 21.3733 28.2943H24.4864L25.5055 23.7656H22.4951ZM38.8967 12.6772H36.9147L37.8826 8.37562H40.7693C43.7752 8.37562 43.6932 12.6775 38.8967 12.6772ZM41.21 5.98587H34.915L31.8174 19.7509H35.3229L36.3339 15.2581H39.5026C47.043 15.4544 48.5392 5.9862 41.21 5.98587ZM82.7961 34.8931L85.8163 21.4715H89.6223L86.602 34.8931H82.7961ZM74.6988 21.4715H78.5047L77.6442 25.2951H78.6399C86.1374 25.2951 83.6751 34.8938 75.6555 34.8938L71.6785 34.8931L74.6988 21.4715ZM78.3492 27.7804H77.085L76.1171 32.082H76.8495C80.2205 32.082 81.1842 27.7804 78.3492 27.7804ZM131.14 12.2948H129.748L128.758 16.692H130.076C132.947 16.692 134.727 12.2948 131.14 12.2948ZM128.702 19.7509H124.564L127.662 5.98587H131.167L130.285 9.90506H131.992C138.869 9.90506 136.557 19.8202 128.702 19.7509ZM27.2367 16.0723L28.9979 8.24546L21.6966 16.0723H27.2367ZM39.9045 29.7878H42.0785L42.7696 26.7166L39.9045 29.7878ZM37.7645 32.082L35.1421 34.8931H31.4211L43.9457 21.4715H47.7561L44.7359 34.8931H40.9299L41.5623 32.082H37.7645ZM69.7097 11.1502L67.7743 19.7511H64.2687L67.0032 7.59876L56.8267 19.7511H53.2761L57.8118 14.3346L55.049 8.37585H50.9032L48.3435 19.7511H44.838L47.9356 5.9861H57.7072L60.2358 11.44L64.8031 5.9861H72.6292L73.5428 15.0753L79.316 5.9861H83.7923L80.6948 19.7511H77.1893L79.0482 11.4903L73.8014 19.7511L70.5742 19.7502L69.7097 11.1502ZM87.617 11.2433H94.7903L94.2096 13.8243H87.0363L86.391 16.692H95.1407L94.4523 19.7509H82.1971L85.2947 5.98586H97.5498L97.012 8.37562H88.2623L87.617 11.2433ZM100.938 11.2433H106.948L108.131 5.98586H111.636L108.539 19.7509H105.033L106.367 13.8243H100.357L99.0238 19.7509H95.5182L98.6157 5.98586H102.121L100.938 11.2433ZM112.702 5.98586H126.596L126.058 8.37562H120.914L118.354 19.7509H114.849L117.409 8.37562H112.165L112.702 5.98586ZM135.682 19.7509L138.779 5.98586H142.285L139.188 19.7509H135.682Z" fill="white"/>
<path fill-rule="evenodd" clip-rule="evenodd" d="M72.9533 23.6747H68.2005L65.718 34.7066H61.9119L64.3942 23.6747H58.7219L54.7954 26.5067L59.7921 34.7066H55.4526L51.7809 28.6808L50.4284 29.6562L49.2919 34.7066H45.4858L48.5061 21.285H52.312L51.2398 26.0502L57.8466 21.285H73.4911L72.9533 23.6747ZM32.2986 21.285H29.5762L33.5289 3.71924H28.6665L6.0344 27.9807L7.54122 21.285H3.73513L0.714844 34.7066H3.88843L10.7939 27.3039L9.12818 34.7066H12.9343L15.81 21.9266L19.2389 18.251H26.4529L25.7701 21.285H21.9035C14.6702 21.285 13.4155 30.402 20.5338 30.402H23.7186L22.6235 35.2681H26.4296L27.5246 30.402H31.4402C37.4374 30.402 40.3761 21.285 32.2986 21.285V21.285ZM31.7459 23.5791C36.4362 23.5791 34.779 28.1078 30.8222 28.1078H28.0408L29.0599 23.5791H31.7459ZM22.2436 23.5791C18.6423 23.579 17.9821 28.1078 21.1218 28.1078H24.2349L25.254 23.5791H22.2436ZM38.6453 12.4907H36.6632L37.6312 8.1891H40.5178C43.5237 8.1891 43.4417 12.491 38.6453 12.4907ZM40.9586 5.79934H34.6635L31.566 19.5643H35.0714L36.0825 15.0716H39.2511C46.7915 15.2679 48.2877 5.79968 40.9586 5.79934ZM82.5447 34.7066L85.5648 21.285H89.3709L86.3506 34.7066H82.5447ZM74.4473 21.285H78.2532L77.3928 25.1086H78.3884C85.8859 25.1086 83.4236 34.7073 75.404 34.7073L71.427 34.7066L74.4473 21.285ZM78.0977 27.5939H76.8336L75.8656 31.8955H76.5981C79.9691 31.8955 80.9328 27.5939 78.0977 27.5939ZM130.889 12.1083H129.496L128.507 16.5054H129.825C132.696 16.5054 134.476 12.1083 130.889 12.1083ZM128.45 19.5643H124.313L127.41 5.79934H130.916L130.034 9.71854H131.74C138.618 9.71854 136.306 19.6337 128.45 19.5643ZM26.9852 15.8858L28.7465 8.05893L21.4452 15.8858H26.9852ZM39.6531 29.6013H41.8271L42.5182 26.53L39.6531 29.6013ZM37.5131 31.8955L34.8906 34.7066H31.1697L43.6943 21.285H47.5046L44.4845 34.7066H40.6784L41.3108 31.8955H37.5131ZM69.4583 10.9636L67.5229 19.5646H64.0172L66.7518 7.41223L56.5753 19.5646H53.0247L57.5603 14.1481L54.7976 8.18933H50.6517L48.092 19.5646H44.5866L47.6841 5.79957H57.4557L59.9843 11.2535L64.5516 5.79957H72.3777L73.2914 14.8888L79.0645 5.79957H83.5408L80.4433 19.5646H76.9378L78.7967 11.3038L73.5499 19.5646L70.3228 19.5636L69.4583 10.9636ZM87.3656 11.0568H94.5388L93.9581 13.6377H86.7848L86.1395 16.5054H94.8892L94.2008 19.5643H81.9457L85.0432 5.79934H97.2984L96.7605 8.18909H88.0109L87.3656 11.0568ZM100.687 11.0568H106.696L107.879 5.79934H111.385L108.287 19.5643H104.782L106.116 13.6377H100.106L98.7723 19.5643H95.2667L98.3642 5.79934H101.87L100.687 11.0568ZM112.451 5.79934H126.344L125.807 8.18909H120.663L118.103 19.5643H114.598L117.157 8.18909H111.913L112.451 5.79934ZM135.43 19.5643L138.528 5.79934H142.034L138.936 19.5643H135.43Z" fill="white"/>
</svg>
