<svg width="141" height="47" viewBox="0 0 141 47" fill="none" xmlns="http://www.w3.org/2000/svg">
<path fill-rule="evenodd" clip-rule="evenodd" d="M19.7101 3.80062C18.3402 3.55935 9.47628 2.83398 4.80229 9.03877C2.54623 11.8596 4.15792 15.3242 9.23454 15.3242C4.4801 17.0969 0.854107 20.3204 1.82104 24.1073C3.15885 29.3474 8.99281 29.1035 13.586 28.6201C21.7571 27.7599 27.3653 20.0787 28.6548 19.1117C30.5887 20.0787 31.5555 21.8513 30.7499 22.9794C28.574 23.0599 22.8529 23.543 23.0944 26.525C23.3364 29.5062 32.3612 29.184 37.3575 25.8802C38.0829 26.1219 39.533 26.8471 40.2585 27.4114C40.9837 27.9753 41.7894 27.4918 41.8699 25.0745C41.145 24.349 39.1304 23.6238 38.0829 23.6238C38.4052 22.0122 38.9691 20.0787 34.4566 16.775C33.7312 16.3715 33.8119 15.8882 34.3759 15.4856C34.9401 15.0822 34.2954 14.1156 32.7642 13.6315C31.233 13.1489 27.9293 13.3902 26.8819 14.5989C26.3984 15.0822 26.3984 16.775 27.2041 17.339C26.3984 18.7084 22.3692 24.5908 16.406 25.0745C14.2304 25.3163 11.7837 24.9975 11.9744 21.8513C12.1356 19.1922 16.1643 16.8556 17.615 16.211C18.5011 15.8075 18.3402 14.5182 17.212 14.1962C16.0842 13.8735 13.4248 13.7129 13.2635 11.6175C13.1023 9.52208 15.7616 7.99145 20.0323 7.1854C21.3218 7.02403 21.3218 4.20403 19.7101 3.80062ZM30.4274 25.3967C29.0575 25.155 25.512 25.155 25.512 26.2832C25.512 27.4114 29.38 27.1693 30.4274 25.3967Z" fill="white"/>
<path fill-rule="evenodd" clip-rule="evenodd" d="M54.0377 17.7421C52.7485 17.5807 48.6388 17.0974 48.0746 21.0458C47.5106 24.9943 50.7339 25.3168 52.0233 25.1555C53.3125 24.9943 55.9716 23.6243 55.9716 18.8702C55.891 16.4527 56.858 15.5668 58.9531 15.4861C61.0485 15.4054 62.0151 15.8887 62.0151 18.0648C62.0151 20.2404 62.0959 36.598 62.0959 37.3232C60.5647 37.3232 56.5358 37.4845 54.9242 37.7262C55.0854 33.8582 55.5689 26.042 55.5689 24.833C54.5211 26.3642 52.5068 28.6206 48.7193 28.54C44.9321 28.4593 41.4671 26.6864 41.7087 21.6905C41.9505 16.6948 47.0272 13.2293 54.8436 14.3581C56.2133 14.5994 56.3745 17.9834 54.0377 17.7421Z" fill="white"/>
<path fill-rule="evenodd" clip-rule="evenodd" d="M137.923 25.3169C136.07 25.2361 134.78 25.5583 133.33 25.8003C131.88 26.0421 129.623 26.2838 127.931 25.8808C126.239 25.4778 125.756 23.7857 126.239 22.7383C126.722 21.6906 128.334 21.1263 129.301 20.8041C130.268 20.4819 130.268 19.1928 129.22 18.951C128.173 18.709 126.722 18.306 126.722 17.4202C126.722 16.5335 128.012 15.3248 132.04 15.6468C133.572 15.8081 133.169 13.1495 131.476 12.7461C129.946 12.6654 124.627 13.1495 121.001 15.0021C119.147 15.9695 118.826 18.6285 123.741 19.515C120.679 19.7568 118.583 22.4158 118.664 23.6244C118.687 23.9683 118.626 24.5797 118.832 25.2523C118.037 25.767 117.057 25.9352 115.965 25.8808C114.353 25.8003 111.935 23.8661 112.459 20.5624C112.923 17.6356 113.749 17.9834 114.151 17.8229C115.038 17.8229 115.925 17.3395 115.925 16.2115C115.925 15.0828 116.206 14.8008 115.32 14.8008C114.433 14.8008 108.914 15.6068 104.804 14.6801C104.723 13.4714 102.709 11.7787 100.614 12.9074C98.5192 14.0354 99.0832 16.6142 101.501 17.2589C101.689 17.309 101.882 17.3568 102.073 17.4046C101.333 20.4522 99.6299 25.5405 96.9071 26.0421C95.3764 26.3643 94.409 25.3169 94.5704 22.8187C94.7317 20.321 95.2151 15.6468 95.2151 15.6468C95.3764 13.632 88.0429 13.7135 88.1235 16.2115V24.1079C88.1235 24.2964 88.1635 24.5329 88.2363 24.7933C86.3806 26.2376 82.2854 26.5684 82.5634 23.3022L83.5309 16.1301C83.7721 14.0354 77.084 13.3101 76.9227 16.2115L76.842 22.0128C76.8161 22.3432 76.8052 22.7441 76.831 23.181C76.2983 24.1733 75.2925 25.1002 74.022 25.1556C72.1683 25.2361 71.1209 24.9944 71.2819 22.6575C71.4431 20.321 72.0074 15.8888 72.0074 15.8888C72.1683 13.7934 65.4803 13.7934 65.3191 15.6468C65.2385 17.1782 64.8359 22.8187 64.7551 24.5913C64.6746 26.3643 67.4145 28.5401 71.2819 28.3789C74.6925 28.2366 75.9106 27.2792 77.3104 25.3979C77.9935 27.0509 79.5421 28.5181 82.8862 28.3789C84.1583 28.3039 86.0579 28.7143 89.0346 26.3823C89.8289 27.4542 91.1746 28.4499 93.2003 28.5401C96.8264 28.7014 99.5665 28.3789 101.501 24.5913C103.18 21.3013 103.705 19.9562 104.13 17.8636C105.781 18.1824 107.484 18.3868 109.155 18.3868C107.221 19.7568 106.416 20.8846 106.577 23.2214C106.658 24.6722 107.624 28.4064 113.829 28.4594C117.335 28.4894 118.946 27.7394 120.055 26.9055C121.544 27.9882 124.638 28.7635 131.074 28.2176C133.169 27.8951 136.311 27.9759 138.326 28.0564C139.696 28.1372 139.777 25.3973 137.923 25.3169Z" fill="white"/>
<path fill-rule="evenodd" clip-rule="evenodd" d="M91.83 12.1158C93.844 12.1158 95.4764 10.7387 95.4764 9.03885C95.4764 7.3398 93.844 5.96191 91.83 5.96191C89.8161 5.96191 88.1836 7.3398 88.1836 9.03885C88.1836 10.7387 89.8161 12.1158 91.83 12.1158Z" fill="white"/>
</svg>
