<svg width="57" height="28" viewBox="0 0 57 28" fill="none" xmlns="http://www.w3.org/2000/svg">
<path d="M27.9015 11.8874L15.1249 11.8847V18.2068H18.5459C18.5459 18.3615 16.7917 20.0675 14.1598 20.0675C11.263 20.0675 7.98451 17.779 7.91865 14.1127C7.85009 10.3133 11.134 7.82425 14.1598 7.93188C16.6156 8.02068 17.5539 8.72299 18.9249 10.0724C18.9249 10.0724 26.646 10.0778 27.1071 10.0778C26.404 7.37757 22.6484 0.588616 14.0603 0.577851C6.17791 0.56709 0.516152 7.0762 0.537659 13.8598C0.563198 21.721 6.64704 27.4619 14.356 27.4619C22.6941 27.4619 27.3396 20.603 27.9216 15.5227C28.1367 13.9957 27.9015 11.8874 27.9015 11.8874Z" fill="white"/>
<path d="M47.8017 15.7178L47.104 14.7895L38.7176 14.7882L42.1103 19.7003C38.5536 20.3985 35.1958 17.4184 35.2442 13.9567C35.2939 10.4182 38.1463 7.77989 41.5579 7.792C45.9709 7.8068 49.037 11.8578 47.8017 15.7178ZM52.8424 21.7883C52.8424 21.7883 55.3332 18.5338 55.3439 14.2917C55.3641 5.96089 49.533 0.550984 41.4006 0.537529C34.3543 0.526768 28.9063 5.6797 27.9129 11.835H27.9116C27.7247 13.0902 27.7516 14.3334 27.929 15.5752V15.5739C28.7813 21.6363 34.0236 27.3785 41.4476 27.3799C44.6818 27.3799 46.9682 25.9995 47.3823 25.7802L48.2089 26.8606L56.4623 26.8552L52.8424 21.7883Z" fill="white"/>
</svg>
