<svg width="75" height="20" viewBox="0 0 75 20" fill="none" xmlns="http://www.w3.org/2000/svg">
<path fill-rule="evenodd" clip-rule="evenodd" d="M0 0V18.6667L18.6667 0H0Z" fill="white"/>
<path fill-rule="evenodd" clip-rule="evenodd" d="M1.3335 20.0002H20.0002V1.3335L1.3335 20.0002Z" fill="white"/>
<path fill-rule="evenodd" clip-rule="evenodd" d="M30.4854 9.56646C32.6558 9.56646 33.8096 8.50359 33.8096 6.51771V6.4055C33.8096 4.27977 32.6007 3.44066 30.4854 3.44066H28.2325V9.56646H30.4854ZM23.8096 0H30.5952C35.3754 0 38.0953 2.15371 38.0953 6.37786V6.48941C38.0953 10.7132 35.2108 12.7274 30.7324 12.7274H28.2325V20H23.8096V0Z" fill="white"/>
<path fill-rule="evenodd" clip-rule="evenodd" d="M46.9003 16.5593C49.0297 16.5593 50.108 15.6084 50.108 13.79V13.6784C50.108 11.888 49.0297 10.909 46.7925 10.909H44.3126V16.5593H46.9003ZM47.0621 20H40V0H52.5608V3.52457H44.3398L44.3126 7.72011H47.1967C51.6443 7.72011 54.2857 9.70631 54.2857 13.7061V13.8183C54.2857 17.7341 51.833 20 47.0621 20Z" fill="white"/>
<path fill-rule="evenodd" clip-rule="evenodd" d="M57.5 0.0279312H62.1441V8.63137L69.3107 0H74.2415L66.1287 9.46931L74.6429 20H69.2247L62.1441 11.0335V20H57.5V0.0279312Z" fill="white"/>
</svg>
